{
.appVersion = "1158";
copyright = "Copyright © 2018 by Cadson Demak Co.,Ltd.. All rights reserved.";
customParameters = (
{
name = vendorID;
value = CDK;
},
{
name = description;
value = "Copyright (c) 2018, Cadson Demak (info@cadsondemak.com)";
},
{
name = license;

glyphs = (
{
color = 1;
glyphname = A;
lastChange = "2018-07-19 12:45:21 +0000";
layers = (
{
anchors = (
{
name = bottom;
position = "{292, 0}";
},
{
name = ogonek;
position = "{575, 10}";
},
{
name = top;
position = "{467, 700}";
}
);
layerId = "0B1DFD06-3317-40CA-B510-4969A0718C16";
paths = (
{
closed = 1;
nodes = (
"322 -10 OFFCURVE",
"407 60 OFFCURVE",
"480 152 CURVE",
"492 152 LINE",
"512 233 LINE",
"503 233 LINE",
"415 104 OFFCURVE",
"318 20 OFFCURVE",
"242 20 CURVE SMOOTH",
"192 20 OFFCURVE",
"139 56 OFFCURVE",
"105 123 CURVE",
"100 411 OFFCURVE",
"245 679 OFFCURVE",
"509 679 CURVE SMOOTH",
"625 679 OFFCURVE",
"708 623 OFFCURVE",
"708 537 CURVE SMOOTH",
"708 477 OFFCURVE",
"673 424 OFFCURVE",
"618 397 CURVE",
"699 408 OFFCURVE",
"747 471 OFFCURVE",
"747 550 CURVE SMOOTH",
"747 656 OFFCURVE",
"631 710 OFFCURVE",
"513 710 CURVE SMOOTH",
"253 710 OFFCURVE",
"73 458 OFFCURVE",
"73 190 CURVE SMOOTH",
"73 167 OFFCURVE",
"75 146 OFFCURVE",
"78 127 CURVE",
"99 48 OFFCURVE",
"153 -10 OFFCURVE",
"234 -10 CURVE SMOOTH"
);
},
{
closed = 1;
nodes = (
"495 0 LINE",
"491 12 OFFCURVE",
"495 48 OFFCURVE",
"506 92 CURVE SMOOTH",
"636 613 LINE",
"628 613 LINE",
"523 455 OFFCURVE",
"455 399 OFFCURVE",
"370 399 CURVE SMOOTH",
"323 399 OFFCURVE",
"297 417 OFFCURVE",
"297 442 CURVE SMOOTH",
"297 466 OFFCURVE",
"317 487 OFFCURVE",
"348 487 CURVE SMOOTH",
"360 487 OFFCURVE",
"377 484 OFFCURVE",
"392 469 CURVE",
"393 499 OFFCURVE",
"376 516 OFFCURVE",
"342 516 CURVE SMOOTH",
"294 516 OFFCURVE",
"258 484 OFFCURVE",
"258 435 CURVE SMOOTH",
"258 394 OFFCURVE",
"295 368 OFFCURVE",
"358 368 CURVE SMOOTH",
"430 368 OFFCURVE",
"506 402 OFFCURVE",
"572 504 CURVE",
"576 502 LINE",
"561 462 OFFCURVE",
"556 448 OFFCURVE",
"544 398 CURVE SMOOTH",
"468 92 LINE SMOOTH",
"454 36 OFFCURVE",
"447 18 OFFCURVE",
"433 0 CURVE"
);
}
);
width = 702;
},
{
associatedMasterId = "0B1DFD06-3317-40CA-B510-4969A0718C16";
background = {
paths = (
{
closed = 1;
nodes = (
"223 -10 OFFCURVE",
"268 6 OFFCURVE",
"317 35 CURVE SMOOTH",
"363 61 OFFCURVE",
"406 94 OFFCURVE",
"443 130 CURVE",
"482 163 OFFCURVE",
"512 196 OFFCURVE",
"540 230 CURVE",
"529 201 OFFCURVE",
"519 178 OFFCURVE",
"509 163 CURVE SMOOTH",
"480 119 LINE SMOOTH",
"470 104 OFFCURVE",
"456 84 OFFCURVE",
"436 57 CURVE SMOOTH",
"416 30 OFFCURVE",
"404 12 OFFCURVE",
"402 4 CURVE",
"407 4 OFFCURVE",
"418 5 OFFCURVE",
"437 1 CURVE",
"456 0 OFFCURVE",
"468 -1 OFFCURVE",
"477 -1 CURVE SMOOTH",
"493 -1 OFFCURVE",
"505 0 OFFCURVE",
"514 4 CURVE",
"533 70 OFFCURVE",
"554 136 OFFCURVE",
"580 202 CURVE SMOOTH",
"607 267 OFFCURVE",
"631 324 OFFCURVE",
"655 373 CURVE SMOOTH",
"679 422 OFFCURVE",
"714 498 OFFCURVE",
"768 603 CURVE",
"768 619 LINE",
"764 619 LINE",
"735 575 OFFCURVE",
"709 540 OFFCURVE",
"683 507 CURVE SMOOTH",
"656 473 OFFCURVE",
"626 447 OFFCURVE",
"593 426 CURVE SMOOTH",
"558 403 OFFCURVE",
"520 392 OFFCURVE",
"480 392 CURVE SMOOTH",
"472 392 LINE SMOOTH",
"468 392 OFFCURVE",
"464 393 OFFCURVE",
"456 393 CURVE",
"447 394 OFFCURVE",
"438 398 OFFCURVE",
"431 403 CURVE",
"422 407 OFFCURVE",
"417 413 OFFCURVE",
"414 421 CURVE SMOOTH",
"413 424 OFFCURVE",
"413 428 OFFCURVE",
"413 434 CURVE SMOOTH",
"413 443 OFFCURVE",
"416 449 OFFCURVE",
"419 453 CURVE SMOOTH",
"423 457 OFFCURVE",
"428 461 OFFCURVE",
"436 466 CURVE",
"442 470 OFFCURVE",
"448 472 OFFCURVE",
"454 475 CURVE",
"463 477 OFFCURVE",
"470 478 OFFCURVE",
"477 478 CURVE SMOOTH",
"483 478 OFFCURVE",
"490 477 OFFCURVE",
"500 475 CURVE",
"510 472 OFFCURVE",
"524 473 OFFCURVE",
"540 469 CURVE",
"517 480 LINE",
"508 484 OFFCURVE",
"499 485 OFFCURVE",
"489 489 CURVE",
"478 492 OFFCURVE",
"466 493 OFFCURVE",
"452 493 CURVE SMOOTH",
"431 493 OFFCURVE",
"413 489 OFFCURVE",
"399 480 CURVE",
"386 473 OFFCURVE",
"376 464 OFFCURVE",
"371 453 CURVE SMOOTH",
"366 442 OFFCURVE",
"363 433 OFFCURVE",
"363 429 CURVE SMOOTH",
"363 422 OFFCURVE",
"367 413 OFFCURVE",
"373 404 CURVE",
"379 397 OFFCURVE",
"391 389 OFFCURVE",
"406 381 CURVE SMOOTH",
"422 372 OFFCURVE",
"441 368 OFFCURVE",
"464 368 CURVE SMOOTH",
"493 368 OFFCURVE",
"527 378 OFFCURVE",
"563 397 CURVE SMOOTH",
"599 416 OFFCURVE",
"641 448 OFFCURVE",
"690 497 CURVE",
"696 493 LINE",
"655 398 OFFCURVE",
"604 318 OFFCURVE",
"540 247 CURVE SMOOTH",
"478 177 OFFCURVE",
"418 125 OFFCURVE",
"362 91 CURVE SMOOTH",
"306 57 OFFCURVE",
"265 40 OFFCURVE",
"237 40 CURVE SMOOTH",
"158 40 OFFCURVE",
"127 87 OFFCURVE",
"127 167 CURVE SMOOTH",
"127 404 OFFCURVE",
"431 707 OFFCURVE",
"664 707 CURVE SMOOTH",
"768 707 OFFCURVE",
"831 632 OFFCURVE",
"831 550 CURVE SMOOTH",
"831 527 OFFCURVE",
"826 504 OFFCURVE",
"816 483 CURVE SMOOTH",
"806 461 OFFCURVE",
"791 442 OFFCURVE",
"773 428 CURVE SMOOTH",
"754 414 OFFCURVE",
"734 403 OFFCURVE",
"713 397 CURVE",
"744 397 OFFCURVE",
"773 406 OFFCURVE",
"799 422 CURVE",
"825 441 OFFCURVE",
"841 459 OFFCURVE",
"850 479 CURVE SMOOTH",
"859 499 OFFCURVE",
"864 515 OFFCURVE",
"865 525 CURVE",
"867 535 OFFCURVE",
"869 545 OFFCURVE",
"869 555 CURVE SMOOTH",
"869 651 OFFCURVE",
"789 714 OFFCURVE",
"663 714 CURVE SMOOTH",
"400 714 OFFCURVE",
"44 411 OFFCURVE",
"44 167 CURVE SMOOTH",
"44 63 OFFCURVE",
"81 -10 OFFCURVE",
"181 -10 CURVE SMOOTH"
);
}
);
};
layerId = "2802ACB1-23B5-4A56-9EA7-141E5251EA43";
name = "Jul 18 18, 13:32";
paths = (
{
closed = 1;
nodes = (
"497 -10 OFFCURVE",
"560 54 OFFCURVE",
"614 152 CURVE",
"626 152 LINE",
"626 233 LINE",
"617 233 LINE",
"557 97 OFFCURVE",
"491 21 OFFCURVE",
"387 21 CURVE SMOOTH",
"304 21 OFFCURVE",
"221 62 OFFCURVE",
"167 123 CURVE",
"151 183 OFFCURVE",
"138 255 OFFCURVE",
"138 340 CURVE SMOOTH",
"138 547 OFFCURVE",
"272 679 OFFCURVE",
"482 679 CURVE SMOOTH",
"655 679 OFFCURVE",
"751 607 OFFCURVE",
"751 506 CURVE SMOOTH",
"751 455 OFFCURVE",
"731 419 OFFCURVE",
"691 397 CURVE",
"753 406 OFFCURVE",
"787 443 OFFCURVE",
"787 506 CURVE SMOOTH",
"787 626 OFFCURVE",
"678 710 OFFCURVE",
"482 710 CURVE SMOOTH",
"248 710 OFFCURVE",
"100 566 OFFCURVE",
"100 340 CURVE SMOOTH",
"100 259 OFFCURVE",
"115 183 OFFCURVE",
"139 127 CURVE",
"188 48 OFFCURVE",
"272 -10 OFFCURVE",
"383 -10 CURVE SMOOTH"
);
},
{
closed = 1;
nodes = (
"667 0 LINE",
"657 18 OFFCURVE",
"655 36 OFFCURVE",
"655 92 CURVE SMOOTH",
"655 613 LINE",
"647 613 LINE",
"582 455 OFFCURVE",
"528 399 OFFCURVE",
"443 399 CURVE SMOOTH",
"390 399 OFFCURVE",
"358 421 OFFCURVE",
"358 452 CURVE SMOOTH",
"358 474 OFFCURVE",
"374 487 OFFCURVE",
"399 487 CURVE SMOOTH",
"411 487 OFFCURVE",
"429 484 OFFCURVE",
"447 469 CURVE",
"441 499 OFFCURVE",
"420 516 OFFCURVE",
"386 516 CURVE SMOOTH",
"345 516 OFFCURVE",
"320 492 OFFCURVE",
"320 454 CURVE SMOOTH",
"320 403 OFFCURVE",
"366 368 OFFCURVE",
"439 368 CURVE SMOOTH",
"511 368 OFFCURVE",
"578 402 OFFCURVE",
"619 504 CURVE",
"623 502 LINE",
"618 462 OFFCURVE",
"617 448 OFFCURVE",
"617 398 CURVE SMOOTH",
"617 92 LINE SMOOTH",
"617 36 OFFCURVE",
"615 18 OFFCURVE",
"605 0 CURVE"
);
}
);
width = 736;
}
);
note = A;
unicode = 0041;
},
{
color = 1;
glyphname = B;
lastChange = "2018-07-19 12:45:06 +0000";
layers = (
{
anchors = (
{
name = bottom;
position = "{306, 0}";
},
{
name = top;
position = "{481, 700}";
}
);
background = {
paths = (
{
closed = 1;
nodes = (
"480 -19 OFFCURVE",
"598 11 OFFCURVE",
"656 89 CURVE SMOOTH",
"684 125 OFFCURVE",
"703 172 OFFCURVE",
"703 221 CURVE SMOOTH",
"703 241 OFFCURVE",
"698 261 OFFCURVE",
"688 281 CURVE SMOOTH",
"678 302 OFFCURVE",
"658 326 OFFCURVE",
"628 354 CURVE",
"632 358 OFFCURVE",
"646 368 OFFCURVE",
"668 384 CURVE SMOOTH",
"689 399 OFFCURVE",
"705 416 OFFCURVE",
"717 433 CURVE",
"748 489 OFFCURVE",
"759 537 OFFCURVE",
"735 600 CURVE SMOOTH",
"725 629 OFFCURVE",
"703 651 OFFCURVE",
"667 669 CURVE SMOOTH",
"632 686 OFFCURVE",
"591 695 OFFCURVE",
"542 695 CURVE SMOOTH",
"524 695 OFFCURVE",
"507 694 OFFCURVE",
"490 691 CURVE",
"471 688 OFFCURVE",
"455 686 OFFCURVE",
"438 681 CURVE",
"387 670 OFFCURVE",
"341 643 OFFCURVE",
"301 599 CURVE SMOOTH",
"261 555 OFFCURVE",
"229 504 OFFCURVE",
"204 448 CURVE",
"198 447 OFFCURVE",
"194 446 OFFCURVE",
"190 446 CURVE",
"188 444 OFFCURVE",
"184 444 OFFCURVE",
"178 444 CURVE SMOOTH",
"165 444 OFFCURVE",
"153 447 OFFCURVE",
"140 452 CURVE",
"129 456 OFFCURVE",
"119 462 OFFCURVE",
"113 469 CURVE",
"105 477 OFFCURVE",
"101 484 OFFCURVE",
"101 493 CURVE SMOOTH",
"101 512 OFFCURVE",
"109 524 OFFCURVE",
"123 532 CURVE",
"136 540 OFFCURVE",
"153 545 OFFCURVE",
"169 545 CURVE SMOOTH",
"178 545 OFFCURVE",
"185 544 OFFCURVE",
"194 543 CURVE SMOOTH",
"225 538 LINE",
"225 543 LINE",
"204 554 OFFCURVE",
"181 560 OFFCURVE",
"156 560 CURVE SMOOTH",
"125 560 OFFCURVE",
"100 554 OFFCURVE",
"83 540 CURVE",
"66 527 OFFCURVE",
"59 510 OFFCURVE",
"59 494 CURVE SMOOTH",
"59 488 OFFCURVE",
"60 482 OFFCURVE",
"63 473 CURVE",
"64 466 OFFCURVE",
"69 459 OFFCURVE",
"75 453 CURVE",
"84 447 OFFCURVE",
"96 443 OFFCURVE",
"114 439 CURVE",
"133 434 OFFCURVE",
"146 433 OFFCURVE",
"156 433 CURVE SMOOTH",
"165 433 OFFCURVE",
"171 433 OFFCURVE",
"180 434 CURVE SMOOTH",
"202 438 LINE",
"199 417 OFFCURVE",
"196 403 OFFCURVE",
"196 397 CURVE SMOOTH",
"196 387 OFFCURVE",
"195 369 OFFCURVE",
"195 344 CURVE SMOOTH",
"195 336 OFFCURVE",
"196 331 OFFCURVE",
"198 322 CURVE SMOOTH",
"199 313 OFFCURVE",
"201 308 OFFCURVE",
"204 306 CURVE",
"204 321 OFFCURVE",
"204 341 OFFCURVE",
"205 367 CURVE",
"205 393 OFFCURVE",
"209 416 OFFCURVE",
"212 439 CURVE",
"236 444 OFFCURVE",
"260 453 OFFCURVE",
"281 466 CURVE",
"302 477 OFFCURVE",
"320 489 OFFCURVE",
"335 502 CURVE SMOOTH",
"407 564 LINE",
"411 560 LINE",
"387 515 OFFCURVE",
"360 459 OFFCURVE",
"324 393 CURVE SMOOTH",
"219 198 LINE",
"113 5 LINE",
"121 1 OFFCURVE",
"130 0 OFFCURVE",
"139 0 CURVE",
"148 -1 OFFCURVE",
"153 -1 OFFCURVE",
"159 -1 CURVE SMOOTH",
"160 -1 OFFCURVE",
"168 0 OFFCURVE",
"183 0 CURVE SMOOTH",
"199 0 OFFCURVE",
"211 1 OFFCURVE",
"220 1 CURVE",
"226 34 LINE",
"230 49 OFFCURVE",
"236 77 OFFCURVE",
"250 119 CURVE SMOOTH",
"264 162 OFFCURVE",
"281 212 OFFCURVE",
"305 273 CURVE SMOOTH",
"329 337 OFFCURVE",
"352 397 OFFCURVE",
"381 458 CURVE SMOOTH",
"460 638 LINE",
"431 599 OFFCURVE",
"406 570 OFFCURVE",
"382 547 CURVE SMOOTH",
"361 525 OFFCURVE",
"337 507 OFFCURVE",
"312 490 CURVE",
"287 475 OFFCURVE",
"271 466 OFFCURVE",
"257 461 CURVE",
"246 456 OFFCURVE",
"232 452 OFFCURVE",
"216 451 CURVE",
"224 473 OFFCURVE",
"236 497 OFFCURVE",
"252 523 CURVE",
"266 548 OFFCURVE",
"285 573 OFFCURVE",
"307 598 CURVE SMOOTH",
"327 622 OFFCURVE",
"355 641 OFFCURVE",
"391 656 CURVE SMOOTH",
"426 671 OFFCURVE",
"463 679 OFFCURVE",
"503 679 CURVE SMOOTH",
"529 679 OFFCURVE",
"554 676 OFFCURVE",
"581 670 CURVE SMOOTH",
"607 664 OFFCURVE",
"631 651 OFFCURVE",
"652 631 CURVE SMOOTH",
"670 613 OFFCURVE",
"682 594 OFFCURVE",
"685 574 CURVE SMOOTH",
"689 554 OFFCURVE",
"692 543 OFFCURVE",
"692 539 CURVE SMOOTH",
"692 535 OFFCURVE",
"693 530 OFFCURVE",
"693 524 CURVE SMOOTH",
"693 493 OFFCURVE",
"684 463 OFFCURVE",
"668 437 CURVE",
"654 411 OFFCURVE",
"632 388 OFFCURVE",
"603 369 CURVE",
"559 383 OFFCURVE",
"533 389 OFFCURVE",
"522 393 CURVE",
"510 396 OFFCURVE",
"496 397 OFFCURVE",
"480 397 CURVE SMOOTH",
"467 397 OFFCURVE",
"453 394 OFFCURVE",
"438 391 CURVE",
"426 387 OFFCURVE",
"415 382 OFFCURVE",
"406 376 CURVE",
"398 369 OFFCURVE",
"395 362 OFFCURVE",
"395 356 CURVE SMOOTH",
"395 348 OFFCURVE",
"398 342 OFFCURVE",
"407 336 CURVE SMOOTH",
"416 329 OFFCURVE",
"426 324 OFFCURVE",
"440 321 CURVE SMOOTH",
"453 317 OFFCURVE",
"468 314 OFFCURVE",
"483 314 CURVE SMOOTH",
"502 314 OFFCURVE",
"523 318 OFFCURVE",
"544 323 CURVE SMOOTH",
"568 329 OFFCURVE",
"588 336 OFFCURVE",
"608 344 CURVE",
"623 337 OFFCURVE",
"634 327 OFFCURVE",
"642 313 CURVE SMOOTH",
"649 300 OFFCURVE",
"653 283 OFFCURVE",
"653 266 CURVE SMOOTH",
"653 111 OFFCURVE",
"524 1 OFFCURVE",
"368 1 CURVE SMOOTH",
"324 1 OFFCURVE",
"284 14 OFFCURVE",
"250 37 CURVE",
"250 29 LINE",
"271 12 OFFCURVE",
"294 0 OFFCURVE",
"316 -7 CURVE SMOOTH",
"340 -15 OFFCURVE",
"365 -19 OFFCURVE",
"393 -19 CURVE SMOOTH"
);
},
{
closed = 1;
nodes = (
"462 328 OFFCURVE",
"448 331 OFFCURVE",
"440 337 CURVE",
"430 341 OFFCURVE",
"425 346 OFFCURVE",
"425 354 CURVE SMOOTH",
"425 362 OFFCURVE",
"427 367 OFFCURVE",
"433 369 CURVE",
"440 373 OFFCURVE",
"448 377 OFFCURVE",
"458 378 CURVE",
"467 381 OFFCURVE",
"476 382 OFFCURVE",
"487 382 CURVE SMOOTH",
"521 382 OFFCURVE",
"552 373 OFFCURVE",
"581 357 CURVE",
"567 348 OFFCURVE",
"552 341 OFFCURVE",
"536 337 CURVE",
"519 331 OFFCURVE",
"502 328 OFFCURVE",
"483 328 CURVE SMOOTH"
);
}
);
};
layerId = "0B1DFD06-3317-40CA-B510-4969A0718C16";
paths = (
{
closed = 1;
nodes = (
"577 -9 OFFCURVE",
"683 141 OFFCURVE",
"683 279 CURVE SMOOTH",
"683 303 OFFCURVE",
"678 319 OFFCURVE",
"670 334 CURVE",
"631 380 OFFCURVE",
"579 424 OFFCURVE",
"504 424 CURVE SMOOTH",
"439 424 OFFCURVE",
"392 396 OFFCURVE",
"392 354 CURVE SMOOTH",
"392 326 OFFCURVE",
"423 308 OFFCURVE",
"475 308 CURVE SMOOTH",
"600 308 OFFCURVE",
"716 446 OFFCURVE",
"716 570 CURVE SMOOTH",
"716 592 OFFCURVE",
"711 608 OFFCURVE",
"703 623 CURVE",
"666 668 OFFCURVE",
"620 710 OFFCURVE",
"543 710 CURVE SMOOTH",
"337 710 OFFCURVE",
"200 600 OFFCURVE",
"200 405 CURVE SMOOTH",
"200 368 OFFCURVE",
"207 336 OFFCURVE",
"221 306 CURVE",
"216 533 OFFCURVE",
"307 679 OFFCURVE",
"535 679 CURVE SMOOTH",
"590 679 OFFCURVE",
"638 662 OFFCURVE",
"673 631 CURVE",
"678 618 OFFCURVE",
"681 603 OFFCURVE",
"681 586 CURVE SMOOTH",
"681 471 OFFCURVE",
"589 336 OFFCURVE",
"482 336 CURVE SMOOTH",
"448 336 OFFCURVE",
"427 346 OFFCURVE",
"427 361 CURVE SMOOTH",
"427 382 OFFCURVE",
"455 396 OFFCURVE",
"497 396 CURVE SMOOTH",
"549 396 OFFCURVE",
"603 378 OFFCURVE",
"640 346 CURVE",
"646 332 OFFCURVE",
"649 317 OFFCURVE",
"649 298 CURVE SMOOTH",
"649 174 OFFCURVE",
"566 22 OFFCURVE",
"441 22 CURVE SMOOTH",
"375 22 OFFCURVE",
"340 34 OFFCURVE",
"306 57 CURVE",
"333 20 OFFCURVE",
"373 -9 OFFCURVE",
"441 -9 CURVE SMOOTH"
);
},
{
closed = 1;
nodes = (
"279 0 LINE",
"276 15 OFFCURVE",
"280 51 OFFCURVE",
"290 92 CURVE SMOOTH",
"419 613 LINE",
"411 613 LINE",
"322 515 OFFCURVE",
"254 459 OFFCURVE",
"169 459 CURVE SMOOTH",
"122 459 OFFCURVE",
"96 477 OFFCURVE",
"96 502 CURVE SMOOTH",
"96 526 OFFCURVE",
"116 547 OFFCURVE",
"147 547 CURVE SMOOTH",
"159 547 OFFCURVE",
"176 544 OFFCURVE",
"191 529 CURVE",
"192 559 OFFCURVE",
"175 576 OFFCURVE",
"141 576 CURVE SMOOTH",
"93 576 OFFCURVE",
"57 544 OFFCURVE",
"57 495 CURVE SMOOTH",
"57 454 OFFCURVE",
"94 428 OFFCURVE",
"157 428 CURVE SMOOTH",
"229 428 OFFCURVE",
"307 471 OFFCURVE",
"361 524 CURVE",
"365 522 LINE",
"350 482 OFFCURVE",
"340 448 OFFCURVE",
"328 398 CURVE SMOOTH",
"252 92 LINE SMOOTH",
"238 36 OFFCURVE",
"231 18 OFFCURVE",
"217 0 CURVE"
);
}
);
width = 729;
}
);
note = B;
unicode = 0042;
},
{
color = 1;
glyphname = C;
lastChange = "2018-07-19 12:45:06 +0000";
layers = (
{
anchors = (
{
name = bottom;
position = "{304, 0}";
},
{
name = top;
position = "{479, 700}";
}
);
background = {
paths = (
{
closed = 1;
nodes = (
"460 1 OFFCURVE",
"506 10 OFFCURVE",
"553 26 CURVE SMOOTH",
"600 42 OFFCURVE",
"631 57 OFFCURVE",
"650 74 CURVE SMOOTH",
"667 89 OFFCURVE",
"676 97 OFFCURVE",
"676 101 CURVE SMOOTH",
"676 112 OFFCURVE",
"672 116 OFFCURVE",
"665 114 CURVE",
"633 86 OFFCURVE",
"608 67 OFFCURVE",
"592 59 CURVE SMOOTH",
"572 49 OFFCURVE",
"551 40 OFFCURVE",
"526 35 CURVE",
"501 29 OFFCURVE",
"477 25 OFFCURVE",
"455 25 CURVE SMOOTH",
"405 25 OFFCURVE",
"361 40 OFFCURVE",
"325 69 CURVE SMOOTH",
"290 96 OFFCURVE",
"264 130 OFFCURVE",
"248 168 CURVE SMOOTH",
"231 206 OFFCURVE",
"224 247 OFFCURVE",
"224 291 CURVE SMOOTH",
"224 319 OFFCURVE",
"226 346 OFFCURVE",
"231 368 CURVE",
"235 389 OFFCURVE",
"239 404 OFFCURVE",
"245 416 CURVE SMOOTH",
"265 452 LINE",
"319 464 OFFCURVE",
"354 473 OFFCURVE",
"370 478 CURVE SMOOTH",
"386 483 OFFCURVE",
"405 492 OFFCURVE",
"426 503 CURVE SMOOTH",
"446 514 OFFCURVE",
"466 529 OFFCURVE",
"490 545 CURVE",
"512 563 OFFCURVE",
"527 573 OFFCURVE",
"533 577 CURVE",
"495 500 OFFCURVE",
"456 426 OFFCURVE",
"416 354 CURVE SMOOTH",
"377 283 OFFCURVE",
"340 217 OFFCURVE",
"301 154 CURVE",
"301 139 LINE",
"315 137 OFFCURVE",
"329 136 OFFCURVE",
"348 136 CURVE SMOOTH",
"353 136 LINE SMOOTH",
"359 136 OFFCURVE",
"364 136 OFFCURVE",
"368 137 CURVE",
"382 137 OFFCURVE",
"391 137 OFFCURVE",
"394 139 CURVE",
"405 187 OFFCURVE",
"419 237 OFFCURVE",
"437 286 CURVE",
"455 337 OFFCURVE",
"479 397 OFFCURVE",
"510 468 CURVE SMOOTH",
"541 543 OFFCURVE",
"562 595 OFFCURVE",
"576 634 CURVE",
"567 634 LINE",
"531 590 OFFCURVE",
"489 557 OFFCURVE",
"440 530 CURVE SMOOTH",
"391 505 OFFCURVE",
"335 484 OFFCURVE",
"271 466 CURVE",
"298 510 OFFCURVE",
"319 542 OFFCURVE",
"333 558 CURVE",
"346 573 OFFCURVE",
"366 590 OFFCURVE",
"392 612 CURVE SMOOTH",
"416 630 OFFCURVE",
"437 643 OFFCURVE",
"455 648 CURVE SMOOTH",
"474 653 OFFCURVE",
"492 655 OFFCURVE",
"514 655 CURVE SMOOTH",
"530 655 OFFCURVE",
"557 653 OFFCURVE",
"593 649 CURVE SMOOTH",
"630 644 OFFCURVE",
"657 641 OFFCURVE",
"676 641 CURVE SMOOTH",
"693 641 OFFCURVE",
"709 643 OFFCURVE",
"723 646 CURVE",
"739 649 OFFCURVE",
"753 653 OFFCURVE",
"764 659 CURVE",
"811 678 LINE",
"826 685 OFFCURVE",
"834 694 OFFCURVE",
"838 704 CURVE",
"811 696 OFFCURVE",
"783 693 OFFCURVE",
"757 693 CURVE SMOOTH",
"742 693 OFFCURVE",
"718 695 OFFCURVE",
"683 699 CURVE SMOOTH",
"650 703 OFFCURVE",
"625 705 OFFCURVE",
"611 705 CURVE SMOOTH",
"600 705 OFFCURVE",
"588 704 OFFCURVE",
"575 703 CURVE SMOOTH",
"524 698 OFFCURVE",
"477 684 OFFCURVE",
"436 661 CURVE SMOOTH",
"394 638 OFFCURVE",
"356 610 OFFCURVE",
"324 578 CURVE SMOOTH",
"290 544 OFFCURVE",
"259 505 OFFCURVE",
"225 461 CURVE",
"221 461 OFFCURVE",
"219 461 OFFCURVE",
"217 459 CURVE SMOOTH",
"214 458 OFFCURVE",
"208 458 OFFCURVE",
"199 458 CURVE SMOOTH",
"185 458 OFFCURVE",
"173 461 OFFCURVE",
"163 466 CURVE",
"153 469 OFFCURVE",
"147 475 OFFCURVE",
"145 482 CURVE",
"144 490 OFFCURVE",
"143 494 OFFCURVE",
"143 498 CURVE SMOOTH",
"143 504 OFFCURVE",
"145 512 OFFCURVE",
"149 518 CURVE SMOOTH",
"153 524 OFFCURVE",
"157 530 OFFCURVE",
"162 537 CURVE",
"168 543 OFFCURVE",
"174 547 OFFCURVE",
"179 548 CURVE",
"184 550 OFFCURVE",
"190 552 OFFCURVE",
"198 552 CURVE SMOOTH",
"204 552 OFFCURVE",
"214 550 OFFCURVE",
"228 548 CURVE",
"243 547 OFFCURVE",
"251 545 OFFCURVE",
"260 547 CURVE",
"246 555 OFFCURVE",
"233 562 OFFCURVE",
"221 565 CURVE",
"210 570 OFFCURVE",
"197 572 OFFCURVE",
"183 572 CURVE SMOOTH",
"162 572 OFFCURVE",
"144 565 OFFCURVE",
"132 554 CURVE",
"118 543 OFFCURVE",
"108 533 OFFCURVE",
"102 524 CURVE SMOOTH",
"95 515 OFFCURVE",
"94 505 OFFCURVE",
"95 494 CURVE",
"98 480 OFFCURVE",
"104 470 OFFCURVE",
"113 464 CURVE",
"124 458 OFFCURVE",
"134 453 OFFCURVE",
"145 449 CURVE SMOOTH",
"158 446 OFFCURVE",
"165 443 OFFCURVE",
"168 443 CURVE SMOOTH",
"173 443 OFFCURVE",
"178 442 OFFCURVE",
"183 442 CURVE SMOOTH",
"187 442 OFFCURVE",
"190 443 OFFCURVE",
"194 443 CURVE",
"214 446 LINE",
"198 412 OFFCURVE",
"184 381 OFFCURVE",
"174 347 CURVE SMOOTH",
"164 313 OFFCURVE",
"159 278 OFFCURVE",
"159 242 CURVE SMOOTH",
"159 222 OFFCURVE",
"160 207 OFFCURVE",
"164 196 CURVE",
"168 182 OFFCURVE",
"174 165 OFFCURVE",
"188 141 CURVE",
"199 117 OFFCURVE",
"212 96 OFFCURVE",
"225 77 CURVE SMOOTH",
"239 59 OFFCURVE",
"256 45 OFFCURVE",
"276 34 CURVE SMOOTH",
"296 22 OFFCURVE",
"318 14 OFFCURVE",
"341 10 CURVE",
"365 4 OFFCURVE",
"390 1 OFFCURVE",
"416 1 CURVE SMOOTH"
);
}
);
};
layerId = "0B1DFD06-3317-40CA-B510-4969A0718C16";
paths = (
{
closed = 1;
nodes = (
"496 -10 OFFCURVE",
"581 27 OFFCURVE",
"663 116 CURVE",
"565 46 OFFCURVE",
"490 21 OFFCURVE",
"413 21 CURVE SMOOTH",
"310 21 OFFCURVE",
"222 61 OFFCURVE",
"178 122 CURVE",
"174 367 OFFCURVE",
"288 679 OFFCURVE",
"498 679 CURVE SMOOTH",
"582 679 OFFCURVE",
"631 650 OFFCURVE",
"697 650 CURVE SMOOTH",
"751 650 OFFCURVE",
"791 670 OFFCURVE",
"831 706 CURVE",
"780 687 OFFCURVE",
"749 681 OFFCURVE",
"717 681 CURVE SMOOTH",
"647 681 OFFCURVE",
"599 710 OFFCURVE",
"507 710 CURVE SMOOTH",
"291 710 OFFCURVE",
"147 434 OFFCURVE",
"147 196 CURVE SMOOTH",
"147 172 OFFCURVE",
"148 150 OFFCURVE",
"152 130 CURVE",
"185 51 OFFCURVE",
"253 -10 OFFCURVE",
"406 -10 CURVE SMOOTH"
);
},
{
closed = 1;
nodes = (
"384 141 LINE",
"381 156 OFFCURVE",
"385 192 OFFCURVE",
"395 233 CURVE SMOOTH",
"490 613 LINE",
"482 613 LINE",
"421 511 OFFCURVE",
"310 459 OFFCURVE",
"197 459 CURVE SMOOTH",
"141 459 OFFCURVE",
"105 471 OFFCURVE",
"105 497 CURVE SMOOTH",
"105 520 OFFCURVE",
"127 537 OFFCURVE",
"155 537 CURVE SMOOTH",
"167 537 OFFCURVE",
"183 534 OFFCURVE",
"198 519 CURVE",
"200 549 OFFCURVE",
"184 566 OFFCURVE",
"150 566 CURVE SMOOTH",
"106 566 OFFCURVE",
"66 535 OFFCURVE",
"66 493 CURVE SMOOTH",
"66 453 OFFCURVE",
"112 428 OFFCURVE",
"189 428 CURVE SMOOTH",
"270 428 OFFCURVE",
"347 456 OFFCURVE",
"429 514 CURVE",
"432 512 LINE",
"417 472 OFFCURVE",
"410 448 OFFCURVE",
"398 398 CURVE SMOOTH",
"357 233 LINE SMOOTH",
"343 177 OFFCURVE",
"336 159 OFFCURVE",
"322 141 CURVE"
);
}
);
width = 726;
}
);
note = C;
unicode = 0043;
},
{
color = 1;
glyphname = D;
lastChange = "2018-07-19 12:45:06 +0000";
layers = (
{
anchors = (
{
name = bottom;
position = "{349, 0}";
},
{
name = center;
position = "{437, 350}";
},
{
name = top;
position = "{524, 700}";
}
);
background = {
paths = (
{
closed = 1;
nodes = (
"606 -10 OFFCURVE",
"715 111 OFFCURVE",
"715 360 CURVE SMOOTH",
"715 441 OFFCURVE",
"700 514 OFFCURVE",
"676 570 CURVE",
"623 649 OFFCURVE",
"540 710 OFFCURVE",
"388 710 CURVE SMOOTH",
"218 710 OFFCURVE",
"111 642 OFFCURVE",
"111 524 CURVE SMOOTH",
"111 425 OFFCURVE",
"186 342 OFFCURVE",
"304 328 CURVE",
"201 375 OFFCURVE",
"151 442 OFFCURVE",
"151 518 CURVE SMOOTH",
"151 622 OFFCURVE",
"243 679 OFFCURVE",
"388 679 CURVE SMOOTH",
"491 679 OFFCURVE",
"589 639 OFFCURVE",
"648 578 CURVE",
"664 518 OFFCURVE",
"677 445 OFFCURVE",
"677 360 CURVE SMOOTH",
"677 137 OFFCURVE",
"586 21 OFFCURVE",
"396 21 CURVE SMOOTH",
"317 21 OFFCURVE",
"244 41 OFFCURVE",
"161 87 CURVE",
"227 20 OFFCURVE",
"314 -10 OFFCURVE",
"405 -10 CURVE SMOOTH"
);
},
{
closed = 1;
nodes = (
"353 81 LINE",
"343 99 OFFCURVE",
"341 117 OFFCURVE",
"341 173 CURVE SMOOTH",
"341 613 LINE",
"333 613 LINE",
"298 511 OFFCURVE",
"200 459 OFFCURVE",
"87 459 CURVE SMOOTH",
"26 459 OFFCURVE",
"-16 474 OFFCURVE",
"-16 505 CURVE SMOOTH",
"-16 524 OFFCURVE",
"0 537 OFFCURVE",
"25 537 CURVE SMOOTH",
"37 537 OFFCURVE",
"54 534 OFFCURVE",
"73 519 CURVE",
"67 549 OFFCURVE",
"47 566 OFFCURVE",
"13 566 CURVE SMOOTH",
"-28 566 OFFCURVE",
"-54 542 OFFCURVE",
"-54 508 CURVE SMOOTH",
"-54 459 OFFCURVE",
"1 428 OFFCURVE",
"87 428 CURVE SMOOTH",
"168 428 OFFCURVE",
"238 456 OFFCURVE",
"305 514 CURVE",
"309 512 LINE",
"304 472 OFFCURVE",
"303 448 OFFCURVE",
"303 398 CURVE SMOOTH",
"303 173 LINE SMOOTH",
"303 117 OFFCURVE",
"301 99 OFFCURVE",
"291 81 CURVE"
);
}
);
};
layerId = "0B1DFD06-3317-40CA-B510-4969A0718C16";
paths = (
{
closed = 1;
nodes = (
"649 -10 OFFCURVE",
"810 231 OFFCURVE",
"810 503 CURVE SMOOTH",
"810 528 OFFCURVE",
"808 550 OFFCURVE",
"804 570 CURVE",
"771 649 OFFCURVE",
"695 710 OFFCURVE",
"543 710 CURVE SMOOTH",
"371 710 OFFCURVE",
"221 630 OFFCURVE",
"221 479 CURVE SMOOTH",
"221 401 OFFCURVE",
"275 340 OFFCURVE",
"372 328 CURVE",
"297 367 OFFCURVE",
"261 418 OFFCURVE",
"261 478 CURVE SMOOTH",
"261 609 OFFCURVE",
"390 679 OFFCURVE",
"543 679 CURVE SMOOTH",
"646 679 OFFCURVE",
"734 639 OFFCURVE",
"778 578 CURVE",
"783 288 OFFCURVE",
"659 21 OFFCURVE",
"387 21 CURVE SMOOTH",
"308 21 OFFCURVE",
"240 41 OFFCURVE",
"168 87 CURVE",
"218 20 OFFCURVE",
"297 -10 OFFCURVE",
"388 -10 CURVE SMOOTH"
);
},
{
closed = 1;
nodes = (
"359 81 LINE",
"354 104 OFFCURVE",
"355 113 OFFCURVE",
"370 173 CURVE SMOOTH",
"480 613 LINE",
"472 613 LINE",
"411 511 OFFCURVE",
"300 459 OFFCURVE",
"187 459 CURVE SMOOTH",
"131 459 OFFCURVE",
"95 471 OFFCURVE",
"95 497 CURVE SMOOTH",
"95 520 OFFCURVE",
"117 537 OFFCURVE",
"145 537 CURVE SMOOTH",
"157 537 OFFCURVE",
"173 534 OFFCURVE",
"188 519 CURVE",
"190 549 OFFCURVE",
"174 566 OFFCURVE",
"140 566 CURVE SMOOTH",
"96 566 OFFCURVE",
"56 535 OFFCURVE",
"56 493 CURVE SMOOTH",
"56 453 OFFCURVE",
"102 428 OFFCURVE",
"179 428 CURVE SMOOTH",
"260 428 OFFCURVE",
"337 456 OFFCURVE",
"419 514 CURVE",
"422 512 LINE",
"407 472 OFFCURVE",
"400 448 OFFCURVE",
"388 398 CURVE SMOOTH",
"332 173 LINE SMOOTH",
"318 117 OFFCURVE",
"311 99 OFFCURVE",
"297 81 CURVE"
);
}
);
width = 816;
},
{
associatedMasterId = "0B1DFD06-3317-40CA-B510-4969A0718C16";
background = {
paths = (
{
closed = 1;
nodes = (
"235 -11 OFFCURVE",
"305 -12 OFFCURVE",
"398 14 CURVE SMOOTH",
"453 30 OFFCURVE",
"514 64 OFFCURVE",
"579 127 CURVE SMOOTH",
"684 232 OFFCURVE",
"736 391 OFFCURVE",
"693 540 CURVE SMOOTH",
"668 625 OFFCURVE",
"603 670 OFFCURVE",
"519 694 CURVE SMOOTH",
"466 710 OFFCURVE",
"406 701 OFFCURVE",
"351 680 CURVE SMOOTH",
"251 640 OFFCURVE",
"182 535 OFFCURVE",
"172 457 CURVE",
"160 457 OFFCURVE",
"149 458 OFFCURVE",
"139 461 CURVE",
"112 464 OFFCURVE",
"74 488 OFFCURVE",
"77 520 CURVE SMOOTH",
"79 532 OFFCURVE",
"85 542 OFFCURVE",
"95 548 CURVE SMOOTH",
"105 554 OFFCURVE",
"124 558 OFFCURVE",
"187 558 CURVE",
"126 573 OFFCURVE",
"99 575 OFFCURVE",
"72 564 CURVE SMOOTH",
"54 555 OFFCURVE",
"29 539 OFFCURVE",
"29 515 CURVE SMOOTH",
"29 489 OFFCURVE",
"57 466 OFFCURVE",
"84 457 CURVE",
"109 451 OFFCURVE",
"137 447 OFFCURVE",
"170 447 CURVE",
"156 417 OFFCURVE",
"170 362 OFFCURVE",
"197 341 CURVE",
"183 374 OFFCURVE",
"175 407 OFFCURVE",
"183 447 CURVE",
"250 462 OFFCURVE",
"295 478 OFFCURVE",
"318 494 CURVE",
"344 510 OFFCURVE",
"376 533 OFFCURVE",
"409 559 CURVE",
"319 418 OFFCURVE",
"243 265 OFFCURVE",
"145 94 CURVE",
"144 90 OFFCURVE",
"139 86 OFFCURVE",
"142 82 CURVE",
"233 80 LINE",
"293 268 OFFCURVE",
"383 446 OFFCURVE",
"463 635 CURVE",
"456 635 LINE",
"424 597 OFFCURVE",
"401 570 OFFCURVE",
"382 552 CURVE SMOOTH",
"363 533 OFFCURVE",
"339 517 OFFCURVE",
"308 500 CURVE SMOOTH",
"278 484 OFFCURVE",
"237 469 OFFCURVE",
"185 458 CURVE",
"208 538 OFFCURVE",
"260 605 OFFCURVE",
"338 646 CURVE SMOOTH",
"387 673 OFFCURVE",
"437 673 OFFCURVE",
"490 659 CURVE SMOOTH",
"555 644 OFFCURVE",
"610 589 OFFCURVE",
"624 519 CURVE SMOOTH",
"648 396 OFFCURVE",
"630 277 OFFCURVE",
"540 172 CURVE SMOOTH",
"503 129 OFFCURVE",
"458 92 OFFCURVE",
"407 62 CURVE",
"286 9 OFFCURVE",
"171 10 OFFCURVE",
"64 69 CURVE",
"64 62 LINE",
"90 41 OFFCURVE",
"122 25 OFFCURVE",
"158 14 CURVE SMOOTH"
);
}
);
};
layerId = "2206B84B-C801-45A3-B5E6-B5D7414E8A3C";
name = "Jul 18 18, 13:32";
paths = (
{
closed = 1;
nodes = (
"251 -16 OFFCURVE",
"321 -17 OFFCURVE",
"415 9 CURVE SMOOTH",
"470 24 OFFCURVE",
"531 60 OFFCURVE",
"596 124 CURVE SMOOTH",
"702 229 OFFCURVE",
"752 392 OFFCURVE",
"709 543 CURVE SMOOTH",
"684 630 OFFCURVE",
"619 674 OFFCURVE",
"536 700 CURVE SMOOTH",
"482 717 OFFCURVE",
"422 707 OFFCURVE",
"367 685 CURVE SMOOTH",
"267 645 OFFCURVE",
"199 538 OFFCURVE",
"189 459 CURVE",
"176 459 OFFCURVE",
"165 460 OFFCURVE",
"155 462 CURVE",
"129 466 OFFCURVE",
"91 490 OFFCURVE",
"94 523 CURVE SMOOTH",
"95 535 OFFCURVE",
"101 545 OFFCURVE",
"111 551 CURVE SMOOTH",
"121 557 OFFCURVE",
"140 562 OFFCURVE",
"204 562 CURVE",
"143 577 OFFCURVE",
"115 579 OFFCURVE",
"89 568 CURVE SMOOTH",
"70 560 OFFCURVE",
"45 542 OFFCURVE",
"45 518 CURVE SMOOTH",
"45 491 OFFCURVE",
"74 467 OFFCURVE",
"100 459 CURVE",
"125 453 OFFCURVE",
"154 449 OFFCURVE",
"186 449 CURVE",
"173 418 OFFCURVE",
"186 363 OFFCURVE",
"214 341 CURVE",
"200 375 OFFCURVE",
"191 408 OFFCURVE",
"200 449 CURVE",
"266 464 OFFCURVE",
"311 480 OFFCURVE",
"335 497 CURVE",
"361 513 OFFCURVE",
"392 536 OFFCURVE",
"426 563 CURVE",
"377 482 OFFCURVE",
"332 404 OFFCURVE",
"286 318 CURVE",
"105 318 LINE",
"86 314 OFFCURVE",
"78 306 OFFCURVE",
"72 300 CURVE SMOOTH",
"68 296 OFFCURVE",
"65 291 OFFCURVE",
"64 286 CURVE",
"269 286 LINE",
"235 222 OFFCURVE",
"200 160 OFFCURVE",
"161 91 CURVE",
"160 87 OFFCURVE",
"155 82 OFFCURVE",
"159 78 CURVE",
"250 76 LINE",
"271 147 OFFCURVE",
"299 215 OFFCURVE",
"327 286 CURVE",
"461 286 LINE SMOOTH",
"481 286 OFFCURVE",
"492 293 OFFCURVE",
"498 302 CURVE",
"502 306 OFFCURVE",
"505 312 OFFCURVE",
"507 318 CURVE",
"340 318 LINE",
"385 425 OFFCURVE",
"435 528 OFFCURVE",
"480 640 CURVE",
"472 640 LINE",
"441 601 OFFCURVE",
"417 574 OFFCURVE",
"398 555 CURVE SMOOTH",
"379 536 OFFCURVE",
"356 520 OFFCURVE",
"325 503 CURVE SMOOTH",
"295 486 OFFCURVE",
"254 471 OFFCURVE",
"201 460 CURVE",
"225 541 OFFCURVE",
"276 611 OFFCURVE",
"355 651 CURVE SMOOTH",
"404 676 OFFCURVE",
"453 678 OFFCURVE",
"507 664 CURVE SMOOTH",
"572 647 OFFCURVE",
"627 593 OFFCURVE",
"641 522 CURVE SMOOTH",
"666 397 OFFCURVE",
"646 276 OFFCURVE",
"557 170 CURVE SMOOTH",
"520 126 OFFCURVE",
"475 89 OFFCURVE",
"423 58 CURVE",
"302 4 OFFCURVE",
"188 5 OFFCURVE",
"80 65 CURVE",
"80 58 LINE",
"106 37 OFFCURVE",
"139 21 OFFCURVE",
"175 9 CURVE SMOOTH"
);
}
);
width = 673;
}
);
note = D;
unicode = 0044;
},
{
color = 1;
glyphname = E;
lastChange = "2018-07-19 12:45:06 +0000";
layers = (
{
anchors = (
{
name = bottom;
position = "{304, 0}";
},
{
name = ogonek;
position = "{597, 10}";
},
{
name = top;
position = "{479, 700}";
},
{
name = topleft;
position = "{136, 700}";
}
);
background = {
paths = (
{
closed = 1;
nodes = (
"452 -1 OFFCURVE",
"495 9 OFFCURVE",
"538 27 CURVE SMOOTH",
"581 46 OFFCURVE",
"622 72 OFFCURVE",
"662 106 CURVE",
"662 116 LINE",
"573 61 OFFCURVE",
"505 34 OFFCURVE",
"456 34 CURVE SMOOTH",
"437 34 OFFCURVE",
"416 35 OFFCURVE",
"387 40 CURVE",
"359 44 OFFCURVE",
"330 59 OFFCURVE",
"301 82 CURVE SMOOTH",
"270 107 OFFCURVE",
"249 134 OFFCURVE",
"240 162 CURVE",
"230 191 OFFCURVE",
"224 216 OFFCURVE",
"220 235 CURVE SMOOTH",
"217 255 OFFCURVE",
"215 275 OFFCURVE",
"215 296 CURVE SMOOTH",
"215 322 OFFCURVE",
"219 348 OFFCURVE",
"225 377 CURVE SMOOTH",
"231 403 OFFCURVE",
"240 431 OFFCURVE",
"251 457 CURVE",
"290 462 OFFCURVE",
"324 469 OFFCURVE",
"354 480 CURVE SMOOTH",
"384 492 OFFCURVE",
"409 502 OFFCURVE",
"427 515 CURVE SMOOTH",
"447 529 OFFCURVE",
"467 540 OFFCURVE",
"489 554 CURVE SMOOTH",
"509 567 OFFCURVE",
"522 577 OFFCURVE",
"531 585 CURVE",
"436 409 LINE SMOOTH",
"415 371 OFFCURVE",
"392 331 OFFCURVE",
"366 286 CURVE SMOOTH",
"288 151 LINE",
"284 141 LINE",
"379 141 LINE",
"379 176 OFFCURVE",
"384 207 OFFCURVE",
"395 233 CURVE",
"405 262 OFFCURVE",
"424 287 OFFCURVE",
"447 312 CURVE SMOOTH",
"472 337 OFFCURVE",
"495 353 OFFCURVE",
"515 367 CURVE",
"535 379 OFFCURVE",
"556 386 OFFCURVE",
"580 386 CURVE SMOOTH",
"593 386 OFFCURVE",
"605 384 OFFCURVE",
"613 381 CURVE",
"623 377 OFFCURVE",
"631 371 OFFCURVE",
"635 363 CURVE",
"643 342 LINE",
"655 346 OFFCURVE",
"661 352 OFFCURVE",
"665 361 CURVE",
"670 369 OFFCURVE",
"672 379 OFFCURVE",
"672 393 CURVE SMOOTH",
"672 413 OFFCURVE",
"663 426 OFFCURVE",
"647 431 CURVE SMOOTH",
"631 436 OFFCURVE",
"616 438 OFFCURVE",
"603 438 CURVE SMOOTH",
"582 438 OFFCURVE",
"562 433 OFFCURVE",
"543 423 CURVE SMOOTH",
"526 413 OFFCURVE",
"509 399 OFFCURVE",
"492 383 CURVE",
"474 367 OFFCURVE",
"457 347 OFFCURVE",
"439 326 CURVE",
"449 357 OFFCURVE",
"460 388 OFFCURVE",
"472 419 CURVE SMOOTH",
"486 451 OFFCURVE",
"497 480 OFFCURVE",
"511 509 CURVE SMOOTH",
"545 583 LINE SMOOTH",
"555 604 OFFCURVE",
"562 624 OFFCURVE",
"567 643 CURVE",
"531 593 OFFCURVE",
"485 552 OFFCURVE",
"429 520 CURVE SMOOTH",
"374 492 OFFCURVE",
"315 472 OFFCURVE",
"253 463 CURVE",
"266 494 OFFCURVE",
"288 525 OFFCURVE",
"315 557 CURVE SMOOTH",
"343 587 OFFCURVE",
"370 610 OFFCURVE",
"396 629 CURVE",
"425 648 OFFCURVE",
"446 659 OFFCURVE",
"466 664 CURVE SMOOTH",
"485 669 OFFCURVE",
"506 671 OFFCURVE",
"531 671 CURVE SMOOTH",
"547 671 OFFCURVE",
"576 669 OFFCURVE",
"617 664 CURVE SMOOTH",
"658 659 OFFCURVE",
"685 656 OFFCURVE",
"697 656 CURVE SMOOTH",
"726 656 OFFCURVE",
"751 660 OFFCURVE",
"773 668 CURVE SMOOTH",
"797 676 OFFCURVE",
"818 689 OFFCURVE",
"836 708 CURVE",
"822 701 OFFCURVE",
"809 698 OFFCURVE",
"798 696 CURVE",
"787 693 OFFCURVE",
"773 694 OFFCURVE",
"757 694 CURVE SMOOTH",
"742 694 OFFCURVE",
"716 696 OFFCURVE",
"676 700 CURVE SMOOTH",
"636 705 OFFCURVE",
"607 708 OFFCURVE",
"590 708 CURVE SMOOTH",
"538 708 OFFCURVE",
"491 696 OFFCURVE",
"447 673 CURVE SMOOTH",
"402 650 OFFCURVE",
"363 622 OFFCURVE",
"326 585 CURVE SMOOTH",
"289 550 OFFCURVE",
"253 509 OFFCURVE",
"218 462 CURVE",
"192 462 LINE SMOOTH",
"182 462 OFFCURVE",
"173 464 OFFCURVE",
"164 469 CURVE",
"157 473 OFFCURVE",
"149 479 OFFCURVE",
"140 488 CURVE",
"134 497 OFFCURVE",
"130 504 OFFCURVE",
"130 512 CURVE SMOOTH",
"130 518 OFFCURVE",
"132 524 OFFCURVE",
"135 532 CURVE",
"139 540 OFFCURVE",
"148 547 OFFCURVE",
"159 550 CURVE",
"170 555 OFFCURVE",
"184 558 OFFCURVE",
"203 558 CURVE SMOOTH",
"208 558 OFFCURVE",
"217 558 OFFCURVE",
"226 557 CURVE",
"236 557 OFFCURVE",
"241 555 OFFCURVE",
"245 555 CURVE",
"231 562 LINE",
"226 565 OFFCURVE",
"218 567 OFFCURVE",
"207 570 CURVE",
"194 573 OFFCURVE",
"180 574 OFFCURVE",
"167 574 CURVE SMOOTH",
"148 574 OFFCURVE",
"132 572 OFFCURVE",
"120 565 CURVE",
"108 559 OFFCURVE",
"100 552 OFFCURVE",
"97 542 CURVE SMOOTH",
"93 532 OFFCURVE",
"90 524 OFFCURVE",
"90 520 CURVE SMOOTH",
"90 514 OFFCURVE",
"93 507 OFFCURVE",
"97 498 CURVE",
"102 492 OFFCURVE",
"108 484 OFFCURVE",
"117 475 CURVE",
"127 467 OFFCURVE",
"137 463 OFFCURVE",
"148 459 CURVE SMOOTH",
"159 456 OFFCURVE",
"173 454 OFFCURVE",
"189 454 CURVE SMOOTH",
"215 454 LINE",
"195 421 OFFCURVE",
"179 384 OFFCURVE",
"167 348 CURVE",
"155 310 OFFCURVE",
"149 272 OFFCURVE",
"149 238 CURVE SMOOTH",
"149 212 OFFCURVE",
"153 186 OFFCURVE",
"162 157 CURVE",
"169 129 OFFCURVE",
"185 101 OFFCURVE",
"212 76 CURVE SMOOTH",
"235 52 OFFCURVE",
"266 32 OFFCURVE",
"305 19 CURVE SMOOTH",
"344 5 OFFCURVE",
"376 -1 OFFCURVE",
"410 -1 CURVE SMOOTH"
);
}
);
};
layerId = "0B1DFD06-3317-40CA-B510-4969A0718C16";
paths = (
{
closed = 1;
nodes = (
"496 -10 OFFCURVE",
"581 27 OFFCURVE",
"663 116 CURVE",
"565 46 OFFCURVE",
"490 21 OFFCURVE",
"413 21 CURVE SMOOTH",
"310 21 OFFCURVE",
"222 61 OFFCURVE",
"178 122 CURVE",
"174 367 OFFCURVE",
"288 679 OFFCURVE",
"498 679 CURVE SMOOTH",
"582 679 OFFCURVE",
"631 650 OFFCURVE",
"697 650 CURVE SMOOTH",
"751 650 OFFCURVE",
"791 670 OFFCURVE",
"831 706 CURVE",
"780 687 OFFCURVE",
"749 681 OFFCURVE",
"717 681 CURVE SMOOTH",
"647 681 OFFCURVE",
"599 710 OFFCURVE",
"507 710 CURVE SMOOTH",
"291 710 OFFCURVE",
"147 434 OFFCURVE",
"147 196 CURVE SMOOTH",
"147 172 OFFCURVE",
"148 150 OFFCURVE",
"152 130 CURVE",
"185 51 OFFCURVE",
"253 -10 OFFCURVE",
"406 -10 CURVE SMOOTH"
);
},
{
closed = 1;
nodes = (
"384 141 LINE",
"381 156 OFFCURVE",
"385 192 OFFCURVE",
"395 233 CURVE SMOOTH",
"400 252 LINE",
"475 380 OFFCURVE",
"523 422 OFFCURVE",
"584 422 CURVE SMOOTH",
"618 422 OFFCURVE",
"646 410 OFFCURVE",
"658 391 CURVE",
"654 429 OFFCURVE",
"626 453 OFFCURVE",
"586 453 CURVE SMOOTH",
"520 453 OFFCURVE",
"479 420 OFFCURVE",
"426 342 CURVE",
"422 342 LINE",
"490 613 LINE",
"482 613 LINE",
"421 511 OFFCURVE",
"310 459 OFFCURVE",
"197 459 CURVE SMOOTH",
"141 459 OFFCURVE",
"105 471 OFFCURVE",
"105 497 CURVE SMOOTH",
"105 520 OFFCURVE",
"127 537 OFFCURVE",
"155 537 CURVE SMOOTH",
"167 537 OFFCURVE",
"183 534 OFFCURVE",
"198 519 CURVE",
"200 549 OFFCURVE",
"184 566 OFFCURVE",
"150 566 CURVE SMOOTH",
"106 566 OFFCURVE",
"66 535 OFFCURVE",
"66 493 CURVE SMOOTH",
"66 453 OFFCURVE",
"112 428 OFFCURVE",
"189 428 CURVE SMOOTH",
"270 428 OFFCURVE",
"347 456 OFFCURVE",
"429 514 CURVE",
"432 512 LINE",
"417 472 OFFCURVE",
"410 448 OFFCURVE",
"398 398 CURVE SMOOTH",
"357 233 LINE SMOOTH",
"343 177 OFFCURVE",
"336 159 OFFCURVE",
"322 141 CURVE"
);
}
);
width = 726;
}
);
note = E;
unicode = 0045;
},
{
color = 1;
glyphname = F;
lastChange = "2018-07-19 12:45:06 +0000";
layers = (
{
anchors = (
{
name = bottom;
position = "{309, 0}";
},
{
name = top;
position = "{484, 700}";
}
);
background = {
paths = (
{
closed = 1;
nodes = (
"189 0 OFFCURVE",
"209 0 OFFCURVE",
"230 1 CURVE SMOOTH",
"285 5 LINE",
"296 71 OFFCURVE",
"316 130 OFFCURVE",
"342 181 CURVE SMOOTH",
"370 232 OFFCURVE",
"402 273 OFFCURVE",
"438 305 CURVE SMOOTH",
"477 336 OFFCURVE",
"517 351 OFFCURVE",
"561 351 CURVE SMOOTH",
"577 351 LINE SMOOTH",
"588 351 OFFCURVE",
"598 344 OFFCURVE",
"604 332 CURVE",
"611 321 OFFCURVE",
"616 313 OFFCURVE",
"624 310 CURVE",
"631 316 OFFCURVE",
"636 322 OFFCURVE",
"639 328 CURVE",
"643 333 OFFCURVE",
"646 343 OFFCURVE",
"646 359 CURVE SMOOTH",
"646 369 OFFCURVE",
"642 379 OFFCURVE",
"636 388 CURVE",
"629 394 OFFCURVE",
"619 401 OFFCURVE",
"606 406 CURVE",
"592 409 OFFCURVE",
"578 412 OFFCURVE",
"564 412 CURVE SMOOTH",
"531 412 OFFCURVE",
"502 402 OFFCURVE",
"481 381 CURVE",
"457 361 OFFCURVE",
"427 328 OFFCURVE",
"390 282 CURVE",
"387 286 LINE",
"391 292 OFFCURVE",
"410 342 OFFCURVE",
"450 432 CURVE SMOOTH",
"488 524 OFFCURVE",
"513 588 OFFCURVE",
"523 624 CURVE",
"486 584 OFFCURVE",
"450 552 OFFCURVE",
"415 527 CURVE SMOOTH",
"380 502 OFFCURVE",
"349 484 OFFCURVE",
"321 474 CURVE SMOOTH",
"266 454 LINE SMOOTH",
"259 452 OFFCURVE",
"249 451 OFFCURVE",
"237 451 CURVE",
"254 527 OFFCURVE",
"282 577 OFFCURVE",
"324 603 CURVE",
"367 628 OFFCURVE",
"418 641 OFFCURVE",
"488 641 CURVE SMOOTH",
"510 641 OFFCURVE",
"543 640 OFFCURVE",
"592 636 CURVE SMOOTH",
"639 634 OFFCURVE",
"674 633 OFFCURVE",
"698 633 CURVE SMOOTH",
"749 633 OFFCURVE",
"792 638 OFFCURVE",
"828 649 CURVE",
"866 659 OFFCURVE",
"899 678 OFFCURVE",
"928 706 CURVE",
"906 695 OFFCURVE",
"885 688 OFFCURVE",
"861 684 CURVE",
"840 679 OFFCURVE",
"817 676 OFFCURVE",
"790 676 CURVE SMOOTH",
"770 676 OFFCURVE",
"729 680 OFFCURVE",
"666 689 CURVE SMOOTH",
"602 698 OFFCURVE",
"557 701 OFFCURVE",
"527 701 CURVE SMOOTH",
"496 701 OFFCURVE",
"468 699 OFFCURVE",
"445 693 CURVE",
"420 688 OFFCURVE",
"395 679 OFFCURVE",
"370 666 CURVE",
"330 644 OFFCURVE",
"297 614 OFFCURVE",
"272 577 CURVE SMOOTH",
"249 540 OFFCURVE",
"231 498 OFFCURVE",
"222 451 CURVE",
"206 451 LINE SMOOTH",
"186 451 OFFCURVE",
"169 453 OFFCURVE",
"154 457 CURVE",
"140 462 OFFCURVE",
"130 469 OFFCURVE",
"126 479 CURVE",
"121 489 OFFCURVE",
"119 497 OFFCURVE",
"119 502 CURVE SMOOTH",
"119 513 OFFCURVE",
"123 523 OFFCURVE",
"131 530 CURVE",
"140 539 OFFCURVE",
"149 544 OFFCURVE",
"158 547 CURVE",
"164 550 OFFCURVE",
"174 552 OFFCURVE",
"186 552 CURVE SMOOTH",
"195 552 OFFCURVE",
"199 550 OFFCURVE",
"208 549 CURVE",
"214 545 OFFCURVE",
"221 547 OFFCURVE",
"226 543 CURVE",
"226 550 LINE",
"205 562 OFFCURVE",
"184 567 OFFCURVE",
"163 567 CURVE SMOOTH",
"149 567 OFFCURVE",
"136 564 OFFCURVE",
"123 559 CURVE",
"110 555 OFFCURVE",
"100 549 OFFCURVE",
"94 542 CURVE",
"85 533 OFFCURVE",
"81 528 OFFCURVE",
"78 522 CURVE SMOOTH",
"74 515 OFFCURVE",
"73 509 OFFCURVE",
"73 503 CURVE SMOOTH",
"73 494 OFFCURVE",
"76 487 OFFCURVE",
"81 475 CURVE",
"90 464 OFFCURVE",
"103 454 OFFCURVE",
"120 447 CURVE SMOOTH",
"139 439 OFFCURVE",
"160 436 OFFCURVE",
"184 436 CURVE SMOOTH",
"196 436 LINE SMOOTH",
"203 436 OFFCURVE",
"211 437 OFFCURVE",
"222 439 CURVE",
"224 431 OFFCURVE",
"222 423 OFFCURVE",
"226 409 CURVE",
"227 394 OFFCURVE",
"231 383 OFFCURVE",
"235 376 CURVE",
"239 366 OFFCURVE",
"242 357 OFFCURVE",
"249 351 CURVE",
"254 344 OFFCURVE",
"260 337 OFFCURVE",
"269 328 CURVE",
"247 371 LINE",
"241 387 OFFCURVE",
"237 408 OFFCURVE",
"237 439 CURVE",
"280 446 OFFCURVE",
"321 461 OFFCURVE",
"362 484 CURVE SMOOTH",
"405 508 OFFCURVE",
"445 535 OFFCURVE",
"482 567 CURVE",
"486 564 LINE",
"452 494 OFFCURVE",
"420 434 OFFCURVE",
"390 376 CURVE SMOOTH",
"360 317 OFFCURVE",
"325 256 OFFCURVE",
"286 190 CURVE SMOOTH",
"247 121 OFFCURVE",
"209 60 OFFCURVE",
"170 0 CURVE"
);
}
);
};
layerId = "0B1DFD06-3317-40CA-B510-4969A0718C16";
paths = (
{
closed = 1;
nodes = (
"338 0 LINE",
"334 13 OFFCURVE",
"338 49 OFFCURVE",
"349 92 CURVE SMOOTH",
"379 212 LINE",
"455 340 OFFCURVE",
"503 382 OFFCURVE",
"563 382 CURVE SMOOTH",
"597 382 OFFCURVE",
"625 370 OFFCURVE",
"637 351 CURVE",
"633 389 OFFCURVE",
"605 413 OFFCURVE",
"565 413 CURVE SMOOTH",
"499 413 OFFCURVE",
"459 380 OFFCURVE",
"406 302 CURVE",
"402 302 LINE",
"479 613 LINE",
"471 613 LINE",
"411 511 OFFCURVE",
"300 459 OFFCURVE",
"187 459 CURVE SMOOTH",
"131 459 OFFCURVE",
"94 472 OFFCURVE",
"94 498 CURVE SMOOTH",
"94 521 OFFCURVE",
"116 537 OFFCURVE",
"144 537 CURVE SMOOTH",
"156 537 OFFCURVE",
"173 534 OFFCURVE",
"188 519 CURVE",
"189 549 OFFCURVE",
"174 566 OFFCURVE",
"140 566 CURVE SMOOTH",
"96 566 OFFCURVE",
"56 535 OFFCURVE",
"56 493 CURVE SMOOTH",
"56 453 OFFCURVE",
"102 428 OFFCURVE",
"179 428 CURVE SMOOTH",
"260 428 OFFCURVE",
"337 456 OFFCURVE",
"419 514 CURVE",
"422 512 LINE",
"402 452 OFFCURVE",
"393 421 OFFCURVE",
"377 357 CURVE SMOOTH",
"311 92 LINE SMOOTH",
"297 36 OFFCURVE",
"291 18 OFFCURVE",
"276 0 CURVE"
);
},
{
closed = 1;
nodes = (
"249 368 OFFCURVE",
"241 409 OFFCURVE",
"241 447 CURVE SMOOTH",
"241 564 OFFCURVE",
"302 679 OFFCURVE",
"415 679 CURVE SMOOTH",
"490 679 OFFCURVE",
"545 633 OFFCURVE",
"645 633 CURVE SMOOTH",
"723 633 OFFCURVE",
"784 661 OFFCURVE",
"840 706 CURVE",
"782 675 OFFCURVE",
"728 664 OFFCURVE",
"671 664 CURVE SMOOTH",
"554 664 OFFCURVE",
"522 710 OFFCURVE",
"430 710 CURVE SMOOTH",
"297 710 OFFCURVE",
"206 601 OFFCURVE",
"206 468 CURVE SMOOTH",
"206 423 OFFCURVE",
"221 372 OFFCURVE",
"274 328 CURVE"
);
}
);
width = 735;
}
);
note = F;
unicode = 0046;
},
{
color = 1;
glyphname = G;
lastChange = "2018-07-19 12:45:06 +0000";
layers = (
{
anchors = (
{
name = bottom;
position = "{360, 0}";
},
{
name = top;
position = "{535, 700}";
}
);
background = {
paths = (
{
closed = 1;
nodes = (
"454 1 OFFCURVE",
"491 7 OFFCURVE",
"526 21 CURVE SMOOTH",
"562 35 OFFCURVE",
"599 56 OFFCURVE",
"639 86 CURVE SMOOTH",
"679 117 OFFCURVE",
"713 154 OFFCURVE",
"739 195 CURVE SMOOTH",
"766 237 OFFCURVE",
"780 282 OFFCURVE",
"780 331 CURVE SMOOTH",
"780 347 OFFCURVE",
"778 367 OFFCURVE",
"773 389 CURVE SMOOTH",
"768 411 OFFCURVE",
"758 431 OFFCURVE",
"744 449 CURVE",
"728 468 OFFCURVE",
"711 478 OFFCURVE",
"695 482 CURVE",
"678 487 OFFCURVE",
"663 489 OFFCURVE",
"650 489 CURVE SMOOTH",
"618 489 OFFCURVE",
"588 479 OFFCURVE",
"562 461 CURVE SMOOTH",
"534 441 OFFCURVE",
"506 416 OFFCURVE",
"476 384 CURVE",
"473 388 LINE",
"484 424 OFFCURVE",
"503 467 OFFCURVE",
"528 520 CURVE SMOOTH",
"554 574 OFFCURVE",
"569 607 OFFCURVE",
"574 618 CURVE",
"574 633 LINE",
"546 594 OFFCURVE",
"513 563 OFFCURVE",
"478 538 CURVE",
"442 514 OFFCURVE",
"408 497 OFFCURVE",
"376 484 CURVE SMOOTH",
"341 470 OFFCURVE",
"318 466 OFFCURVE",
"308 462 CURVE",
"272 457 LINE",
"296 497 OFFCURVE",
"322 533 OFFCURVE",
"356 568 CURVE SMOOTH",
"387 600 OFFCURVE",
"418 623 OFFCURVE",
"448 636 CURVE SMOOTH",
"477 650 OFFCURVE",
"498 655 OFFCURVE",
"514 659 CURVE",
"529 661 OFFCURVE",
"547 663 OFFCURVE",
"567 663 CURVE SMOOTH",
"582 663 OFFCURVE",
"608 660 OFFCURVE",
"647 656 CURVE SMOOTH",
"685 653 OFFCURVE",
"710 650 OFFCURVE",
"729 650 CURVE SMOOTH",
"754 650 OFFCURVE",
"778 654 OFFCURVE",
"799 661 CURVE SMOOTH",
"819 669 OFFCURVE",
"838 683 OFFCURVE",
"854 701 CURVE",
"818 691 LINE SMOOTH",
"804 688 OFFCURVE",
"795 686 OFFCURVE",
"785 686 CURVE SMOOTH",
"781 686 OFFCURVE",
"776 688 OFFCURVE",
"773 688 CURVE SMOOTH",
"768 688 OFFCURVE",
"764 689 OFFCURVE",
"760 690 CURVE",
"716 700 OFFCURVE",
"674 705 OFFCURVE",
"633 705 CURVE SMOOTH",
"564 705 OFFCURVE",
"503 690 OFFCURVE",
"449 660 CURVE SMOOTH",
"395 629 OFFCURVE",
"355 599 OFFCURVE",
"328 570 CURVE SMOOTH",
"270 503 LINE SMOOTH",
"257 489 OFFCURVE",
"247 475 OFFCURVE",
"240 462 CURVE",
"216 466 OFFCURVE",
"197 467 OFFCURVE",
"184 472 CURVE SMOOTH",
"170 477 OFFCURVE",
"162 484 OFFCURVE",
"161 493 CURVE SMOOTH",
"160 502 OFFCURVE",
"159 508 OFFCURVE",
"159 513 CURVE SMOOTH",
"159 529 OFFCURVE",
"164 540 OFFCURVE",
"175 549 CURVE",
"185 558 OFFCURVE",
"199 563 OFFCURVE",
"217 563 CURVE SMOOTH",
"229 563 OFFCURVE",
"239 564 OFFCURVE",
"247 560 CURVE",
"257 557 OFFCURVE",
"268 555 OFFCURVE",
"280 550 CURVE",
"267 560 OFFCURVE",
"255 568 OFFCURVE",
"242 573 CURVE SMOOTH",
"230 578 OFFCURVE",
"217 580 OFFCURVE",
"204 580 CURVE SMOOTH",
"195 580 OFFCURVE",
"184 579 OFFCURVE",
"171 577 CURVE",
"157 573 OFFCURVE",
"147 569 OFFCURVE",
"137 564 CURVE",
"126 558 OFFCURVE",
"120 552 OFFCURVE",
"116 543 CURVE",
"112 537 OFFCURVE",
"111 529 OFFCURVE",
"111 520 CURVE SMOOTH",
"111 505 OFFCURVE",
"117 492 OFFCURVE",
"131 479 CURVE",
"147 466 OFFCURVE",
"161 457 OFFCURVE",
"172 453 CURVE SMOOTH",
"186 448 OFFCURVE",
"205 446 OFFCURVE",
"230 446 CURVE",
"209 417 OFFCURVE",
"192 387 OFFCURVE",
"180 354 CURVE",
"169 319 OFFCURVE",
"162 286 OFFCURVE",
"162 252 CURVE SMOOTH",
"162 236 OFFCURVE",
"164 215 OFFCURVE",
"169 186 CURVE SMOOTH",
"174 157 OFFCURVE",
"187 129 OFFCURVE",
"209 101 CURVE SMOOTH",
"230 72 OFFCURVE",
"257 49 OFFCURVE",
"291 31 CURVE SMOOTH",
"331 11 OFFCURVE",
"373 1 OFFCURVE",
"418 1 CURVE SMOOTH"
);
},
{
closed = 1;
nodes = (
"438 44 OFFCURVE",
"399 51 OFFCURVE",
"366 65 CURVE SMOOTH",
"332 79 OFFCURVE",
"306 100 OFFCURVE",
"285 129 CURVE SMOOTH",
"261 160 OFFCURVE",
"246 187 OFFCURVE",
"240 211 CURVE SMOOTH",
"232 236 OFFCURVE",
"229 263 OFFCURVE",
"229 292 CURVE SMOOTH",
"229 318 OFFCURVE",
"232 346 OFFCURVE",
"239 372 CURVE",
"247 398 OFFCURVE",
"253 422 OFFCURVE",
"267 446 CURVE",
"298 446 OFFCURVE",
"328 451 OFFCURVE",
"356 461 CURVE SMOOTH",
"382 470 OFFCURVE",
"409 484 OFFCURVE",
"436 500 CURVE",
"523 559 LINE",
"287 157 LINE",
"287 152 LINE SMOOTH",
"287 147 OFFCURVE",
"288 145 OFFCURVE",
"291 144 CURVE",
"303 140 LINE",
"387 144 LINE",
"397 187 OFFCURVE",
"409 227 OFFCURVE",
"426 266 CURVE SMOOTH",
"442 307 OFFCURVE",
"463 342 OFFCURVE",
"488 371 CURVE",
"512 401 OFFCURVE",
"543 423 OFFCURVE",
"582 437 CURVE",
"592 439 OFFCURVE",
"600 441 OFFCURVE",
"609 441 CURVE SMOOTH",
"630 441 OFFCURVE",
"650 433 OFFCURVE",
"669 417 CURVE SMOOTH",
"688 401 OFFCURVE",
"700 384 OFFCURVE",
"709 366 CURVE",
"716 347 OFFCURVE",
"720 327 OFFCURVE",
"720 307 CURVE SMOOTH",
"720 286 OFFCURVE",
"718 267 OFFCURVE",
"711 248 CURVE",
"707 231 OFFCURVE",
"694 205 OFFCURVE",
"675 170 CURVE",
"655 136 OFFCURVE",
"630 106 OFFCURVE",
"599 82 CURVE SMOOTH",
"567 56 OFFCURVE",
"528 44 OFFCURVE",
"484 44 CURVE SMOOTH"
);
}
);
};
layerId = "0B1DFD06-3317-40CA-B510-4969A0718C16";
paths = (
{
closed = 1;
nodes = (
"632 -10 OFFCURVE",
"822 192 OFFCURVE",
"822 364 CURVE SMOOTH",
"822 381 OFFCURVE",
"817 399 OFFCURVE",
"808 417 CURVE",
"781 462 OFFCURVE",
"733 504 OFFCURVE",
"657 504 CURVE SMOOTH",
"576 504 OFFCURVE",
"493 447 OFFCURVE",
"451 379 CURVE",
"510 613 LINE",
"502 613 LINE",
"441 511 OFFCURVE",
"304 459 OFFCURVE",
"197 459 CURVE SMOOTH",
"141 459 OFFCURVE",
"105 471 OFFCURVE",
"105 497 CURVE SMOOTH",
"105 520 OFFCURVE",
"127 537 OFFCURVE",
"155 537 CURVE SMOOTH",
"167 537 OFFCURVE",
"183 534 OFFCURVE",
"198 519 CURVE",
"200 549 OFFCURVE",
"184 566 OFFCURVE",
"150 566 CURVE SMOOTH",
"106 566 OFFCURVE",
"66 535 OFFCURVE",
"66 493 CURVE SMOOTH",
"66 453 OFFCURVE",
"112 428 OFFCURVE",
"189 428 CURVE SMOOTH",
"270 428 OFFCURVE",
"367 456 OFFCURVE",
"449 514 CURVE",
"452 512 LINE",
"432 452 OFFCURVE",
"424 421 OFFCURVE",
"408 357 CURVE SMOOTH",
"382 254 LINE SMOOTH",
"368 198 OFFCURVE",
"362 180 OFFCURVE",
"347 162 CURVE",
"409 162 LINE",
"405 175 OFFCURVE",
"409 211 OFFCURVE",
"420 254 CURVE SMOOTH",
"435 315 LINE",
"504 429 OFFCURVE",
"583 473 OFFCURVE",
"649 473 CURVE SMOOTH",
"704 473 OFFCURVE",
"752 456 OFFCURVE",
"778 425 CURVE",
"784 409 OFFCURVE",
"787 392 OFFCURVE",
"787 375 CURVE SMOOTH",
"787 214 OFFCURVE",
"617 21 OFFCURVE",
"449 21 CURVE SMOOTH",
"346 21 OFFCURVE",
"258 61 OFFCURVE",
"214 122 CURVE",
"213 182 OFFCURVE",
"214 236 OFFCURVE",
"241 345 CURVE SMOOTH",
"292 549 OFFCURVE",
"399 679 OFFCURVE",
"534 679 CURVE SMOOTH",
"618 679 OFFCURVE",
"667 650 OFFCURVE",
"733 650 CURVE SMOOTH",
"787 650 OFFCURVE",
"827 670 OFFCURVE",
"867 706 CURVE",
"816 687 OFFCURVE",
"785 681 OFFCURVE",
"753 681 CURVE SMOOTH",
"683 681 OFFCURVE",
"635 710 OFFCURVE",
"543 710 CURVE SMOOTH",
"383 710 OFFCURVE",
"258 568 OFFCURVE",
"203 345 CURVE SMOOTH",
"189 290 OFFCURVE",
"183 240 OFFCURVE",
"183 196 CURVE SMOOTH",
"183 172 OFFCURVE",
"184 150 OFFCURVE",
"188 130 CURVE",
"224 44 OFFCURVE",
"325 -10 OFFCURVE",
"449 -10 CURVE SMOOTH"
);
}
);
width = 838;
}
);
note = G;
unicode = 0047;
},
{
color = 1;
glyphname = H;
lastChange = "2018-07-19 12:45:06 +0000";
layers = (
{
anchors = (
{
name = bottom;
position = "{374, 0}";
},
{
name = center;
position = "{462, 350}";
},
{
name = top;
position = "{549, 700}";
},
{
name = topleft;
position = "{136, 700}";
}
);
background = {
paths = (
{
closed = 1;
nodes = (
"578 -10 OFFCURVE",
"605 -6 OFFCURVE",
"632 2 CURVE SMOOTH",
"659 11 OFFCURVE",
"683 22 OFFCURVE",
"706 36 CURVE",
"751 72 OFFCURVE",
"784 115 OFFCURVE",
"805 166 CURVE SMOOTH",
"826 215 OFFCURVE",
"831 267 OFFCURVE",
"817 323 CURVE SMOOTH",
"812 344 OFFCURVE",
"804 366 OFFCURVE",
"792 388 CURVE",
"782 409 OFFCURVE",
"768 427 OFFCURVE",
"751 442 CURVE",
"734 456 OFFCURVE",
"712 468 OFFCURVE",
"688 479 CURVE SMOOTH",
"664 490 OFFCURVE",
"641 495 OFFCURVE",
"619 495 CURVE SMOOTH",
"585 495 OFFCURVE",
"556 485 OFFCURVE",
"528 467 CURVE SMOOTH",
"501 447 OFFCURVE",
"480 428 OFFCURVE",
"464 409 CURVE",
"430 366 LINE",
"423 354 OFFCURVE",
"416 347 OFFCURVE",
"412 342 CURVE",
"415 366 OFFCURVE",
"421 401 OFFCURVE",
"432 449 CURVE SMOOTH",
"444 498 OFFCURVE",
"451 530 OFFCURVE",
"453 545 CURVE",
"458 562 OFFCURVE",
"458 584 OFFCURVE",
"460 613 CURVE",
"455 613 LINE",
"430 568 OFFCURVE",
"399 532 OFFCURVE",
"360 505 CURVE SMOOTH",
"321 479 OFFCURVE",
"276 458 OFFCURVE",
"221 444 CURVE",
"216 463 OFFCURVE",
"213 479 OFFCURVE",
"214 490 CURVE SMOOTH",
"213 502 OFFCURVE",
"216 523 OFFCURVE",
"224 552 CURVE SMOOTH",
"232 582 OFFCURVE",
"251 604 OFFCURVE",
"283 620 CURVE SMOOTH",
"313 636 OFFCURVE",
"355 644 OFFCURVE",
"408 644 CURVE SMOOTH",
"433 644 OFFCURVE",
"473 641 OFFCURVE",
"526 636 CURVE SMOOTH",
"582 631 OFFCURVE",
"620 628 OFFCURVE",
"644 628 CURVE SMOOTH",
"667 628 OFFCURVE",
"688 629 OFFCURVE",
"707 631 CURVE SMOOTH",
"725 634 OFFCURVE",
"741 638 OFFCURVE",
"755 644 CURVE",
"773 649 OFFCURVE",
"786 656 OFFCURVE",
"800 665 CURVE SMOOTH",
"813 674 OFFCURVE",
"821 685 OFFCURVE",
"826 699 CURVE",
"804 688 OFFCURVE",
"785 681 OFFCURVE",
"770 678 CURVE",
"751 674 OFFCURVE",
"728 673 OFFCURVE",
"703 673 CURVE SMOOTH",
"681 673 OFFCURVE",
"639 676 OFFCURVE",
"577 684 CURVE SMOOTH",
"516 691 OFFCURVE",
"474 695 OFFCURVE",
"450 695 CURVE SMOOTH",
"426 695 OFFCURVE",
"404 694 OFFCURVE",
"385 690 CURVE",
"337 684 OFFCURVE",
"298 668 OFFCURVE",
"267 639 CURVE SMOOTH",
"235 612 OFFCURVE",
"217 583 OFFCURVE",
"210 552 CURVE SMOOTH",
"205 522 OFFCURVE",
"203 500 OFFCURVE",
"203 487 CURVE",
"205 473 OFFCURVE",
"207 459 OFFCURVE",
"211 443 CURVE",
"184 443 LINE SMOOTH",
"169 443 OFFCURVE",
"155 444 OFFCURVE",
"142 447 CURVE",
"129 451 OFFCURVE",
"118 456 OFFCURVE",
"109 463 CURVE",
"101 472 OFFCURVE",
"95 482 OFFCURVE",
"93 490 CURVE SMOOTH",
"90 499 OFFCURVE",
"90 507 OFFCURVE",
"93 513 CURVE",
"95 520 OFFCURVE",
"99 527 OFFCURVE",
"107 530 CURVE",
"116 534 OFFCURVE",
"128 537 OFFCURVE",
"147 537 CURVE SMOOTH",
"186 537 LINE",
"165 547 OFFCURVE",
"142 552 OFFCURVE",
"121 552 CURVE SMOOTH",
"107 552 OFFCURVE",
"93 549 OFFCURVE",
"80 545 CURVE",
"58 528 LINE SMOOTH",
"49 520 OFFCURVE",
"45 510 OFFCURVE",
"48 498 CURVE SMOOTH",
"49 494 OFFCURVE",
"50 490 OFFCURVE",
"52 487 CURVE SMOOTH",
"67 461 OFFCURVE",
"88 444 OFFCURVE",
"116 437 CURVE SMOOTH",
"139 431 OFFCURVE",
"173 428 OFFCURVE",
"216 428 CURVE",
"230 393 LINE",
"235 379 OFFCURVE",
"240 369 OFFCURVE",
"246 361 CURVE",
"252 351 OFFCURVE",
"256 343 OFFCURVE",
"262 338 CURVE",
"281 318 LINE",
"281 318 OFFCURVE",
"276 323 OFFCURVE",
"270 334 CURVE SMOOTH",
"250 369 LINE",
"236 397 LINE",
"233 401 OFFCURVE",
"230 411 OFFCURVE",
"226 428 CURVE",
"263 433 OFFCURVE",
"298 447 OFFCURVE",
"333 468 CURVE SMOOTH",
"366 489 OFFCURVE",
"399 514 OFFCURVE",
"427 544 CURVE",
"432 542 LINE",
"416 482 OFFCURVE",
"397 421 OFFCURVE",
"379 357 CURVE SMOOTH",
"362 293 OFFCURVE",
"343 233 OFFCURVE",
"323 178 CURVE SMOOTH",
"304 124 OFFCURVE",
"282 70 OFFCURVE",
"256 19 CURVE",
"261 0 LINE",
"271 -2 OFFCURVE",
"282 -4 OFFCURVE",
"293 -4 CURVE SMOOTH",
"302 -4 OFFCURVE",
"312 -2 OFFCURVE",
"328 -1 CURVE SMOOTH",
"345 0 OFFCURVE",
"355 1 OFFCURVE",
"360 1 CURVE SMOOTH",
"367 1 LINE SMOOTH",
"371 1 OFFCURVE",
"372 0 OFFCURVE",
"376 0 CURVE",
"370 24 OFFCURVE",
"367 44 OFFCURVE",
"369 62 CURVE",
"370 81 OFFCURVE",
"374 107 OFFCURVE",
"380 142 CURVE",
"408 265 LINE SMOOTH",
"420 311 OFFCURVE",
"438 351 OFFCURVE",
"462 382 CURVE SMOOTH",
"484 413 OFFCURVE",
"509 432 OFFCURVE",
"539 437 CURVE SMOOTH",
"567 442 OFFCURVE",
"584 444 OFFCURVE",
"593 444 CURVE SMOOTH",
"604 444 OFFCURVE",
"618 442 OFFCURVE",
"633 438 CURVE SMOOTH",
"646 434 OFFCURVE",
"660 427 OFFCURVE",
"675 416 CURVE",
"692 404 OFFCURVE",
"703 392 OFFCURVE",
"714 378 CURVE",
"724 362 OFFCURVE",
"732 346 OFFCURVE",
"736 329 CURVE SMOOTH",
"738 321 OFFCURVE",
"741 298 OFFCURVE",
"746 260 CURVE SMOOTH",
"753 221 OFFCURVE",
"744 176 OFFCURVE",
"723 125 CURVE SMOOTH",
"700 74 OFFCURVE",
"668 40 OFFCURVE",
"626 25 CURVE SMOOTH",
"580 10 OFFCURVE",
"551 1 OFFCURVE",
"527 1 CURVE SMOOTH",
"511 1 OFFCURVE",
"495 4 OFFCURVE",
"476 10 CURVE SMOOTH",
"462 15 OFFCURVE",
"446 22 OFFCURVE",
"431 34 CURVE",
"434 22 OFFCURVE",
"441 15 OFFCURVE",
"453 10 CURVE",
"467 1 OFFCURVE",
"481 -1 OFFCURVE",
"498 -5 CURVE",
"513 -9 OFFCURVE",
"529 -10 OFFCURVE",
"548 -10 CURVE SMOOTH"
);
}
);
};
layerId = "0B1DFD06-3317-40CA-B510-4969A0718C16";
paths = (
{
closed = 1;
nodes = (
"695 -10 OFFCURVE",
"846 198 OFFCURVE",
"846 363 CURVE SMOOTH",
"846 386 OFFCURVE",
"840 401 OFFCURVE",
"833 417 CURVE",
"796 462 OFFCURVE",
"743 504 OFFCURVE",
"667 504 CURVE SMOOTH",
"566 504 OFFCURVE",
"483 447 OFFCURVE",
"414 349 CURVE",
"480 613 LINE",
"472 613 LINE",
"411 511 OFFCURVE",
"300 459 OFFCURVE",
"187 459 CURVE SMOOTH",
"131 459 OFFCURVE",
"95 471 OFFCURVE",
"95 497 CURVE SMOOTH",
"95 520 OFFCURVE",
"117 537 OFFCURVE",
"145 537 CURVE SMOOTH",
"157 537 OFFCURVE",
"173 534 OFFCURVE",
"188 519 CURVE",
"190 549 OFFCURVE",
"174 566 OFFCURVE",
"140 566 CURVE SMOOTH",
"96 566 OFFCURVE",
"56 535 OFFCURVE",
"56 493 CURVE SMOOTH",
"56 453 OFFCURVE",
"102 428 OFFCURVE",
"179 428 CURVE SMOOTH",
"260 428 OFFCURVE",
"337 456 OFFCURVE",
"419 514 CURVE",
"422 512 LINE",
"402 452 OFFCURVE",
"394 421 OFFCURVE",
"378 357 CURVE SMOOTH",
"312 92 LINE SMOOTH",
"298 36 OFFCURVE",
"291 18 OFFCURVE",
"277 0 CURVE",
"339 0 LINE",
"336 15 OFFCURVE",
"340 51 OFFCURVE",
"350 92 CURVE SMOOTH",
"398 285 LINE",
"494 429 OFFCURVE",
"573 473 OFFCURVE",
"659 473 CURVE SMOOTH",
"714 473 OFFCURVE",
"767 456 OFFCURVE",
"803 425 CURVE",
"808 412 OFFCURVE",
"811 398 OFFCURVE",
"811 381 CURVE SMOOTH",
"811 230 OFFCURVE",
"683 21 OFFCURVE",
"537 21 CURVE SMOOTH",
"498 21 OFFCURVE",
"467 32 OFFCURVE",
"424 59 CURVE",
"440 9 OFFCURVE",
"478 -10 OFFCURVE",
"536 -10 CURVE SMOOTH"
);
},
{
closed = 1;
nodes = (
"282 356 OFFCURVE",
"270 407 OFFCURVE",
"270 460 CURVE SMOOTH",
"270 581 OFFCURVE",
"333 679 OFFCURVE",
"444 679 CURVE SMOOTH",
"528 679 OFFCURVE",
"613 642 OFFCURVE",
"695 642 CURVE SMOOTH",
"759 642 OFFCURVE",
"822 660 OFFCURVE",
"866 704 CURVE",
"814 677 OFFCURVE",
"752 673 OFFCURVE",
"703 673 CURVE SMOOTH",
"615 673 OFFCURVE",
"544 710 OFFCURVE",
"454 710 CURVE SMOOTH",
"328 710 OFFCURVE",
"236 614 OFFCURVE",
"236 489 CURVE SMOOTH",
"236 431 OFFCURVE",
"258 373 OFFCURVE",
"306 318 CURVE"
);
}
);
width = 866;
}
);
note = H;
unicode = 0048;
},
{
color = 1;
glyphname = I;
lastChange = "2018-07-19 12:45:06 +0000";
layers = (
{
anchors = (
{
name = bottom;
position = "{200, 0}";
},
{
name = ogonek;
position = "{409, 10}";
},
{
name = top;
position = "{375, 700}";
},
{
name = topleft;
position = "{136, 700}";
}
);
background = {
paths = (
{
closed = 1;
nodes = (
"150 -10 OFFCURVE",
"220 7 OFFCURVE",
"279 42 CURVE SMOOTH",
"339 77 OFFCURVE",
"386 129 OFFCURVE",
"421 196 CURVE",
"435 185 OFFCURVE",
"445 173 OFFCURVE",
"454 163 CURVE",
"462 151 OFFCURVE",
"470 135 OFFCURVE",
"479 116 CURVE",
"475 135 OFFCURVE",
"470 151 OFFCURVE",
"464 162 CURVE",
"455 173 OFFCURVE",
"446 188 OFFCURVE",
"428 208 CURVE",
"442 242 OFFCURVE",
"461 297 OFFCURVE",
"486 378 CURVE SMOOTH",
"510 459 OFFCURVE",
"536 524 OFFCURVE",
"562 573 CURVE SMOOTH",
"589 622 OFFCURVE",
"630 661 OFFCURVE",
"683 691 CURVE",
"663 685 OFFCURVE",
"646 678 OFFCURVE",
"630 669 CURVE SMOOTH",
"616 661 OFFCURVE",
"597 650 OFFCURVE",
"574 635 CURVE SMOOTH",
"481 580 LINE SMOOTH",
"445 559 OFFCURVE",
"408 548 OFFCURVE",
"371 548 CURVE SMOOTH",
"356 548 OFFCURVE",
"343 549 OFFCURVE",
"329 553 CURVE",
"313 557 OFFCURVE",
"303 562 OFFCURVE",
"296 567 CURVE",
"290 570 OFFCURVE",
"285 577 OFFCURVE",
"283 585 CURVE",
"280 593 OFFCURVE",
"279 599 OFFCURVE",
"279 603 CURVE SMOOTH",
"279 618 OFFCURVE",
"284 630 OFFCURVE",
"295 639 CURVE",
"305 648 OFFCURVE",
"314 653 OFFCURVE",
"321 654 CURVE",
"329 656 OFFCURVE",
"338 658 OFFCURVE",
"346 658 CURVE SMOOTH",
"363 658 OFFCURVE",
"378 655 OFFCURVE",
"393 649 CURVE",
"409 644 OFFCURVE",
"423 638 OFFCURVE",
"436 631 CURVE",
"428 641 LINE",
"424 646 OFFCURVE",
"419 651 OFFCURVE",
"410 660 CURVE SMOOTH",
"401 669 OFFCURVE",
"390 675 OFFCURVE",
"376 680 CURVE",
"360 685 OFFCURVE",
"345 689 OFFCURVE",
"329 689 CURVE SMOOTH",
"308 689 OFFCURVE",
"285 684 OFFCURVE",
"262 673 CURVE",
"247 666 OFFCURVE",
"235 658 OFFCURVE",
"229 649 CURVE",
"220 640 OFFCURVE",
"217 628 OFFCURVE",
"217 613 CURVE SMOOTH",
"217 594 OFFCURVE",
"224 577 OFFCURVE",
"239 562 CURVE SMOOTH",
"254 547 OFFCURVE",
"269 537 OFFCURVE",
"283 532 CURVE",
"296 525 OFFCURVE",
"314 523 OFFCURVE",
"333 523 CURVE SMOOTH",
"351 523 OFFCURVE",
"369 525 OFFCURVE",
"386 530 CURVE",
"406 534 OFFCURVE",
"425 539 OFFCURVE",
"445 548 CURVE SMOOTH",
"465 557 OFFCURVE",
"487 567 OFFCURVE",
"512 582 CURVE",
"537 595 OFFCURVE",
"555 605 OFFCURVE",
"569 609 CURVE",
"539 573 OFFCURVE",
"515 537 OFFCURVE",
"495 502 CURVE SMOOTH",
"475 467 OFFCURVE",
"456 433 OFFCURVE",
"441 399 CURVE SMOOTH",
"425 366 OFFCURVE",
"403 317 OFFCURVE",
"374 252 CURVE",
"350 262 OFFCURVE",
"325 271 OFFCURVE",
"299 276 CURVE",
"273 282 OFFCURVE",
"245 285 OFFCURVE",
"219 285 CURVE SMOOTH",
"185 285 OFFCURVE",
"152 280 OFFCURVE",
"119 270 CURVE SMOOTH",
"87 260 OFFCURVE",
"58 245 OFFCURVE",
"33 225 CURVE SMOOTH",
"9 205 OFFCURVE",
"-11 185 OFFCURVE",
"-24 165 CURVE SMOOTH",
"-38 144 OFFCURVE",
"-44 121 OFFCURVE",
"-44 99 CURVE SMOOTH",
"-44 92 OFFCURVE",
"-42 79 OFFCURVE",
"-38 57 CURVE SMOOTH",
"-34 39 OFFCURVE",
"-23 24 OFFCURVE",
"-3 10 CURVE SMOOTH",
"16 -4 OFFCURVE",
"41 -10 OFFCURVE",
"69 -10 CURVE SMOOTH"
);
},
{
closed = 1;
nodes = (
"78 0 OFFCURVE",
"61 5 OFFCURVE",
"47 16 CURVE SMOOTH",
"33 27 OFFCURVE",
"23 37 OFFCURVE",
"19 47 CURVE",
"16 56 OFFCURVE",
"14 67 OFFCURVE",
"14 81 CURVE SMOOTH",
"14 91 OFFCURVE",
"16 109 OFFCURVE",
"24 137 CURVE",
"31 163 OFFCURVE",
"51 190 OFFCURVE",
"86 216 CURVE",
"122 241 OFFCURVE",
"165 257 OFFCURVE",
"217 266 CURVE SMOOTH",
"230 268 OFFCURVE",
"243 270 OFFCURVE",
"254 270 CURVE SMOOTH",
"274 270 OFFCURVE",
"293 267 OFFCURVE",
"309 261 CURVE",
"328 255 OFFCURVE",
"346 246 OFFCURVE",
"365 236 CURVE",
"346 197 OFFCURVE",
"330 163 OFFCURVE",
"314 137 CURVE",
"298 109 OFFCURVE",
"278 86 OFFCURVE",
"252 62 CURVE",
"228 39 OFFCURVE",
"202 24 OFFCURVE",
"175 16 CURVE",
"150 7 OFFCURVE",
"135 4 OFFCURVE",
"127 2 CURVE SMOOTH",
"118 1 OFFCURVE",
"111 0 OFFCURVE",
"99 0 CURVE SMOOTH"
);
}
);
};
layerId = "0B1DFD06-3317-40CA-B510-4969A0718C16";
paths = (
{
closed = 1;
nodes = (
"292 -10 OFFCURVE",
"400 71 OFFCURVE",
"432 199 CURVE SMOOTH",
"559 708 LINE",
"551 708 LINE",
"490 606 OFFCURVE",
"360 554 OFFCURVE",
"271 554 CURVE SMOOTH",
"214 554 OFFCURVE",
"178 575 OFFCURVE",
"178 609 CURVE SMOOTH",
"178 636 OFFCURVE",
"201 665 OFFCURVE",
"235 665 CURVE SMOOTH",
"248 665 OFFCURVE",
"264 661 OFFCURVE",
"277 641 CURVE",
"280 679 OFFCURVE",
"262 696 OFFCURVE",
"229 696 CURVE SMOOTH",
"178 696 OFFCURVE",
"140 653 OFFCURVE",
"140 601 CURVE SMOOTH",
"140 552 OFFCURVE",
"185 523 OFFCURVE",
"263 523 CURVE SMOOTH",
"339 523 OFFCURVE",
"416 551 OFFCURVE",
"498 609 CURVE",
"501 607 LINE",
"481 547 OFFCURVE",
"473 516 OFFCURVE",
"457 452 CURVE SMOOTH",
"394 199 LINE SMOOTH",
"366 90 OFFCURVE",
"277 21 OFFCURVE",
"164 21 CURVE SMOOTH",
"97 21 OFFCURVE",
"44 36 OFFCURVE",
"29 59 CURVE",
"29 177 OFFCURVE",
"94 254 OFFCURVE",
"206 254 CURVE SMOOTH",
"356 254 OFFCURVE",
"460 209 OFFCURVE",
"525 116 CURVE",
"474 225 OFFCURVE",
"363 285 OFFCURVE",
"214 285 CURVE SMOOTH",
"89 285 OFFCURVE",
"-6 201 OFFCURVE",
"-6 82 CURVE SMOOTH",
"-6 74 OFFCURVE",
"-5 66 OFFCURVE",
"-4 59 CURVE",
"16 17 OFFCURVE",
"78 -10 OFFCURVE",
"156 -10 CURVE SMOOTH"
);
}
);
width = 517;
}
);
note = I;
unicode = 0049;
},
{
color = 1;
glyphname = J;
lastChange = "2018-07-19 12:45:06 +0000";
layers = (
{
anchors = (
{
name = bottom;
position = "{199, 0}";
},
{
name = top;
position = "{374, 700}";
}
);
background = {
paths = (
{
closed = 1;
nodes = (
"85 -230 OFFCURVE",
"141 -212 OFFCURVE",
"195 -176 CURVE SMOOTH",
"248 -140 OFFCURVE",
"297 -92 OFFCURVE",
"343 -34 CURVE",
"351 -37 OFFCURVE",
"381 -72 OFFCURVE",
"381 -71 CURVE",
"379 -62 OFFCURVE",
"373 -51 OFFCURVE",
"364 -41 CURVE",
"361 -35 OFFCURVE",
"356 -30 OFFCURVE",
"351 -24 CURVE",
"356 -17 OFFCURVE",
"358 -11 OFFCURVE",
"362 -7 CURVE",
"366 -1 LINE",
"384 44 OFFCURVE",
"411 117 OFFCURVE",
"441 221 CURVE SMOOTH",
"472 324 OFFCURVE",
"501 407 OFFCURVE",
"529 470 CURVE SMOOTH",
"558 534 OFFCURVE",
"585 580 OFFCURVE",
"613 608 CURVE SMOOTH",
"640 636 OFFCURVE",
"659 655 OFFCURVE",
"670 664 CURVE SMOOTH",
"681 673 OFFCURVE",
"688 680 OFFCURVE",
"688 686 CURVE",
"684 688 OFFCURVE",
"681 689 OFFCURVE",
"680 689 CURVE SMOOTH",
"674 689 OFFCURVE",
"557 609 OFFCURVE",
"543 602 CURVE SMOOTH",
"524 592 OFFCURVE",
"503 580 OFFCURVE",
"474 572 CURVE SMOOTH",
"447 563 OFFCURVE",
"419 558 OFFCURVE",
"392 558 CURVE",
"369 562 OFFCURVE",
"351 565 OFFCURVE",
"337 572 CURVE",
"325 575 OFFCURVE",
"316 583 OFFCURVE",
"312 593 CURVE",
"308 602 OFFCURVE",
"307 609 OFFCURVE",
"307 613 CURVE SMOOTH",
"307 620 OFFCURVE",
"310 626 OFFCURVE",
"316 633 CURVE",
"328 650 LINE",
"342 660 OFFCURVE",
"358 665 OFFCURVE",
"377 665 CURVE SMOOTH",
"393 665 OFFCURVE",
"409 661 OFFCURVE",
"423 655 CURVE",
"439 649 OFFCURVE",
"454 640 OFFCURVE",
"471 630 CURVE",
"447 651 OFFCURVE",
"424 666 OFFCURVE",
"402 676 CURVE",
"381 688 OFFCURVE",
"356 693 OFFCURVE",
"327 693 CURVE",
"311 689 OFFCURVE",
"296 684 OFFCURVE",
"281 675 CURVE",
"267 666 OFFCURVE",
"257 658 OFFCURVE",
"252 648 CURVE",
"248 636 OFFCURVE",
"246 629 OFFCURVE",
"246 624 CURVE SMOOTH",
"246 614 OFFCURVE",
"248 605 OFFCURVE",
"255 597 CURVE",
"261 587 OFFCURVE",
"268 578 OFFCURVE",
"277 570 CURVE",
"293 559 OFFCURVE",
"311 553 OFFCURVE",
"327 548 CURVE",
"346 544 OFFCURVE",
"364 542 OFFCURVE",
"383 542 CURVE SMOOTH",
"419 542 OFFCURVE",
"456 549 OFFCURVE",
"492 564 CURVE SMOOTH",
"528 579 OFFCURVE",
"563 598 OFFCURVE",
"595 622 CURVE",
"599 619 LINE",
"554 565 OFFCURVE",
"514 512 OFFCURVE",
"481 453 CURVE SMOOTH",
"447 394 OFFCURVE",
"421 339 OFFCURVE",
"399 288 CURVE SMOOTH",
"378 237 OFFCURVE",
"348 161 OFFCURVE",
"310 57 CURVE",
"286 20 LINE",
"247 39 OFFCURVE",
"201 49 OFFCURVE",
"151 49 CURVE SMOOTH",
"126 49 OFFCURVE",
"105 47 OFFCURVE",
"81 42 CURVE SMOOTH",
"57 37 OFFCURVE",
"34 27 OFFCURVE",
"8 12 CURVE",
"-21 -1 OFFCURVE",
"-42 -22 OFFCURVE",
"-66 -47 CURVE",
"-87 -74 OFFCURVE",
"-99 -104 OFFCURVE",
"-99 -137 CURVE SMOOTH",
"-99 -146 OFFCURVE",
"-97 -152 OFFCURVE",
"-96 -161 CURVE",
"-87 -176 OFFCURVE",
"-77 -188 OFFCURVE",
"-66 -202 CURVE",
"-55 -212 OFFCURVE",
"-40 -220 OFFCURVE",
"-24 -226 CURVE",
"-7 -228 OFFCURVE",
"9 -230 OFFCURVE",
"25 -230 CURVE SMOOTH"
);
},
{
closed = 1;
nodes = (
"10 -216 OFFCURVE",
"0 -216 OFFCURVE",
"-10 -215 CURVE",
"-20 -212 OFFCURVE",
"-27 -207 OFFCURVE",
"-34 -198 CURVE",
"-40 -188 OFFCURVE",
"-45 -178 OFFCURVE",
"-49 -167 CURVE",
"-49 -131 OFFCURVE",
"-39 -99 OFFCURVE",
"-17 -70 CURVE SMOOTH",
"4 -40 OFFCURVE",
"30 -16 OFFCURVE",
"60 0 CURVE",
"76 11 OFFCURVE",
"95 17 OFFCURVE",
"116 24 CURVE",
"137 29 OFFCURVE",
"159 32 OFFCURVE",
"180 32 CURVE SMOOTH",
"198 32 OFFCURVE",
"216 30 OFFCURVE",
"235 26 CURVE",
"253 21 OFFCURVE",
"268 15 OFFCURVE",
"280 6 CURVE",
"256 -34 OFFCURVE",
"232 -70 OFFCURVE",
"208 -102 CURVE SMOOTH",
"184 -135 OFFCURVE",
"155 -161 OFFCURVE",
"124 -182 CURVE SMOOTH",
"92 -205 OFFCURVE",
"57 -216 OFFCURVE",
"19 -216 CURVE SMOOTH"
);
}
);
};
layerId = "0B1DFD06-3317-40CA-B510-4969A0718C16";
paths = (
{
closed = 1;
nodes = (
"229 -260 OFFCURVE",
"337 -179 OFFCURVE",
"368 -51 CURVE SMOOTH",
"558 708 LINE",
"550 708 LINE",
"489 606 OFFCURVE",
"359 554 OFFCURVE",
"270 554 CURVE SMOOTH",
"213 554 OFFCURVE",
"177 575 OFFCURVE",
"177 609 CURVE SMOOTH",
"177 636 OFFCURVE",
"200 665 OFFCURVE",
"234 665 CURVE SMOOTH",
"247 665 OFFCURVE",
"263 661 OFFCURVE",
"276 641 CURVE",
"279 679 OFFCURVE",
"261 696 OFFCURVE",
"228 696 CURVE SMOOTH",
"177 696 OFFCURVE",
"139 652 OFFCURVE",
"139 602 CURVE SMOOTH",
"139 553 OFFCURVE",
"185 523 OFFCURVE",
"263 523 CURVE SMOOTH",
"339 523 OFFCURVE",
"416 551 OFFCURVE",
"497 609 CURVE",
"500 607 LINE",
"481 547 OFFCURVE",
"472 516 OFFCURVE",
"456 452 CURVE SMOOTH",
"330 -51 LINE SMOOTH",
"303 -160 OFFCURVE",
"214 -229 OFFCURVE",
"101 -229 CURVE SMOOTH",
"34 -229 OFFCURVE",
"-19 -214 OFFCURVE",
"-34 -191 CURVE",
"-34 -74 OFFCURVE",
"30 4 OFFCURVE",
"143 4 CURVE SMOOTH",
"293 4 OFFCURVE",
"397 -41 OFFCURVE",
"462 -134 CURVE",
"411 -25 OFFCURVE",
"300 35 OFFCURVE",
"151 35 CURVE SMOOTH",
"26 35 OFFCURVE",
"-69 -49 OFFCURVE",
"-69 -168 CURVE SMOOTH",
"-69 -176 OFFCURVE",
"-68 -184 OFFCURVE",
"-67 -191 CURVE",
"-47 -233 OFFCURVE",
"15 -260 OFFCURVE",
"93 -260 CURVE SMOOTH"
);
}
);
width = 516;
}
);
note = J;
unicode = 004A;
},
{
color = 1;
glyphname = K;
lastChange = "2018-07-19 12:45:06 +0000";
layers = (
{
anchors = (
{
name = bottom;
position = "{319, 0}";
},
{
name = top;
position = "{494, 700}";
}
);
background = {
paths = (
{
closed = 1;
nodes = (
"768 -29 OFFCURVE",
"710 52 OFFCURVE",
"665 119 CURVE SMOOTH",
"618 187 OFFCURVE",
"578 248 OFFCURVE",
"544 303 CURVE SMOOTH",
"507 359 OFFCURVE",
"472 416 OFFCURVE",
"436 470 CURVE",
"443 494 OFFCURVE",
"451 518 OFFCURVE",
"460 540 CURVE SMOOTH",
"468 564 OFFCURVE",
"478 582 OFFCURVE",
"489 600 CURVE SMOOTH",
"500 619 OFFCURVE",
"514 633 OFFCURVE",
"528 646 CURVE SMOOTH",
"545 661 OFFCURVE",
"557 671 OFFCURVE",
"566 675 CURVE",
"577 681 OFFCURVE",
"587 684 OFFCURVE",
"596 684 CURVE SMOOTH",
"607 684 OFFCURVE",
"619 680 OFFCURVE",
"633 675 CURVE SMOOTH",
"643 671 OFFCURVE",
"656 664 OFFCURVE",
"669 655 CURVE",
"680 646 OFFCURVE",
"688 639 OFFCURVE",
"690 635 CURVE SMOOTH",
"693 629 OFFCURVE",
"694 624 OFFCURVE",
"694 619 CURVE SMOOTH",
"694 614 OFFCURVE",
"693 607 OFFCURVE",
"690 597 CURVE",
"689 587 OFFCURVE",
"683 579 OFFCURVE",
"671 574 CURVE",
"660 570 OFFCURVE",
"644 568 OFFCURVE",
"628 568 CURVE SMOOTH",
"617 568 OFFCURVE",
"607 567 OFFCURVE",
"593 570 CURVE",
"581 572 OFFCURVE",
"569 574 OFFCURVE",
"556 578 CURVE",
"559 572 LINE",
"575 567 OFFCURVE",
"590 562 OFFCURVE",
"607 558 CURVE",
"624 553 OFFCURVE",
"638 550 OFFCURVE",
"652 550 CURVE SMOOTH",
"683 550 OFFCURVE",
"709 554 OFFCURVE",
"728 563 CURVE SMOOTH",
"746 572 OFFCURVE",
"756 583 OFFCURVE",
"757 598 CURVE",
"758 612 OFFCURVE",
"757 623 OFFCURVE",
"753 631 CURVE SMOOTH",
"743 650 OFFCURVE",
"725 668 OFFCURVE",
"698 683 CURVE",
"671 696 OFFCURVE",
"642 704 OFFCURVE",
"612 704 CURVE SMOOTH",
"585 704 OFFCURVE",
"560 698 OFFCURVE",
"540 684 CURVE SMOOTH",
"518 670 OFFCURVE",
"500 653 OFFCURVE",
"487 631 CURVE SMOOTH",
"445 562 OFFCURVE",
"415 490 OFFCURVE",
"395 418 CURVE SMOOTH",
"376 344 OFFCURVE",
"361 263 OFFCURVE",
"353 172 CURVE",
"349 172 LINE",
"340 257 OFFCURVE",
"331 342 OFFCURVE",
"326 428 CURVE SMOOTH",
"321 517 OFFCURVE",
"315 602 OFFCURVE",
"315 691 CURVE",
"302 694 LINE",
"293 678 OFFCURVE",
"283 651 OFFCURVE",
"270 613 CURVE",
"255 583 OFFCURVE",
"238 564 OFFCURVE",
"219 557 CURVE SMOOTH",
"176 542 LINE",
"168 538 OFFCURVE",
"158 539 OFFCURVE",
"148 539 CURVE SMOOTH",
"134 539 OFFCURVE",
"121 542 OFFCURVE",
"110 547 CURVE",
"97 553 OFFCURVE",
"89 559 OFFCURVE",
"85 565 CURVE",
"78 573 OFFCURVE",
"74 579 OFFCURVE",
"71 584 CURVE SMOOTH",
"66 595 OFFCURVE",
"66 604 OFFCURVE",
"71 612 CURVE",
"78 619 OFFCURVE",
"85 624 OFFCURVE",
"94 626 CURVE SMOOTH",
"104 629 OFFCURVE",
"115 630 OFFCURVE",
"130 630 CURVE SMOOTH",
"139 630 OFFCURVE",
"147 631 OFFCURVE",
"161 628 CURVE",
"200 624 LINE",
"182 633 OFFCURVE",
"162 641 OFFCURVE",
"139 648 CURVE SMOOTH",
"121 653 OFFCURVE",
"104 656 OFFCURVE",
"85 656 CURVE SMOOTH",
"76 656 OFFCURVE",
"66 655 OFFCURVE",
"51 653 CURVE SMOOTH",
"38 650 OFFCURVE",
"26 644 OFFCURVE",
"15 635 CURVE",
"6 625 OFFCURVE",
"3 612 OFFCURVE",
"10 594 CURVE",
"20 574 OFFCURVE",
"34 559 OFFCURVE",
"52 549 CURVE",
"70 539 OFFCURVE",
"86 533 OFFCURVE",
"99 529 CURVE",
"115 525 OFFCURVE",
"129 523 OFFCURVE",
"142 523 CURVE SMOOTH",
"177 523 OFFCURVE",
"208 533 OFFCURVE",
"233 554 CURVE",
"261 574 OFFCURVE",
"280 598 OFFCURVE",
"291 624 CURVE",
"291 560 OFFCURVE",
"291 497 OFFCURVE",
"287 433 CURVE SMOOTH",
"284 369 OFFCURVE",
"277 301 OFFCURVE",
"269 222 CURVE SMOOTH",
"262 144 OFFCURVE",
"254 74 OFFCURVE",
"249 4 CURVE",
"262 0 OFFCURVE",
"272 -1 OFFCURVE",
"282 -2 CURVE",
"290 -2 OFFCURVE",
"301 -4 OFFCURVE",
"315 -4 CURVE",
"323 -2 OFFCURVE",
"332 -2 OFFCURVE",
"340 -2 CURVE SMOOTH",
"365 -2 LINE",
"364 62 OFFCURVE",
"366 127 OFFCURVE",
"372 196 CURVE SMOOTH",
"379 265 OFFCURVE",
"389 328 OFFCURVE",
"404 389 CURVE",
"439 341 OFFCURVE",
"473 293 OFFCURVE",
"510 245 CURVE",
"546 196 OFFCURVE",
"587 145 OFFCURVE",
"635 89 CURVE SMOOTH",
"684 34 OFFCURVE",
"750 -37 OFFCURVE",
"835 -124 CURVE"
);
}
);
};
layerId = "0B1DFD06-3317-40CA-B510-4969A0718C16";
paths = (
{
closed = 1;
nodes = (
"261 0 LINE",
"257 13 OFFCURVE",
"261 49 OFFCURVE",
"272 92 CURVE SMOOTH",
"424 700 LINE",
"416 700 LINE",
"331 592 OFFCURVE",
"272 546 OFFCURVE",
"192 546 CURVE SMOOTH",
"143 546 OFFCURVE",
"117 564 OFFCURVE",
"117 589 CURVE SMOOTH",
"117 613 OFFCURVE",
"137 634 OFFCURVE",
"168 634 CURVE SMOOTH",
"180 634 OFFCURVE",
"197 631 OFFCURVE",
"212 616 CURVE",
"213 646 OFFCURVE",
"196 663 OFFCURVE",
"162 663 CURVE SMOOTH",
"114 663 OFFCURVE",
"78 631 OFFCURVE",
"78 582 CURVE SMOOTH",
"78 541 OFFCURVE",
"115 515 OFFCURVE",
"179 515 CURVE SMOOTH",
"261 515 OFFCURVE",
"325 558 OFFCURVE",
"365 611 CURVE",
"369 609 LINE",
"354 569 OFFCURVE",
"344 535 OFFCURVE",
"332 485 CURVE SMOOTH",
"234 92 LINE SMOOTH",
"220 36 OFFCURVE",
"214 18 OFFCURVE",
"199 0 CURVE"
);
},
{
closed = 1;
nodes = (
"279 120 LINE",
"503 525 OFFCURVE",
"596 680 OFFCURVE",
"731 680 CURVE SMOOTH",
"776 680 OFFCURVE",
"803 662 OFFCURVE",
"803 634 CURVE SMOOTH",
"803 591 OFFCURVE",
"760 570 OFFCURVE",
"702 570 CURVE SMOOTH",
"669 570 OFFCURVE",
"646 576 OFFCURVE",
"622 586 CURVE",
"640 552 OFFCURVE",
"675 541 OFFCURVE",
"717 541 CURVE SMOOTH",
"788 541 OFFCURVE",
"842 578 OFFCURVE",
"842 641 CURVE SMOOTH",
"842 684 OFFCURVE",
"806 710 OFFCURVE",
"738 710 CURVE SMOOTH",
"571 710 OFFCURVE",
"475 541 OFFCURVE",
"286 195 CURVE",
"267 120 LINE"
);
},
{
closed = 1;
nodes = (
"546 193 OFFCURVE",
"490 328 OFFCURVE",
"452 433 CURVE",
"419 393 LINE",
"452 301 OFFCURVE",
"514 174 OFFCURVE",
"672 -101 CURVE"
);
}
);
width = 756;
},
{
associatedMasterId = "0B1DFD06-3317-40CA-B510-4969A0718C16";
background = {
paths = (
{
closed = 1;
nodes = (
"542 -29 OFFCURVE",
"524 52 OFFCURVE",
"513 119 CURVE SMOOTH",
"500 187 OFFCURVE",
"490 248 OFFCURVE",
"483 303 CURVE SMOOTH",
"474 359 OFFCURVE",
"468 416 OFFCURVE",
"459 470 CURVE",
"478 494 OFFCURVE",
"498 518 OFFCURVE",
"518 540 CURVE SMOOTH",
"538 564 OFFCURVE",
"557 582 OFFCURVE",
"577 600 CURVE SMOOTH",
"597 619 OFFCURVE",
"618 633 OFFCURVE",
"639 646 CURVE SMOOTH",
"663 661 OFFCURVE",
"680 671 OFFCURVE",
"691 675 CURVE",
"705 681 OFFCURVE",
"716 684 OFFCURVE",
"725 684 CURVE SMOOTH",
"736 684 OFFCURVE",
"746 680 OFFCURVE",
"758 675 CURVE SMOOTH",
"766 671 OFFCURVE",
"775 664 OFFCURVE",
"784 655 CURVE",
"791 646 OFFCURVE",
"795 639 OFFCURVE",
"795 635 CURVE SMOOTH",
"795 629 OFFCURVE",
"794 624 OFFCURVE",
"791 619 CURVE SMOOTH",
"789 614 OFFCURVE",
"784 607 OFFCURVE",
"776 597 CURVE",
"770 587 OFFCURVE",
"760 579 OFFCURVE",
"746 574 CURVE",
"733 570 OFFCURVE",
"716 568 OFFCURVE",
"700 568 CURVE SMOOTH",
"689 568 OFFCURVE",
"678 567 OFFCURVE",
"666 570 CURVE",
"655 572 OFFCURVE",
"644 574 OFFCURVE",
"633 578 CURVE",
"633 572 LINE",
"646 567 OFFCURVE",
"659 562 OFFCURVE",
"674 558 CURVE",
"688 553 OFFCURVE",
"701 550 OFFCURVE",
"715 550 CURVE SMOOTH",
"746 550 OFFCURVE",
"774 554 OFFCURVE",
"797 563 CURVE SMOOTH",
"820 572 OFFCURVE",
"835 583 OFFCURVE",
"844 598 CURVE",
"852 612 OFFCURVE",
"856 623 OFFCURVE",
"856 631 CURVE SMOOTH",
"856 650 OFFCURVE",
"846 668 OFFCURVE",
"827 683 CURVE",
"806 696 OFFCURVE",
"781 704 OFFCURVE",
"751 704 CURVE SMOOTH",
"724 704 OFFCURVE",
"696 698 OFFCURVE",
"669 684 CURVE SMOOTH",
"640 670 OFFCURVE",
"614 653 OFFCURVE",
"590 631 CURVE SMOOTH",
"514 562 OFFCURVE",
"448 490 OFFCURVE",
"392 418 CURVE SMOOTH",
"336 344 OFFCURVE",
"281 263 OFFCURVE",
"227 172 CURVE",
"223 172 LINE",
"257 257 OFFCURVE",
"290 342 OFFCURVE",
"328 428 CURVE SMOOTH",
"367 517 OFFCURVE",
"404 602 OFFCURVE",
"448 691 CURVE",
"436 694 LINE",
"419 678 OFFCURVE",
"396 651 OFFCURVE",
"364 613 CURVE",
"334 583 OFFCURVE",
"308 564 OFFCURVE",
"285 557 CURVE SMOOTH",
"235 542 LINE",
"225 538 OFFCURVE",
"215 539 OFFCURVE",
"205 539 CURVE SMOOTH",
"191 539 OFFCURVE",
"180 542 OFFCURVE",
"171 547 CURVE",
"161 553 OFFCURVE",
"156 559 OFFCURVE",
"155 565 CURVE",
"152 573 OFFCURVE",
"151 579 OFFCURVE",
"151 584 CURVE SMOOTH",
"151 595 OFFCURVE",
"156 604 OFFCURVE",
"165 612 CURVE",
"175 619 OFFCURVE",
"185 624 OFFCURVE",
"195 626 CURVE SMOOTH",
"206 629 OFFCURVE",
"218 630 OFFCURVE",
"233 630 CURVE SMOOTH",
"242 630 OFFCURVE",
"250 631 OFFCURVE",
"263 628 CURVE",
"300 624 LINE",
"286 633 OFFCURVE",
"270 641 OFFCURVE",
"251 648 CURVE SMOOTH",
"235 653 OFFCURVE",
"220 656 OFFCURVE",
"201 656 CURVE SMOOTH",
"192 656 OFFCURVE",
"181 655 OFFCURVE",
"165 653 CURVE SMOOTH",
"151 650 OFFCURVE",
"136 644 OFFCURVE",
"120 635 CURVE",
"106 625 OFFCURVE",
"97 612 OFFCURVE",
"95 594 CURVE",
"95 574 OFFCURVE",
"101 559 OFFCURVE",
"114 549 CURVE",
"127 539 OFFCURVE",
"140 533 OFFCURVE",
"151 529 CURVE",
"165 525 OFFCURVE",
"178 523 OFFCURVE",
"191 523 CURVE SMOOTH",
"226 523 OFFCURVE",
"262 533 OFFCURVE",
"298 554 CURVE",
"336 574 OFFCURVE",
"367 598 OFFCURVE",
"391 624 CURVE",
"359 560 OFFCURVE",
"327 497 OFFCURVE",
"291 433 CURVE SMOOTH",
"256 369 OFFCURVE",
"215 301 OFFCURVE",
"168 222 CURVE SMOOTH",
"122 144 OFFCURVE",
"79 74 OFFCURVE",
"39 4 CURVE",
"50 0 OFFCURVE",
"60 -1 OFFCURVE",
"69 -2 CURVE",
"77 -2 OFFCURVE",
"87 -4 OFFCURVE",
"101 -4 CURVE",
"110 -2 OFFCURVE",
"119 -2 OFFCURVE",
"127 -2 CURVE SMOOTH",
"152 -2 LINE",
"183 62 OFFCURVE",
"218 127 OFFCURVE",
"258 196 CURVE SMOOTH",
"300 265 OFFCURVE",
"341 328 OFFCURVE",
"386 389 CURVE",
"397 341 OFFCURVE",
"407 293 OFFCURVE",
"421 245 CURVE",
"432 196 OFFCURVE",
"448 145 OFFCURVE",
"468 89 CURVE SMOOTH",
"489 34 OFFCURVE",
"520 -37 OFFCURVE",
"562 -124 CURVE"
);
}
);
};
layerId = "0DE25616-BFCF-4834-8671-C499FD82EB9E";
name = "Jul 14 18, 14:56";
paths = (
{
closed = 1;
nodes = (
"701 -29 OFFCURVE",
"643 52 OFFCURVE",
"598 119 CURVE SMOOTH",
"551 187 OFFCURVE",
"511 248 OFFCURVE",
"477 303 CURVE SMOOTH",
"440 359 OFFCURVE",
"405 416 OFFCURVE",
"369 470 CURVE",
"376 494 OFFCURVE",
"384 518 OFFCURVE",
"393 540 CURVE SMOOTH",
"401 564 OFFCURVE",
"411 582 OFFCURVE",
"422 600 CURVE SMOOTH",
"433 619 OFFCURVE",
"447 633 OFFCURVE",
"461 646 CURVE SMOOTH",
"478 661 OFFCURVE",
"490 671 OFFCURVE",
"499 675 CURVE",
"510 681 OFFCURVE",
"520 684 OFFCURVE",
"529 684 CURVE SMOOTH",
"540 684 OFFCURVE",
"552 680 OFFCURVE",
"566 675 CURVE SMOOTH",
"576 671 OFFCURVE",
"589 664 OFFCURVE",
"602 655 CURVE",
"613 646 OFFCURVE",
"621 639 OFFCURVE",
"623 635 CURVE SMOOTH",
"626 629 OFFCURVE",
"627 624 OFFCURVE",
"627 619 CURVE SMOOTH",
"627 614 OFFCURVE",
"626 607 OFFCURVE",
"623 597 CURVE",
"622 587 OFFCURVE",
"616 579 OFFCURVE",
"604 574 CURVE",
"593 570 OFFCURVE",
"577 568 OFFCURVE",
"561 568 CURVE SMOOTH",
"550 568 OFFCURVE",
"540 567 OFFCURVE",
"526 570 CURVE",
"514 572 OFFCURVE",
"502 574 OFFCURVE",
"489 578 CURVE",
"492 572 LINE",
"508 567 OFFCURVE",
"523 562 OFFCURVE",
"540 558 CURVE",
"557 553 OFFCURVE",
"571 550 OFFCURVE",
"585 550 CURVE SMOOTH",
"616 550 OFFCURVE",
"642 554 OFFCURVE",
"661 563 CURVE SMOOTH",
"679 572 OFFCURVE",
"689 583 OFFCURVE",
"690 598 CURVE",
"691 612 OFFCURVE",
"690 623 OFFCURVE",
"686 631 CURVE SMOOTH",
"676 650 OFFCURVE",
"658 668 OFFCURVE",
"631 683 CURVE",
"604 696 OFFCURVE",
"575 704 OFFCURVE",
"545 704 CURVE SMOOTH",
"518 704 OFFCURVE",
"493 698 OFFCURVE",
"473 684 CURVE SMOOTH",
"451 670 OFFCURVE",
"433 653 OFFCURVE",
"420 631 CURVE SMOOTH",
"378 562 OFFCURVE",
"348 490 OFFCURVE",
"328 418 CURVE SMOOTH",
"309 344 OFFCURVE",
"294 263 OFFCURVE",
"286 172 CURVE",
"282 172 LINE",
"273 257 OFFCURVE",
"264 342 OFFCURVE",
"259 428 CURVE SMOOTH",
"254 517 OFFCURVE",
"248 602 OFFCURVE",
"248 691 CURVE",
"235 694 LINE",
"226 678 OFFCURVE",
"216 651 OFFCURVE",
"203 613 CURVE",
"188 583 OFFCURVE",
"171 564 OFFCURVE",
"152 557 CURVE SMOOTH",
"109 542 LINE",
"101 538 OFFCURVE",
"91 539 OFFCURVE",
"81 539 CURVE SMOOTH",
"67 539 OFFCURVE",
"54 542 OFFCURVE",
"43 547 CURVE",
"30 553 OFFCURVE",
"22 559 OFFCURVE",
"18 565 CURVE",
"11 573 OFFCURVE",
"7 579 OFFCURVE",
"4 584 CURVE SMOOTH",
"-1 595 OFFCURVE",
"-1 604 OFFCURVE",
"4 612 CURVE",
"11 619 OFFCURVE",
"18 624 OFFCURVE",
"27 626 CURVE SMOOTH",
"37 629 OFFCURVE",
"48 630 OFFCURVE",
"63 630 CURVE SMOOTH",
"72 630 OFFCURVE",
"80 631 OFFCURVE",
"94 628 CURVE",
"133 624 LINE",
"115 633 OFFCURVE",
"95 641 OFFCURVE",
"72 648 CURVE SMOOTH",
"54 653 OFFCURVE",
"37 656 OFFCURVE",
"18 656 CURVE SMOOTH",
"9 656 OFFCURVE",
"-1 655 OFFCURVE",
"-16 653 CURVE SMOOTH",
"-29 650 OFFCURVE",
"-41 644 OFFCURVE",
"-52 635 CURVE",
"-61 625 OFFCURVE",
"-64 612 OFFCURVE",
"-57 594 CURVE",
"-47 574 OFFCURVE",
"-33 559 OFFCURVE",
"-15 549 CURVE",
"3 539 OFFCURVE",
"19 533 OFFCURVE",
"32 529 CURVE",
"48 525 OFFCURVE",
"62 523 OFFCURVE",
"75 523 CURVE SMOOTH",
"110 523 OFFCURVE",
"141 533 OFFCURVE",
"166 554 CURVE",
"194 574 OFFCURVE",
"213 598 OFFCURVE",
"224 624 CURVE",
"224 560 OFFCURVE",
"224 497 OFFCURVE",
"220 433 CURVE SMOOTH",
"217 369 OFFCURVE",
"210 301 OFFCURVE",
"202 222 CURVE SMOOTH",
"195 144 OFFCURVE",
"187 74 OFFCURVE",
"182 4 CURVE",
"195 0 OFFCURVE",
"205 -1 OFFCURVE",
"215 -2 CURVE",
"223 -2 OFFCURVE",
"234 -4 OFFCURVE",
"248 -4 CURVE",
"256 -2 OFFCURVE",
"265 -2 OFFCURVE",
"273 -2 CURVE SMOOTH",
"298 -2 LINE",
"297 62 OFFCURVE",
"299 127 OFFCURVE",
"305 196 CURVE SMOOTH",
"312 265 OFFCURVE",
"322 328 OFFCURVE",
"337 389 CURVE",
"372 341 OFFCURVE",
"406 293 OFFCURVE",
"443 245 CURVE",
"479 196 OFFCURVE",
"520 145 OFFCURVE",
"568 89 CURVE SMOOTH",
"617 34 OFFCURVE",
"683 -37 OFFCURVE",
"768 -124 CURVE"
);
}
);
width = 659;
}
);
note = K;
unicode = 004B;
},
{
color = 1;
glyphname = L;
lastChange = "2018-07-19 12:45:06 +0000";
layers = (
{
anchors = (
{
name = bottom;
position = "{289, 0}";
},
{
name = center;
position = "{410, 310}";
},
{
name = top;
position = "{464, 700}";
},
{
name = topright;
position = "{791, 700}";
}
);
background = {
paths = (
{
closed = 1;
nodes = (
"98 0 OFFCURVE",
"126 7 OFFCURVE",
"152 21 CURVE",
"178 34 OFFCURVE",
"202 51 OFFCURVE",
"224 74 CURVE",
"229 72 OFFCURVE",
"250 60 OFFCURVE",
"294 39 CURVE SMOOTH",
"335 17 OFFCURVE",
"364 5 OFFCURVE",
"380 4 CURVE SMOOTH",
"395 2 OFFCURVE",
"406 1 OFFCURVE",
"413 1 CURVE SMOOTH",
"418 1 OFFCURVE",
"424 0 OFFCURVE",
"429 0 CURVE SMOOTH",
"470 0 OFFCURVE",
"509 7 OFFCURVE",
"542 22 CURVE SMOOTH",
"579 37 OFFCURVE",
"614 59 OFFCURVE",
"650 85 CURVE",
"648 87 OFFCURVE",
"648 91 OFFCURVE",
"648 95 CURVE",
"646 100 LINE",
"624 79 OFFCURVE",
"600 64 OFFCURVE",
"575 55 CURVE SMOOTH",
"549 46 OFFCURVE",
"522 41 OFFCURVE",
"494 41 CURVE SMOOTH",
"460 41 OFFCURVE",
"430 46 OFFCURVE",
"396 55 CURVE SMOOTH",
"363 65 OFFCURVE",
"329 76 OFFCURVE",
"290 95 CURVE",
"262 107 LINE",
"292 136 OFFCURVE",
"318 163 OFFCURVE",
"341 197 CURVE SMOOTH",
"365 231 OFFCURVE",
"386 268 OFFCURVE",
"410 310 CURVE SMOOTH",
"434 349 OFFCURVE",
"455 388 OFFCURVE",
"475 427 CURVE",
"521 412 OFFCURVE",
"569 404 OFFCURVE",
"617 404 CURVE SMOOTH",
"666 404 OFFCURVE",
"711 413 OFFCURVE",
"753 431 CURVE SMOOTH",
"794 448 OFFCURVE",
"826 470 OFFCURVE",
"846 497 CURVE SMOOTH",
"864 523 OFFCURVE",
"878 543 OFFCURVE",
"884 558 CURVE SMOOTH",
"891 573 OFFCURVE",
"894 587 OFFCURVE",
"894 599 CURVE SMOOTH",
"894 610 OFFCURVE",
"891 626 OFFCURVE",
"883 646 CURVE SMOOTH",
"876 666 OFFCURVE",
"859 680 OFFCURVE",
"833 689 CURVE SMOOTH",
"808 696 OFFCURVE",
"775 700 OFFCURVE",
"733 700 CURVE",
"670 695 OFFCURVE",
"612 671 OFFCURVE",
"561 629 CURVE SMOOTH",
"510 588 OFFCURVE",
"468 537 OFFCURVE",
"434 474 CURVE",
"414 489 OFFCURVE",
"400 500 OFFCURVE",
"391 509 CURVE SMOOTH",
"383 518 OFFCURVE",
"376 530 OFFCURVE",
"368 545 CURVE",
"369 527 OFFCURVE",
"374 510 OFFCURVE",
"385 497 CURVE",
"394 483 OFFCURVE",
"408 469 OFFCURVE",
"426 457 CURVE",
"413 433 OFFCURVE",
"400 401 OFFCURVE",
"386 359 CURVE SMOOTH",
"373 321 OFFCURVE",
"360 286 OFFCURVE",
"349 257 CURVE SMOOTH",
"338 231 OFFCURVE",
"323 206 OFFCURVE",
"303 180 CURVE SMOOTH",
"284 155 OFFCURVE",
"264 134 OFFCURVE",
"243 116 CURVE",
"227 124 OFFCURVE",
"209 129 OFFCURVE",
"193 131 CURVE",
"177 135 OFFCURVE",
"159 137 OFFCURVE",
"143 137 CURVE SMOOTH",
"134 137 LINE SMOOTH",
"131 137 OFFCURVE",
"118 136 OFFCURVE",
"96 134 CURVE",
"74 130 OFFCURVE",
"52 129 OFFCURVE",
"31 120 CURVE",
"9 112 OFFCURVE",
"-4 102 OFFCURVE",
"-8 91 CURVE",
"-14 69 LINE",
"-14 57 LINE SMOOTH",
"-14 47 OFFCURVE",
"-13 39 OFFCURVE",
"-8 30 CURVE SMOOTH",
"-3 21 OFFCURVE",
"6 14 OFFCURVE",
"19 9 CURVE SMOOTH",
"34 4 OFFCURVE",
"51 0 OFFCURVE",
"71 0 CURVE SMOOTH"
);
},
{
closed = 1;
nodes = (
"79 35 OFFCURVE",
"69 36 OFFCURVE",
"62 40 CURVE",
"53 44 OFFCURVE",
"47 50 OFFCURVE",
"43 56 CURVE",
"37 62 OFFCURVE",
"34 69 OFFCURVE",
"34 75 CURVE SMOOTH",
"34 81 OFFCURVE",
"37 86 OFFCURVE",
"41 90 CURVE",
"46 97 OFFCURVE",
"53 104 OFFCURVE",
"63 107 CURVE SMOOTH",
"73 111 OFFCURVE",
"83 114 OFFCURVE",
"93 114 CURVE SMOOTH",
"107 114 OFFCURVE",
"126 110 OFFCURVE",
"148 102 CURVE SMOOTH",
"208 82 LINE",
"187 65 OFFCURVE",
"174 55 OFFCURVE",
"170 54 CURVE",
"167 50 OFFCURVE",
"159 47 OFFCURVE",
"148 45 CURVE SMOOTH",
"118 37 LINE",
"108 36 OFFCURVE",
"99 35 OFFCURVE",
"91 35 CURVE SMOOTH"
);
},
{
closed = 1;
nodes = (
"582 428 OFFCURVE",
"565 429 OFFCURVE",
"546 431 CURVE",
"527 434 OFFCURVE",
"511 436 OFFCURVE",
"487 442 CURVE",
"551 543 LINE SMOOTH",
"574 578 OFFCURVE",
"600 608 OFFCURVE",
"629 631 CURVE SMOOTH",
"660 658 OFFCURVE",
"696 676 OFFCURVE",
"735 685 CURVE SMOOTH",
"746 688 OFFCURVE",
"755 689 OFFCURVE",
"763 689 CURVE SMOOTH",
"783 689 OFFCURVE",
"799 684 OFFCURVE",
"812 673 CURVE",
"823 661 OFFCURVE",
"829 654 OFFCURVE",
"832 648 CURVE",
"836 641 OFFCURVE",
"837 635 OFFCURVE",
"837 626 CURVE SMOOTH",
"837 618 OFFCURVE",
"836 610 OFFCURVE",
"833 603 CURVE",
"832 594 OFFCURVE",
"827 575 OFFCURVE",
"818 547 CURVE",
"811 518 OFFCURVE",
"787 492 OFFCURVE",
"746 466 CURVE SMOOTH",
"706 441 OFFCURVE",
"658 428 OFFCURVE",
"602 428 CURVE SMOOTH"
);
}
);
};
layerId = "0B1DFD06-3317-40CA-B510-4969A0718C16";
paths = (
{
closed = 1;
nodes = (
"150 19 OFFCURVE",
"66 19 CURVE SMOOTH",
"29 19 OFFCURVE",
"7 33 OFFCURVE",
"7 57 CURVE SMOOTH",
"7 93 OFFCURVE",
"43 119 OFFCURVE",
"91 119 CURVE SMOOTH",
"183 119 OFFCURVE",
"318 0 OFFCURVE",
"437 0 CURVE SMOOTH",
"523 0 OFFCURVE",
"584 28 OFFCURVE",
"648 95 CURVE",
"576 50 OFFCURVE",
"516 31 OFFCURVE",
"444 31 CURVE SMOOTH",
"325 31 OFFCURVE",
"219 148 OFFCURVE",
"99 148 CURVE SMOOTH",
"32 148 OFFCURVE",
"-31 112 OFFCURVE",
"-31 51 CURVE SMOOTH",
"-31 13 OFFCURVE",
"2 -10 OFFCURVE",
"59 -10 CURVE SMOOTH",
"166 -10 OFFCURVE",
"270 110 OFFCURVE",
"317 298 CURVE SMOOTH",
"353 441 LINE SMOOTH",
"391 594 OFFCURVE",
"475 679 OFFCURVE",
"577 679 CURVE SMOOTH",
"634 679 OFFCURVE",
"677 664 OFFCURVE",
"693 641 CURVE",
"689 518 OFFCURVE",
"626 436 OFFCURVE",
"512 436 CURVE SMOOTH",
"392 436 OFFCURVE",
"301 491 OFFCURVE",
"236 584 CURVE",
"287 475 OFFCURVE",
"366 405 OFFCURVE",
"505 405 CURVE SMOOTH",
"632 405 OFFCURVE",
"728 495 OFFCURVE",
"728 618 CURVE SMOOTH",
"728 625 OFFCURVE",
"727 635 OFFCURVE",
"726 641 CURVE",
"705 683 OFFCURVE",
"653 710 OFFCURVE",
"585 710 CURVE SMOOTH",
"459 710 OFFCURVE",
"358 614 OFFCURVE",
"315 441 CURVE SMOOTH",
"279 298 LINE SMOOTH",
"236 127 OFFCURVE"
);
}
);
width = 695;
}
);
note = L;
unicode = 004C;
},
{
color = 1;
glyphname = M;
lastChange = "2018-07-19 12:45:06 +0000";
layers = (
{
anchors = (
{
name = bottom;
position = "{475, 0}";
},
{
name = top;
position = "{650, 700}";
}
);
background = {
paths = (
{
closed = 1;
nodes = (
"1031 -16 OFFCURVE",
"1052 -9 OFFCURVE",
"1069 5 CURVE",
"1117 50 LINE",
"1118 52 OFFCURVE",
"1117 56 OFFCURVE",
"1115 60 CURVE SMOOTH",
"1113 64 OFFCURVE",
"1108 69 OFFCURVE",
"1103 72 CURVE",
"1077 36 LINE SMOOTH",
"1067 21 OFFCURVE",
"1052 14 OFFCURVE",
"1032 14 CURVE SMOOTH",
"1031 14 OFFCURVE",
"1024 15 OFFCURVE",
"1015 16 CURVE SMOOTH",
"1005 17 OFFCURVE",
"996 21 OFFCURVE",
"986 30 CURVE SMOOTH",
"974 39 OFFCURVE",
"962 54 OFFCURVE",
"951 72 CURVE SMOOTH",
"938 92 OFFCURVE",
"926 114 OFFCURVE",
"915 136 CURVE SMOOTH",
"886 195 OFFCURVE",
"869 248 OFFCURVE",
"862 300 CURVE SMOOTH",
"858 349 OFFCURVE",
"859 396 OFFCURVE",
"868 438 CURVE SMOOTH",
"877 482 OFFCURVE",
"892 530 OFFCURVE",
"912 583 CURVE",
"947 583 LINE SMOOTH",
"997 583 OFFCURVE",
"1037 588 OFFCURVE",
"1067 597 CURVE",
"1096 607 OFFCURVE",
"1113 620 OFFCURVE",
"1117 639 CURVE",
"1121 658 OFFCURVE",
"1121 669 OFFCURVE",
"1118 675 CURVE SMOOTH",
"1114 683 OFFCURVE",
"1110 689 OFFCURVE",
"1104 693 CURVE",
"1097 699 OFFCURVE",
"1092 701 OFFCURVE",
"1089 701 CURVE",
"1072 705 LINE",
"1054 705 LINE SMOOTH",
"1037 705 OFFCURVE",
"1021 701 OFFCURVE",
"1005 695 CURVE",
"964 669 LINE",
"947 660 OFFCURVE",
"936 651 OFFCURVE",
"927 643 CURVE SMOOTH",
"917 633 OFFCURVE",
"906 619 OFFCURVE",
"896 600 CURVE",
"873 605 OFFCURVE",
"824 619 OFFCURVE",
"745 640 CURVE SMOOTH",
"666 663 OFFCURVE",
"602 679 OFFCURVE",
"552 689 CURVE SMOOTH",
"503 700 OFFCURVE",
"454 705 OFFCURVE",
"408 705 CURVE SMOOTH",
"381 705 OFFCURVE",
"356 703 OFFCURVE",
"332 698 CURVE SMOOTH",
"308 693 OFFCURVE",
"287 685 OFFCURVE",
"268 675 CURVE",
"231 658 OFFCURVE",
"205 628 OFFCURVE",
"188 585 CURVE SMOOTH",
"173 544 OFFCURVE",
"177 499 OFFCURVE",
"200 453 CURVE",
"182 453 OFFCURVE",
"171 454 OFFCURVE",
"161 456 CURVE SMOOTH",
"152 457 OFFCURVE",
"140 461 OFFCURVE",
"127 464 CURVE SMOOTH",
"113 468 OFFCURVE",
"100 474 OFFCURVE",
"89 482 CURVE",
"79 490 OFFCURVE",
"71 498 OFFCURVE",
"68 505 CURVE SMOOTH",
"66 509 OFFCURVE",
"65 517 OFFCURVE",
"66 525 CURVE",
"65 535 OFFCURVE",
"72 542 OFFCURVE",
"84 544 CURVE",
"96 548 OFFCURVE",
"115 549 OFFCURVE",
"140 549 CURVE SMOOTH",
"154 549 LINE SMOOTH",
"160 549 OFFCURVE",
"165 549 OFFCURVE",
"167 550 CURVE",
"142 563 OFFCURVE",
"116 569 OFFCURVE",
"91 569 CURVE SMOOTH",
"71 569 OFFCURVE",
"56 565 OFFCURVE",
"43 559 CURVE",
"32 553 OFFCURVE",
"24 547 OFFCURVE",
"20 539 CURVE",
"18 530 OFFCURVE",
"18 522 OFFCURVE",
"23 513 CURVE SMOOTH",
"25 509 OFFCURVE",
"28 505 OFFCURVE",
"38 492 CURVE",
"48 480 OFFCURVE",
"66 468 OFFCURVE",
"95 456 CURVE",
"123 444 OFFCURVE",
"161 438 OFFCURVE",
"210 438 CURVE",
"228 412 OFFCURVE",
"250 389 OFFCURVE",
"274 371 CURVE",
"299 352 OFFCURVE",
"327 337 OFFCURVE",
"353 326 CURVE",
"348 232 LINE",
"334 124 LINE SMOOTH",
"328 80 OFFCURVE",
"324 42 OFFCURVE",
"320 7 CURVE",
"338 2 OFFCURVE",
"357 0 OFFCURVE",
"377 0 CURVE SMOOTH",
"395 0 OFFCURVE",
"413 1 OFFCURVE",
"431 4 CURVE",
"418 56 OFFCURVE",
"410 107 OFFCURVE",
"406 158 CURVE SMOOTH",
"400 210 OFFCURVE",
"400 263 OFFCURVE",
"400 322 CURVE",
"455 322 OFFCURVE",
"503 332 OFFCURVE",
"541 353 CURVE SMOOTH",
"579 374 OFFCURVE",
"610 404 OFFCURVE",
"633 443 CURVE",
"627 409 OFFCURVE",
"623 366 OFFCURVE",
"619 307 CURVE SMOOTH",
"617 248 OFFCURVE",
"615 191 OFFCURVE",
"610 132 CURVE SMOOTH",
"608 74 OFFCURVE",
"603 32 OFFCURVE",
"598 4 CURVE",
"616 1 OFFCURVE",
"630 0 OFFCURVE",
"637 0 CURVE SMOOTH",
"685 0 LINE",
"718 4 LINE",
"699 67 OFFCURVE",
"683 129 OFFCURVE",
"677 187 CURVE SMOOTH",
"668 246 OFFCURVE",
"662 308 OFFCURVE",
"660 378 CURVE SMOOTH",
"659 448 OFFCURVE",
"655 514 OFFCURVE",
"655 575 CURVE",
"633 508 LINE SMOOTH",
"626 484 OFFCURVE",
"618 466 OFFCURVE",
"609 447 CURVE",
"592 423 OFFCURVE",
"579 404 OFFCURVE",
"563 389 CURVE SMOOTH",
"548 374 OFFCURVE",
"529 362 OFFCURVE",
"507 351 CURVE SMOOTH",
"486 341 OFFCURVE",
"461 336 OFFCURVE",
"433 336 CURVE SMOOTH",
"419 336 OFFCURVE",
"408 337 OFFCURVE",
"397 338 CURVE",
"394 363 OFFCURVE",
"391 392 OFFCURVE",
"391 426 CURVE SMOOTH",
"393 524 LINE SMOOTH",
"393 557 OFFCURVE",
"392 585 OFFCURVE",
"388 610 CURVE",
"375 570 OFFCURVE",
"351 537 OFFCURVE",
"321 508 CURVE SMOOTH",
"291 480 OFFCURVE",
"255 463 OFFCURVE",
"210 457 CURVE",
"202 472 OFFCURVE",
"198 483 OFFCURVE",
"196 489 CURVE",
"194 494 OFFCURVE",
"193 514 OFFCURVE",
"195 549 CURVE",
"194 583 OFFCURVE",
"214 610 OFFCURVE",
"249 633 CURVE SMOOTH",
"284 655 OFFCURVE",
"334 666 OFFCURVE",
"398 666 CURVE SMOOTH",
"434 666 OFFCURVE",
"475 663 OFFCURVE",
"521 655 CURVE SMOOTH",
"567 646 OFFCURVE",
"621 636 OFFCURVE",
"686 623 CURVE SMOOTH",
"804 597 LINE",
"854 589 LINE",
"873 588 OFFCURVE",
"884 585 OFFCURVE",
"894 584 CURVE",
"840 428 LINE SMOOTH",
"823 373 OFFCURVE",
"815 317 OFFCURVE",
"816 260 CURVE SMOOTH",
"817 203 OFFCURVE",
"833 142 OFFCURVE",
"866 76 CURVE SMOOTH",
"875 57 OFFCURVE",
"889 40 OFFCURVE",
"906 24 CURVE SMOOTH",
"921 10 OFFCURVE",
"936 0 OFFCURVE",
"952 -6 CURVE",
"984 -15 LINE SMOOTH",
"989 -16 OFFCURVE",
"996 -16 OFFCURVE",
"1006 -16 CURVE SMOOTH"
);
},
{
closed = 1;
nodes = (
"331 351 OFFCURVE",
"308 362 OFFCURVE",
"283 381 CURVE SMOOTH",
"257 399 OFFCURVE",
"237 419 OFFCURVE",
"222 438 CURVE",
"241 439 OFFCURVE",
"255 443 OFFCURVE",
"267 447 CURVE",
"279 452 OFFCURVE",
"293 457 OFFCURVE",
"307 466 CURVE",
"323 473 OFFCURVE",
"335 482 OFFCURVE",
"344 493 CURVE",
"354 503 OFFCURVE",
"363 514 OFFCURVE",
"370 528 CURVE",
"361 493 OFFCURVE",
"357 454 OFFCURVE",
"354 416 CURVE",
"354 376 OFFCURVE",
"354 352 OFFCURVE",
"353 344 CURVE"
);
},
{
closed = 1;
nodes = (
"949 592 OFFCURVE",
"941 592 OFFCURVE",
"932 593 CURVE",
"927 593 OFFCURVE",
"922 594 OFFCURVE",
"916 595 CURVE",
"926 612 LINE SMOOTH",
"940 633 OFFCURVE",
"957 648 OFFCURVE",
"974 656 CURVE SMOOTH",
"992 666 OFFCURVE",
"1014 671 OFFCURVE",
"1040 671 CURVE SMOOTH",
"1049 671 OFFCURVE",
"1057 666 OFFCURVE",
"1063 656 CURVE",
"1070 646 OFFCURVE",
"1072 638 OFFCURVE",
"1068 630 CURVE",
"1066 622 OFFCURVE",
"1056 613 OFFCURVE",
"1040 604 CURVE SMOOTH",
"1024 595 OFFCURVE",
"996 592 OFFCURVE",
"958 592 CURVE SMOOTH"
);
}
);
};
layerId = "0B1DFD06-3317-40CA-B510-4969A0718C16";
paths = (
{
closed = 1;
nodes = (
"991 -10 OFFCURVE",
"1029 16 OFFCURVE",
"1053 59 CURVE",
"1025 32 OFFCURVE",
"990 19 OFFCURVE",
"955 19 CURVE SMOOTH",
"882 19 OFFCURVE",
"843 74 OFFCURVE",
"843 168 CURVE SMOOTH",
"843 344 OFFCURVE",
"974 681 OFFCURVE",
"1122 681 CURVE SMOOTH",
"1149 681 OFFCURVE",
"1162 671 OFFCURVE",
"1162 656 CURVE SMOOTH",
"1162 625 OFFCURVE",
"1122 594 OFFCURVE",
"1026 594 CURVE SMOOTH",
"845 594 OFFCURVE",
"702 710 OFFCURVE",
"509 710 CURVE SMOOTH",
"341 710 OFFCURVE",
"215 609 OFFCURVE",
"215 451 CURVE SMOOTH",
"215 430 OFFCURVE",
"218 412 OFFCURVE",
"224 396 CURVE",
"244 355 OFFCURVE",
"293 323 OFFCURVE",
"373 323 CURVE SMOOTH",
"476 323 OFFCURVE",
"558 371 OFFCURVE",
"639 444 CURVE",
"643 442 LINE",
"628 402 OFFCURVE",
"618 368 OFFCURVE",
"606 318 CURVE SMOOTH",
"550 92 LINE SMOOTH",
"536 36 OFFCURVE",
"529 18 OFFCURVE",
"515 0 CURVE",
"577 0 LINE",
"573 12 OFFCURVE",
"577 48 OFFCURVE",
"588 92 CURVE SMOOTH",
"698 533 LINE",
"690 533 LINE",
"600 435 OFFCURVE",
"500 353 OFFCURVE",
"382 353 CURVE SMOOTH",
"324 353 OFFCURVE",
"275 372 OFFCURVE",
"250 401 CURVE",
"249 410 OFFCURVE",
"249 419 OFFCURVE",
"249 429 CURVE SMOOTH",
"249 579 OFFCURVE",
"342 680 OFFCURVE",
"501 680 CURVE SMOOTH",
"675 680 OFFCURVE",
"826 566 OFFCURVE",
"1016 566 CURVE SMOOTH",
"1109 566 OFFCURVE",
"1202 597 OFFCURVE",
"1202 666 CURVE SMOOTH",
"1202 693 OFFCURVE",
"1180 710 OFFCURVE",
"1135 710 CURVE SMOOTH",
"952 710 OFFCURVE",
"802 373 OFFCURVE",
"802 157 CURVE SMOOTH",
"802 52 OFFCURVE",
"847 -10 OFFCURVE",
"930 -10 CURVE SMOOTH"
);
},
{
closed = 1;
nodes = (
"319 0 LINE",
"315 12 OFFCURVE",
"319 48 OFFCURVE",
"330 92 CURVE SMOOTH",
"460 613 LINE",
"452 613 LINE",
"362 515 OFFCURVE",
"294 459 OFFCURVE",
"189 459 CURVE SMOOTH",
"124 459 OFFCURVE",
"96 477 OFFCURVE",
"96 503 CURVE SMOOTH",
"96 526 OFFCURVE",
"116 547 OFFCURVE",
"147 547 CURVE SMOOTH",
"159 547 OFFCURVE",
"176 544 OFFCURVE",
"191 529 CURVE",
"192 559 OFFCURVE",
"175 576 OFFCURVE",
"141 576 CURVE SMOOTH",
"92 576 OFFCURVE",
"57 539 OFFCURVE",
"57 495 CURVE SMOOTH",
"57 455 OFFCURVE",
"95.997 428 OFFCURVE",
"177 428 CURVE SMOOTH",
"269 428 OFFCURVE",
"347 471 OFFCURVE",
"401 524 CURVE",
"405 522 LINE",
"390 482 OFFCURVE",
"380 448 OFFCURVE",
"368 398 CURVE SMOOTH",
"292 92 LINE SMOOTH",
"278 36 OFFCURVE",
"271 18 OFFCURVE",
"257 0 CURVE"
);
}
);
width = 1067;
},
{
associatedMasterId = "0B1DFD06-3317-40CA-B510-4969A0718C16";
layerId = "674D77B6-7D37-4556-AD23-F109617230F6";
name = "Jul 14 18, 15:38";
paths = (
{
closed = 1;
nodes = (
"800 -16 OFFCURVE",
"825 -9 OFFCURVE",
"849 5 CURVE",
"919 50 LINE",
"921 52 OFFCURVE",
"922 56 OFFCURVE",
"922 60 CURVE SMOOTH",
"922 64 OFFCURVE",
"920 69 OFFCURVE",
"916 72 CURVE",
"872 36 LINE SMOOTH",
"855 21 OFFCURVE",
"836 14 OFFCURVE",
"816 14 CURVE SMOOTH",
"815 14 OFFCURVE",
"809 15 OFFCURVE",
"800 16 CURVE SMOOTH",
"791 17 OFFCURVE",
"784 21 OFFCURVE",
"778 30 CURVE SMOOTH",
"771 39 OFFCURVE",
"766 54 OFFCURVE",
"764 72 CURVE SMOOTH",
"761 92 OFFCURVE",
"760 114 OFFCURVE",
"760 136 CURVE SMOOTH",
"760 195 OFFCURVE",
"770 248 OFFCURVE",
"789 300 CURVE SMOOTH",
"809 349 OFFCURVE",
"834 396 OFFCURVE",
"864 438 CURVE SMOOTH",
"895 482 OFFCURVE",
"934 530 OFFCURVE",
"980 583 CURVE",
"1015 583 LINE SMOOTH",
"1065 583 OFFCURVE",
"1107 588 OFFCURVE",
"1142 597 CURVE",
"1176 607 OFFCURVE",
"1199 620 OFFCURVE",
"1213 639 CURVE",
"1226 658 OFFCURVE",
"1232 669 OFFCURVE",
"1232 675 CURVE SMOOTH",
"1232 683 OFFCURVE",
"1231 689 OFFCURVE",
"1227 693 CURVE",
"1223 699 OFFCURVE",
"1219 701 OFFCURVE",
"1216 701 CURVE",
"1201 705 LINE",
"1183 705 LINE SMOOTH",
"1166 705 OFFCURVE",
"1148 701 OFFCURVE",
"1129 695 CURVE",
"1075 669 LINE",
"1053 660 OFFCURVE",
"1038 651 OFFCURVE",
"1025 643 CURVE SMOOTH",
"1010 633 OFFCURVE",
"992 619 OFFCURVE",
"972 600 CURVE",
"952 605 OFFCURVE",
"910 619 OFFCURVE",
"841 640 CURVE SMOOTH",
"774 663 OFFCURVE",
"718 679 OFFCURVE",
"673 689 CURVE SMOOTH",
"629 700 OFFCURVE",
"583 705 OFFCURVE",
"537 705 CURVE SMOOTH",
"510 705 OFFCURVE",
"484 703 OFFCURVE",
"457 698 CURVE SMOOTH",
"431 693 OFFCURVE",
"406 685 OFFCURVE",
"382 675 CURVE",
"336 658 OFFCURVE",
"295 628 OFFCURVE",
"257 585 CURVE SMOOTH",
"221 544 OFFCURVE",
"203 499 OFFCURVE",
"203 453 CURVE",
"185 453 OFFCURVE",
"175 454 OFFCURVE",
"166 456 CURVE SMOOTH",
"157 457 OFFCURVE",
"147 461 OFFCURVE",
"136 464 CURVE SMOOTH",
"124 468 OFFCURVE",
"114 474 OFFCURVE",
"107 482 CURVE",
"101 490 OFFCURVE",
"97 498 OFFCURVE",
"97 505 CURVE SMOOTH",
"97 509 OFFCURVE",
"100 517 OFFCURVE",
"105 525 CURVE",
"109 535 OFFCURVE",
"119 542 OFFCURVE",
"132 544 CURVE",
"146 548 OFFCURVE",
"166 549 OFFCURVE",
"191 549 CURVE SMOOTH",
"205 549 LINE SMOOTH",
"211 549 OFFCURVE",
"216 549 OFFCURVE",
"218 550 CURVE",
"200 563 OFFCURVE",
"177 569 OFFCURVE",
"152 569 CURVE SMOOTH",
"132 569 OFFCURVE",
"115 565 OFFCURVE",
"99 559 CURVE",
"85 553 OFFCURVE",
"74 547 OFFCURVE",
"66 539 CURVE",
"60 530 OFFCURVE",
"56 522 OFFCURVE",
"56 513 CURVE SMOOTH",
"56 509 OFFCURVE",
"57 505 OFFCURVE",
"61 492 CURVE",
"65 480 OFFCURVE",
"77 468 OFFCURVE",
"100 456 CURVE",
"122 444 OFFCURVE",
"157 438 OFFCURVE",
"206 438 CURVE",
"211 412 OFFCURVE",
"221 389 OFFCURVE",
"236 371 CURVE",
"252 352 OFFCURVE",
"272 337 OFFCURVE",
"293 326 CURVE",
"241 232 LINE",
"173 124 LINE SMOOTH",
"145 80 OFFCURVE",
"122 42 OFFCURVE",
"101 7 CURVE",
"116 2 OFFCURVE",
"134 0 OFFCURVE",
"154 0 CURVE SMOOTH",
"172 0 OFFCURVE",
"191 1 OFFCURVE",
"210 4 CURVE",
"223 56 OFFCURVE",
"241 107 OFFCURVE",
"262 158 CURVE SMOOTH",
"282 210 OFFCURVE",
"308 263 OFFCURVE",
"338 322 CURVE",
"393 322 OFFCURVE",
"446 332 OFFCURVE",
"494 353 CURVE SMOOTH",
"543 374 OFFCURVE",
"589 404 OFFCURVE",
"631 443 CURVE",
"608 409 OFFCURVE",
"583 366 OFFCURVE",
"549 307 CURVE SMOOTH",
"518 248 OFFCURVE",
"487 191 OFFCURVE",
"453 132 CURVE SMOOTH",
"422 74 OFFCURVE",
"396 32 OFFCURVE",
"377 4 CURVE",
"394 1 OFFCURVE",
"407 0 OFFCURVE",
"414 0 CURVE SMOOTH",
"462 0 LINE",
"497 4 LINE",
"510 67 OFFCURVE",
"525 129 OFFCURVE",
"547 187 CURVE SMOOTH",
"568 246 OFFCURVE",
"593 308 OFFCURVE",
"626 378 CURVE SMOOTH",
"660 448 OFFCURVE",
"689 514 OFFCURVE",
"719 575 CURVE",
"664 508 LINE SMOOTH",
"645 484 OFFCURVE",
"628 466 OFFCURVE",
"609 447 CURVE",
"580 423 OFFCURVE",
"558 404 OFFCURVE",
"534 389 CURVE SMOOTH",
"512 374 OFFCURVE",
"487 362 OFFCURVE",
"459 351 CURVE SMOOTH",
"433 341 OFFCURVE",
"406 336 OFFCURVE",
"378 336 CURVE SMOOTH",
"364 336 OFFCURVE",
"353 337 OFFCURVE",
"343 338 CURVE",
"352 363 OFFCURVE",
"364 392 OFFCURVE",
"381 426 CURVE SMOOTH",
"432 524 LINE SMOOTH",
"448 557 OFFCURVE",
"461 585 OFFCURVE",
"469 610 CURVE",
"436 570 OFFCURVE",
"396 537 OFFCURVE",
"352 508 CURVE SMOOTH",
"308 480 OFFCURVE",
"263 463 OFFCURVE",
"215 457 CURVE",
"215 472 OFFCURVE",
"216 483 OFFCURVE",
"217 489 CURVE",
"218 494 OFFCURVE",
"227 514 OFFCURVE",
"246 549 CURVE",
"262 583 OFFCURVE",
"295 610 OFFCURVE",
"342 633 CURVE SMOOTH",
"388 655 OFFCURVE",
"443 666 OFFCURVE",
"507 666 CURVE SMOOTH",
"543 666 OFFCURVE",
"583 663 OFFCURVE",
"625 655 CURVE SMOOTH",
"666 646 OFFCURVE",
"715 636 OFFCURVE",
"774 623 CURVE SMOOTH",
"879 597 LINE",
"925 589 LINE",
"943 588 OFFCURVE",
"953 585 OFFCURVE",
"962 584 CURVE",
"831 428 LINE SMOOTH",
"786 373 OFFCURVE",
"750 317 OFFCURVE",
"723 260 CURVE SMOOTH",
"695 203 OFFCURVE",
"681 142 OFFCURVE",
"681 76 CURVE SMOOTH",
"681 57 OFFCURVE",
"686 40 OFFCURVE",
"695 24 CURVE SMOOTH",
"703 10 OFFCURVE",
"713 0 OFFCURVE",
"726 -6 CURVE",
"754 -15 LINE SMOOTH",
"758 -16 OFFCURVE",
"765 -16 OFFCURVE",
"775 -16 CURVE SMOOTH"
);
},
{
closed = 1;
nodes = (
"283 351 OFFCURVE",
"266 362 OFFCURVE",
"250 381 CURVE SMOOTH",
"233 399 OFFCURVE",
"223 419 OFFCURVE",
"218 438 CURVE",
"237 439 OFFCURVE",
"253 443 OFFCURVE",
"267 447 CURVE",
"282 452 OFFCURVE",
"298 457 OFFCURVE",
"317 466 CURVE",
"336 473 OFFCURVE",
"353 482 OFFCURVE",
"367 493 CURVE",
"382 503 OFFCURVE",
"397 514 OFFCURVE",
"411 528 CURVE",
"384 493 OFFCURVE",
"361 454 OFFCURVE",
"339 416 CURVE",
"319 376 OFFCURVE",
"307 352 OFFCURVE",
"302 344 CURVE"
);
},
{
closed = 1;
nodes = (
"1021 592 OFFCURVE",
"1013 592 OFFCURVE",
"1005 593 CURVE",
"1000 593 OFFCURVE",
"995 594 OFFCURVE",
"990 595 CURVE",
"1008 612 LINE SMOOTH",
"1033 633 OFFCURVE",
"1057 648 OFFCURVE",
"1078 656 CURVE SMOOTH",
"1101 666 OFFCURVE",
"1126 671 OFFCURVE",
"1152 671 CURVE SMOOTH",
"1161 671 OFFCURVE",
"1166 666 OFFCURVE",
"1167 656 CURVE",
"1169 646 OFFCURVE",
"1167 638 OFFCURVE",
"1159 630 CURVE",
"1153 622 OFFCURVE",
"1139 613 OFFCURVE",
"1118 604 CURVE SMOOTH",
"1098 595 OFFCURVE",
"1068 592 OFFCURVE",
"1030 592 CURVE SMOOTH"
);
}
);
width = 997;
}
);
note = M;
unicode = 004D;
},
{
color = 1;
glyphname = N;
lastChange = "2018-07-19 12:45:06 +0000";
layers = (
{
anchors = (
{
name = bottom;
position = "{358, 0}";
},
{
name = top;
position = "{533, 700}";
}
);
background = {
paths = (
{
closed = 1;
nodes = (
"815 -5 OFFCURVE",
"827 -2 OFFCURVE",
"836 2 CURVE",
"848 7 OFFCURVE",
"856 15 OFFCURVE",
"865 25 CURVE SMOOTH",
"874 35 OFFCURVE",
"880 42 OFFCURVE",
"882 49 CURVE",
"883 52 OFFCURVE",
"883 62 OFFCURVE",
"881 77 CURVE",
"875 67 OFFCURVE",
"866 57 OFFCURVE",
"858 46 CURVE SMOOTH",
"847 34 OFFCURVE",
"833 27 OFFCURVE",
"814 27 CURVE SMOOTH",
"804 27 LINE SMOOTH",
"792 27 OFFCURVE",
"776 34 OFFCURVE",
"763 45 CURVE",
"749 56 OFFCURVE",
"737 71 OFFCURVE",
"725 90 CURVE",
"714 109 OFFCURVE",
"705 125 OFFCURVE",
"697 141 CURVE SMOOTH",
"669 197 OFFCURVE",
"652 251 OFFCURVE",
"647 303 CURVE SMOOTH",
"640 357 OFFCURVE",
"644 406 OFFCURVE",
"652 452 CURVE",
"663 497 OFFCURVE",
"677 545 OFFCURVE",
"698 594 CURVE",
"718 588 OFFCURVE",
"736 584 OFFCURVE",
"753 584 CURVE SMOOTH",
"772 584 OFFCURVE",
"791 588 OFFCURVE",
"812 595 CURVE",
"833 602 OFFCURVE",
"850 610 OFFCURVE",
"869 620 CURVE SMOOTH",
"886 629 OFFCURVE",
"886 648 OFFCURVE",
"872 676 CURVE SMOOTH",
"868 685 OFFCURVE",
"862 690 OFFCURVE",
"854 694 CURVE SMOOTH",
"846 698 OFFCURVE",
"836 700 OFFCURVE",
"826 700 CURVE SMOOTH",
"818 700 OFFCURVE",
"810 699 OFFCURVE",
"803 696 CURVE",
"796 695 OFFCURVE",
"786 691 OFFCURVE",
"774 688 CURVE SMOOTH",
"755 681 OFFCURVE",
"736 668 OFFCURVE",
"719 649 CURVE SMOOTH",
"699 630 OFFCURVE",
"688 618 OFFCURVE",
"681 613 CURVE",
"512 663 LINE SMOOTH",
"453 679 OFFCURVE",
"400 688 OFFCURVE",
"359 688 CURVE SMOOTH",
"304 688 OFFCURVE",
"263 674 OFFCURVE",
"233 646 CURVE SMOOTH",
"201 619 OFFCURVE",
"181 582 OFFCURVE",
"175 534 CURVE",
"148 543 OFFCURVE",
"121 548 OFFCURVE",
"96 548 CURVE SMOOTH",
"77 548 OFFCURVE",
"63 545 OFFCURVE",
"50 540 CURVE SMOOTH",
"38 535 OFFCURVE",
"30 528 OFFCURVE",
"24 519 CURVE",
"20 510 OFFCURVE",
"20 502 OFFCURVE",
"25 492 CURVE SMOOTH",
"27 488 OFFCURVE",
"35 478 OFFCURVE",
"48 463 CURVE",
"61 447 OFFCURVE",
"82 436 OFFCURVE",
"110 429 CURVE",
"138 421 OFFCURVE",
"171 419 OFFCURVE",
"212 419 CURVE",
"243 388 LINE SMOOTH",
"253 377 OFFCURVE",
"265 368 OFFCURVE",
"275 359 CURVE",
"285 352 OFFCURVE",
"297 346 OFFCURVE",
"309 339 CURVE",
"322 334 OFFCURVE",
"333 327 OFFCURVE",
"350 321 CURVE",
"343 265 OFFCURVE",
"339 211 OFFCURVE",
"337 157 CURVE SMOOTH",
"333 -2 LINE",
"339 -2 OFFCURVE",
"354 -2 OFFCURVE",
"383 -1 CURVE SMOOTH",
"408 0 OFFCURVE",
"427 2 OFFCURVE",
"438 6 CURVE",
"423 51 OFFCURVE",
"411 100 OFFCURVE",
"407 152 CURVE SMOOTH",
"401 206 OFFCURVE",
"397 256 OFFCURVE",
"392 305 CURVE",
"427 305 OFFCURVE",
"456 317 OFFCURVE",
"476 343 CURVE",
"501 368 OFFCURVE",
"508 397 OFFCURVE",
"499 429 CURVE",
"496 429 LINE",
"495 399 OFFCURVE",
"485 373 OFFCURVE",
"467 352 CURVE",
"451 331 OFFCURVE",
"425 321 OFFCURVE",
"391 321 CURVE",
"392 362 OFFCURVE",
"393 407 OFFCURVE",
"392 458 CURVE SMOOTH",
"392 508 OFFCURVE",
"389 557 OFFCURVE",
"387 603 CURVE",
"376 603 LINE",
"368 557 OFFCURVE",
"349 518 OFFCURVE",
"322 488 CURVE SMOOTH",
"296 458 OFFCURVE",
"259 443 OFFCURVE",
"213 443 CURVE",
"208 454 OFFCURVE",
"203 466 OFFCURVE",
"203 474 CURVE",
"199 485 OFFCURVE",
"197 507 OFFCURVE",
"199 535 CURVE",
"198 565 OFFCURVE",
"215 590 OFFCURVE",
"254 609 CURVE SMOOTH",
"293 626 OFFCURVE",
"346 635 OFFCURVE",
"412 635 CURVE SMOOTH",
"457 635 OFFCURVE",
"501 631 OFFCURVE",
"542 625 CURVE SMOOTH",
"584 619 OFFCURVE",
"627 612 OFFCURVE",
"679 598 CURVE",
"676 583 OFFCURVE",
"668 560 OFFCURVE",
"654 530 CURVE SMOOTH",
"640 500 OFFCURVE",
"632 473 OFFCURVE",
"627 448 CURVE SMOOTH",
"605 353 LINE SMOOTH",
"598 316 OFFCURVE",
"594 278 OFFCURVE",
"597 240 CURVE",
"598 205 OFFCURVE",
"609 167 OFFCURVE",
"629 126 CURVE SMOOTH",
"639 107 OFFCURVE",
"653 85 OFFCURVE",
"672 57 CURVE",
"691 31 OFFCURVE",
"715 14 OFFCURVE",
"743 6 CURVE SMOOTH",
"771 -1 OFFCURVE",
"790 -5 OFFCURVE",
"801 -5 CURVE SMOOTH"
);
},
{
closed = 1;
nodes = (
"172 443 OFFCURVE",
"152 444 OFFCURVE",
"136 448 CURVE",
"118 452 OFFCURVE",
"104 459 OFFCURVE",
"95 468 CURVE",
"86 477 OFFCURVE",
"81 483 OFFCURVE",
"78 489 CURVE SMOOTH",
"74 498 OFFCURVE",
"72 508 OFFCURVE",
"75 517 CURVE",
"79 524 OFFCURVE",
"86 529 OFFCURVE",
"98 530 CURVE",
"107 534 OFFCURVE",
"117 533 OFFCURVE",
"125 533 CURVE SMOOTH",
"135 533 OFFCURVE",
"143 533 OFFCURVE",
"148 532 CURVE",
"172 528 LINE",
"174 512 OFFCURVE",
"176 497 OFFCURVE",
"180 484 CURVE SMOOTH",
"185 470 OFFCURVE",
"190 457 OFFCURVE",
"197 443 CURVE"
);
},
{
closed = 1;
nodes = (
"327 339 OFFCURVE",
"305 352 OFFCURVE",
"282 368 CURVE SMOOTH",
"256 387 OFFCURVE",
"239 403 OFFCURVE",
"227 419 CURVE",
"253 428 LINE SMOOTH",
"265 432 OFFCURVE",
"275 433 OFFCURVE",
"280 437 CURVE",
"307 456 OFFCURVE",
"326 464 OFFCURVE",
"335 473 CURVE SMOOTH",
"345 482 OFFCURVE",
"354 492 OFFCURVE",
"361 504 CURVE",
"363 468 OFFCURVE",
"363 436 OFFCURVE",
"362 407 CURVE SMOOTH",
"362 378 OFFCURVE",
"359 352 OFFCURVE",
"350 331 CURVE"
);
},
{
closed = 1;
nodes = (
"754 603 OFFCURVE",
"737 605 OFFCURVE",
"719 612 CURVE",
"727 628 OFFCURVE",
"738 640 OFFCURVE",
"747 654 CURVE",
"758 665 OFFCURVE",
"770 670 OFFCURVE",
"786 670 CURVE SMOOTH",
"798 670 OFFCURVE",
"807 668 OFFCURVE",
"820 661 CURVE",
"827 659 OFFCURVE",
"832 655 OFFCURVE",
"835 649 CURVE SMOOTH",
"839 640 OFFCURVE",
"838 634 OFFCURVE",
"832 628 CURVE",
"826 619 OFFCURVE",
"817 614 OFFCURVE",
"806 610 CURVE SMOOTH",
"794 605 OFFCURVE",
"782 603 OFFCURVE",
"770 603 CURVE SMOOTH"
);
}
);
};
layerId = "0B1DFD06-3317-40CA-B510-4969A0718C16";
paths = (
{
closed = 1;
nodes = (
"758 -10 OFFCURVE",
"796 16 OFFCURVE",
"820 59 CURVE",
"792 32 OFFCURVE",
"757 19 OFFCURVE",
"722 19 CURVE SMOOTH",
"649 19 OFFCURVE",
"610 74 OFFCURVE",
"610 168 CURVE SMOOTH",
"610 335 OFFCURVE",
"740 681 OFFCURVE",
"879 681 CURVE SMOOTH",
"907 681 OFFCURVE",
"919 671 OFFCURVE",
"919 654 CURVE SMOOTH",
"919 616 OFFCURVE",
"867 604 OFFCURVE",
"805 604 CURVE SMOOTH",
"664 604 OFFCURVE",
"640 710 OFFCURVE",
"497 710 CURVE SMOOTH",
"330 710 OFFCURVE",
"215 607 OFFCURVE",
"215 447 CURVE SMOOTH",
"215 366 OFFCURVE",
"266 323 OFFCURVE",
"359 323 CURVE SMOOTH",
"432 323 OFFCURVE",
"490 349 OFFCURVE",
"521 412 CURVE",
"486 365 OFFCURVE",
"431 352 OFFCURVE",
"381 352 CURVE SMOOTH",
"297 352 OFFCURVE",
"254 388 OFFCURVE",
"254 456 CURVE SMOOTH",
"254 589 OFFCURVE",
"346 680 OFFCURVE",
"489 680 CURVE SMOOTH",
"613 680 OFFCURVE",
"645 576 OFFCURVE",
"795 576 CURVE SMOOTH",
"881 576 OFFCURVE",
"959 599 OFFCURVE",
"959 666 CURVE SMOOTH",
"959 693 OFFCURVE",
"937 710 OFFCURVE",
"892 710 CURVE SMOOTH",
"717 710 OFFCURVE",
"569 364 OFFCURVE",
"569 157 CURVE SMOOTH",
"569 52 OFFCURVE",
"614 -10 OFFCURVE",
"697 -10 CURVE SMOOTH"
);
},
{
closed = 1;
nodes = (
"319 0 LINE",
"315 12 OFFCURVE",
"319 48 OFFCURVE",
"330 92 CURVE SMOOTH",
"460 613 LINE",
"452 613 LINE",
"362 515 OFFCURVE",
"294 459 OFFCURVE",
"189 459 CURVE SMOOTH",
"124 459 OFFCURVE",
"96 477 OFFCURVE",
"96 503 CURVE SMOOTH",
"96 526 OFFCURVE",
"116 547 OFFCURVE",
"147 547 CURVE SMOOTH",
"159 547 OFFCURVE",
"176 544 OFFCURVE",
"191 529 CURVE",
"192 559 OFFCURVE",
"175 576 OFFCURVE",
"141 576 CURVE SMOOTH",
"92 576 OFFCURVE",
"57 539 OFFCURVE",
"57 495 CURVE SMOOTH",
"57 455 OFFCURVE",
"95.997 428 OFFCURVE",
"177 428 CURVE SMOOTH",
"269 428 OFFCURVE",
"347 471 OFFCURVE",
"401 524 CURVE",
"405 522 LINE",
"390 482 OFFCURVE",
"380 448 OFFCURVE",
"368 398 CURVE SMOOTH",
"292 92 LINE SMOOTH",
"278 36 OFFCURVE",
"271 18 OFFCURVE",
"257 0 CURVE"
);
}
);
width = 834;
},
{
associatedMasterId = "0B1DFD06-3317-40CA-B510-4969A0718C16";
layerId = "1E07D791-D265-4E4E-B6E5-A622756CAD46";
name = "Jul 14 18, 16:44";
paths = (
{
closed = 1;
nodes = (
"579 -5 OFFCURVE",
"593 -2 OFFCURVE",
"604 2 CURVE",
"618 7 OFFCURVE",
"630 15 OFFCURVE",
"644 25 CURVE SMOOTH",
"658 35 OFFCURVE",
"668 42 OFFCURVE",
"673 49 CURVE",
"676 52 OFFCURVE",
"681 62 OFFCURVE",
"686 77 CURVE",
"675 67 OFFCURVE",
"661 57 OFFCURVE",
"648 46 CURVE SMOOTH",
"631 34 OFFCURVE",
"613 27 OFFCURVE",
"594 27 CURVE SMOOTH",
"584 27 LINE SMOOTH",
"572 27 OFFCURVE",
"560 34 OFFCURVE",
"552 45 CURVE",
"544 56 OFFCURVE",
"539 71 OFFCURVE",
"537 90 CURVE",
"535 109 OFFCURVE",
"534 125 OFFCURVE",
"534 141 CURVE SMOOTH",
"534 197 OFFCURVE",
"544 251 OFFCURVE",
"565 303 CURVE SMOOTH",
"585 357 OFFCURVE",
"613 406 OFFCURVE",
"644 452 CURVE",
"678 497 OFFCURVE",
"715 545 OFFCURVE",
"761 594 CURVE",
"778 588 OFFCURVE",
"794 584 OFFCURVE",
"811 584 CURVE SMOOTH",
"830 584 OFFCURVE",
"851 588 OFFCURVE",
"875 595 CURVE",
"900 602 OFFCURVE",
"921 610 OFFCURVE",
"945 620 CURVE SMOOTH",
"966 629 OFFCURVE",
"976 648 OFFCURVE",
"976 676 CURVE SMOOTH",
"976 685 OFFCURVE",
"973 690 OFFCURVE",
"967 694 CURVE SMOOTH",
"961 698 OFFCURVE",
"952 700 OFFCURVE",
"942 700 CURVE SMOOTH",
"934 700 OFFCURVE",
"925 699 OFFCURVE",
"917 696 CURVE",
"909 695 OFFCURVE",
"897 691 OFFCURVE",
"884 688 CURVE SMOOTH",
"861 681 OFFCURVE",
"836 668 OFFCURVE",
"809 649 CURVE SMOOTH",
"780 630 OFFCURVE",
"763 618 OFFCURVE",
"753 613 CURVE",
"609 663 LINE SMOOTH",
"558 679 OFFCURVE",
"510 688 OFFCURVE",
"469 688 CURVE SMOOTH",
"414 688 OFFCURVE",
"366 674 OFFCURVE",
"322 646 CURVE SMOOTH",
"276 619 OFFCURVE",
"238 582 OFFCURVE",
"208 534 CURVE",
"185 543 OFFCURVE",
"161 548 OFFCURVE",
"136 548 CURVE SMOOTH",
"117 548 OFFCURVE",
"101 545 OFFCURVE",
"86 540 CURVE SMOOTH",
"71 535 OFFCURVE",
"60 528 OFFCURVE",
"50 519 CURVE",
"41 510 OFFCURVE",
"37 502 OFFCURVE",
"37 492 CURVE SMOOTH",
"37 488 OFFCURVE",
"40 478 OFFCURVE",
"46 463 CURVE",
"51 447 OFFCURVE",
"66 436 OFFCURVE",
"91 429 CURVE",
"115 421 OFFCURVE",
"147 419 OFFCURVE",
"188 419 CURVE",
"203 388 LINE SMOOTH",
"208 377 OFFCURVE",
"215 368 OFFCURVE",
"221 359 CURVE",
"227 352 OFFCURVE",
"236 346 OFFCURVE",
"245 339 CURVE",
"255 334 OFFCURVE",
"263 327 OFFCURVE",
"277 321 CURVE",
"242 265 OFFCURVE",
"211 211 OFFCURVE",
"182 157 CURVE SMOOTH",
"99 -2 LINE",
"105 -2 OFFCURVE",
"120 -2 OFFCURVE",
"149 -1 CURVE SMOOTH",
"175 0 OFFCURVE",
"195 2 OFFCURVE",
"208 6 CURVE",
"215 51 OFFCURVE",
"228 100 OFFCURVE",
"250 152 CURVE SMOOTH",
"270 206 OFFCURVE",
"291 256 OFFCURVE",
"311 305 CURVE",
"346 305 OFFCURVE",
"381 317 OFFCURVE",
"414 343 CURVE",
"451 368 OFFCURVE",
"473 397 OFFCURVE",
"480 429 CURVE",
"477 429 LINE",
"461 399 OFFCURVE",
"438 373 OFFCURVE",
"409 352 CURVE",
"383 331 OFFCURVE",
"352 321 OFFCURVE",
"318 321 CURVE",
"339 362 OFFCURVE",
"363 407 OFFCURVE",
"387 458 CURVE SMOOTH",
"412 508 OFFCURVE",
"433 557 OFFCURVE",
"454 603 CURVE",
"443 603 LINE",
"412 557 OFFCURVE",
"374 518 OFFCURVE",
"332 488 CURVE SMOOTH",
"291 458 OFFCURVE",
"247 443 OFFCURVE",
"201 443 CURVE",
"201 454 OFFCURVE",
"202 466 OFFCURVE",
"206 474 CURVE",
"208 485 OFFCURVE",
"217 507 OFFCURVE",
"232 535 CURVE",
"246 565 OFFCURVE",
"276 590 OFFCURVE",
"324 609 CURVE SMOOTH",
"372 626 OFFCURVE",
"429 635 OFFCURVE",
"495 635 CURVE SMOOTH",
"540 635 OFFCURVE",
"582 631 OFFCURVE",
"620 625 CURVE SMOOTH",
"659 619 OFFCURVE",
"699 612 OFFCURVE",
"744 598 CURVE",
"733 583 OFFCURVE",
"714 560 OFFCURVE",
"685 530 CURVE SMOOTH",
"656 500 OFFCURVE",
"635 473 OFFCURVE",
"617 448 CURVE SMOOTH",
"548 353 LINE SMOOTH",
"522 316 OFFCURVE",
"499 278 OFFCURVE",
"483 240 CURVE",
"467 205 OFFCURVE",
"459 167 OFFCURVE",
"459 126 CURVE SMOOTH",
"459 107 OFFCURVE",
"462 85 OFFCURVE",
"467 57 CURVE",
"473 31 OFFCURVE",
"489 14 OFFCURVE",
"513 6 CURVE SMOOTH",
"537 -1 OFFCURVE",
"554 -5 OFFCURVE",
"565 -5 CURVE SMOOTH"
);
},
{
closed = 1;
nodes = (
"160 443 OFFCURVE",
"140 444 OFFCURVE",
"126 448 CURVE",
"110 452 OFFCURVE",
"100 459 OFFCURVE",
"95 468 CURVE",
"91 477 OFFCURVE",
"89 483 OFFCURVE",
"89 489 CURVE SMOOTH",
"89 498 OFFCURVE",
"92 508 OFFCURVE",
"100 517 CURVE",
"107 524 OFFCURVE",
"117 529 OFFCURVE",
"129 530 CURVE",
"140 534 OFFCURVE",
"150 533 OFFCURVE",
"158 533 CURVE SMOOTH",
"168 533 OFFCURVE",
"176 533 OFFCURVE",
"180 532 CURVE",
"202 528 LINE",
"196 512 OFFCURVE",
"191 497 OFFCURVE",
"188 484 CURVE SMOOTH",
"186 470 OFFCURVE",
"185 457 OFFCURVE",
"185 443 CURVE"
);
},
{
closed = 1;
nodes = (
"263 339 OFFCURVE",
"247 352 OFFCURVE",
"232 368 CURVE SMOOTH",
"216 387 OFFCURVE",
"207 403 OFFCURVE",
"203 419 CURVE",
"233 428 LINE SMOOTH",
"247 432 OFFCURVE",
"258 433 OFFCURVE",
"265 437 CURVE",
"301 456 OFFCURVE",
"324 464 OFFCURVE",
"338 473 CURVE SMOOTH",
"352 482 OFFCURVE",
"366 492 OFFCURVE",
"379 504 CURVE",
"363 468 OFFCURVE",
"347 436 OFFCURVE",
"332 407 CURVE SMOOTH",
"317 378 OFFCURVE",
"301 352 OFFCURVE",
"282 331 CURVE"
);
},
{
closed = 1;
nodes = (
"821 603 OFFCURVE",
"805 605 OFFCURVE",
"791 612 CURVE",
"807 628 OFFCURVE",
"824 640 OFFCURVE",
"840 654 CURVE",
"856 665 OFFCURVE",
"871 670 OFFCURVE",
"887 670 CURVE SMOOTH",
"899 670 OFFCURVE",
"907 668 OFFCURVE",
"916 661 CURVE",
"922 659 OFFCURVE",
"925 655 OFFCURVE",
"925 649 CURVE SMOOTH",
"925 640 OFFCURVE",
"921 634 OFFCURVE",
"912 628 CURVE",
"901 619 OFFCURVE",
"890 614 OFFCURVE",
"877 610 CURVE SMOOTH",
"862 605 OFFCURVE",
"849 603 OFFCURVE",
"837 603 CURVE SMOOTH"
);
}
);
width = 754;
}
);
note = N;
unicode = 004E;
},
{
color = 1;
glyphname = O;
lastChange = "2018-07-19 12:45:06 +0000";
layers = (
{
anchors = (
{
name = bottom;
position = "{309, 0}";
},
{
name = center;
position = "{397, 350}";
},
{
name = ogonek;
position = "{606, 10}";
},
{
name = top;
position = "{484, 700}";
},
{
name = topleft;
position = "{136, 700}";
},
{
name = topright;
position = "{832, 700}";
}
);
background = {
paths = (
{
closed = 1;
nodes = (
"356 0 OFFCURVE",
"413 19 OFFCURVE",
"467 56 CURVE SMOOTH",
"522 92 OFFCURVE",
"568 139 OFFCURVE",
"608 192 CURVE SMOOTH",
"646 246 OFFCURVE",
"676 295 OFFCURVE",
"695 339 CURVE SMOOTH",
"714 386 OFFCURVE",
"723 431 OFFCURVE",
"723 474 CURVE SMOOTH",
"723 499 OFFCURVE",
"720 522 OFFCURVE",
"714 543 CURVE",
"709 564 OFFCURVE",
"699 589 OFFCURVE",
"685 618 CURVE",
"671 644 OFFCURVE",
"650 666 OFFCURVE",
"622 683 CURVE SMOOTH",
"593 699 OFFCURVE",
"562 706 OFFCURVE",
"527 706 CURVE SMOOTH",
"495 706 OFFCURVE",
"466 700 OFFCURVE",
"438 688 CURVE SMOOTH",
"394 666 OFFCURVE",
"362 636 OFFCURVE",
"338 600 CURVE SMOOTH",
"315 562 OFFCURVE",
"303 519 OFFCURVE",
"303 473 CURVE SMOOTH",
"303 462 OFFCURVE",
"305 443 OFFCURVE",
"308 418 CURVE SMOOTH",
"312 391 OFFCURVE",
"324 363 OFFCURVE",
"343 337 CURVE SMOOTH",
"363 310 OFFCURVE",
"391 290 OFFCURVE",
"427 276 CURVE",
"389 307 LINE SMOOTH",
"378 317 OFFCURVE",
"367 329 OFFCURVE",
"356 344 CURVE",
"344 361 OFFCURVE",
"334 379 OFFCURVE",
"327 403 CURVE SMOOTH",
"319 427 OFFCURVE",
"316 451 OFFCURVE",
"316 474 CURVE SMOOTH",
"316 515 OFFCURVE",
"324 550 OFFCURVE",
"343 579 CURVE SMOOTH",
"362 608 OFFCURVE",
"382 630 OFFCURVE",
"406 648 CURVE",
"429 663 OFFCURVE",
"454 670 OFFCURVE",
"483 670 CURVE SMOOTH",
"490 670 OFFCURVE",
"495 670 OFFCURVE",
"499 669 CURVE",
"503 669 OFFCURVE",
"517 666 OFFCURVE",
"540 663 CURVE",
"562 658 OFFCURVE",
"583 645 OFFCURVE",
"605 625 CURVE SMOOTH",
"629 604 OFFCURVE",
"645 580 OFFCURVE",
"655 553 CURVE SMOOTH",
"665 527 OFFCURVE",
"671 505 OFFCURVE",
"674 487 CURVE SMOOTH",
"676 470 OFFCURVE",
"678 453 OFFCURVE",
"678 436 CURVE SMOOTH",
"678 382 OFFCURVE",
"665 331 OFFCURVE",
"641 282 CURVE SMOOTH",
"618 233 OFFCURVE",
"589 191 OFFCURVE",
"554 154 CURVE SMOOTH",
"519 119 OFFCURVE",
"484 92 OFFCURVE",
"449 74 CURVE",
"413 56 OFFCURVE",
"376 47 OFFCURVE",
"339 47 CURVE SMOOTH",
"323 47 OFFCURVE",
"310 49 OFFCURVE",
"297 52 CURVE",
"283 55 OFFCURVE",
"266 61 OFFCURVE",
"245 71 CURVE SMOOTH",
"223 81 OFFCURVE",
"202 99 OFFCURVE",
"181 124 CURVE SMOOTH",
"160 149 OFFCURVE",
"145 176 OFFCURVE",
"136 206 CURVE SMOOTH",
"132 220 OFFCURVE",
"130 233 OFFCURVE",
"129 245 CURVE SMOOTH",
"127 258 OFFCURVE",
"126 268 OFFCURVE",
"126 282 CURVE SMOOTH",
"126 346 OFFCURVE",
"145 408 OFFCURVE",
"181 467 CURVE SMOOTH",
"216 525 OFFCURVE",
"262 577 OFFCURVE",
"318 619 CURVE",
"280 598 OFFCURVE",
"240 567 OFFCURVE",
"200 524 CURVE SMOOTH",
"161 483 OFFCURVE",
"130 438 OFFCURVE",
"106 389 CURVE SMOOTH",
"82 339 OFFCURVE",
"70 288 OFFCURVE",
"70 237 CURVE SMOOTH",
"70 197 OFFCURVE",
"76 160 OFFCURVE",
"89 125 CURVE SMOOTH",
"102 89 OFFCURVE",
"119 64 OFFCURVE",
"137 49 CURVE",
"160 32 OFFCURVE",
"185 21 OFFCURVE",
"213 12 CURVE SMOOTH",
"242 4 OFFCURVE",
"270 0 OFFCURVE",
"296 0 CURVE SMOOTH"
);
}
);
};
layerId = "0B1DFD06-3317-40CA-B510-4969A0718C16";
paths = (
{
closed = 1;
nodes = (
"572 -10 OFFCURVE",
"724 248 OFFCURVE",
"724 478 CURVE SMOOTH",
"724 530 OFFCURVE",
"721 561 OFFCURVE",
"716 587 CURVE",
"671 666 OFFCURVE",
"608 710 OFFCURVE",
"540 710 CURVE SMOOTH",
"413 710 OFFCURVE",
"335 593 OFFCURVE",
"335 487 CURVE SMOOTH",
"335 396 OFFCURVE",
"392 339 OFFCURVE",
"482 328 CURVE",
"415 363 OFFCURVE",
"373 421 OFFCURVE",
"373 487 CURVE SMOOTH",
"373 571 OFFCURVE",
"437 679 OFFCURVE",
"540 679 CURVE SMOOTH",
"596 679 OFFCURVE",
"643 646 OFFCURVE",
"680 603 CURVE",
"685 569 OFFCURVE",
"686 532 OFFCURVE",
"686 478 CURVE SMOOTH",
"686 255 OFFCURVE",
"540 21 OFFCURVE",
"317 21 CURVE SMOOTH",
"248 21 OFFCURVE",
"155 60 OFFCURVE",
"115 107 CURVE",
"111 139 OFFCURVE",
"108 174 OFFCURVE",
"108 211 CURVE SMOOTH",
"108 398 OFFCURVE",
"216 568 OFFCURVE",
"371 682 CURVE",
"176 595 OFFCURVE",
"70 426 OFFCURVE",
"70 227 CURVE SMOOTH",
"70 188 OFFCURVE",
"75 151 OFFCURVE",
"86 119 CURVE",
"129 52 OFFCURVE",
"204 -10 OFFCURVE",
"322 -10 CURVE SMOOTH"
);
}
);
width = 736;
}
);
note = O;
unicode = 004F;
},
{
color = 1;
glyphname = P;
lastChange = "2018-07-19 12:45:06 +0000";
layers = (
{
anchors = (
{
name = bottom;
position = "{298, 0}";
},
{
name = top;
position = "{473, 700}";
}
);
background = {
paths = (
{
closed = 1;
nodes = (
"155 -7 OFFCURVE",
"165 -6 OFFCURVE",
"185 -2 CURVE",
"205 0 OFFCURVE",
"220 1 OFFCURVE",
"231 1 CURVE",
"237 40 OFFCURVE",
"246 75 OFFCURVE",
"255 106 CURVE",
"265 137 OFFCURVE",
"277 163 OFFCURVE",
"292 185 CURVE",
"386 185 OFFCURVE",
"468 198 OFFCURVE",
"543 227 CURVE SMOOTH",
"618 256 OFFCURVE",
"669 292 OFFCURVE",
"698 333 CURVE SMOOTH",
"726 377 OFFCURVE",
"745 408 OFFCURVE",
"751 432 CURVE",
"759 456 OFFCURVE",
"763 479 OFFCURVE",
"763 504 CURVE SMOOTH",
"763 533 OFFCURVE",
"755 564 OFFCURVE",
"739 598 CURVE",
"723 628 OFFCURVE",
"696 651 OFFCURVE",
"663 669 CURVE SMOOTH",
"629 686 OFFCURVE",
"589 695 OFFCURVE",
"545 695 CURVE SMOOTH",
"523 695 LINE",
"503 693 LINE SMOOTH",
"439 686 OFFCURVE",
"382 658 OFFCURVE",
"331 609 CURVE SMOOTH",
"280 559 OFFCURVE",
"243 502 OFFCURVE",
"222 438 CURVE",
"218 438 OFFCURVE",
"215 438 OFFCURVE",
"211 437 CURVE",
"200 437 LINE SMOOTH",
"181 437 OFFCURVE",
"164 439 OFFCURVE",
"149 444 CURVE",
"134 451 OFFCURVE",
"125 458 OFFCURVE",
"121 467 CURVE",
"116 475 OFFCURVE",
"114 482 OFFCURVE",
"114 485 CURVE SMOOTH",
"114 492 OFFCURVE",
"115 498 OFFCURVE",
"119 504 CURVE SMOOTH",
"122 510 OFFCURVE",
"127 517 OFFCURVE",
"136 525 CURVE",
"145 533 OFFCURVE",
"154 538 OFFCURVE",
"160 540 CURVE SMOOTH",
"166 543 OFFCURVE",
"172 544 OFFCURVE",
"181 544 CURVE",
"238 534 LINE",
"215 544 LINE SMOOTH",
"206 548 OFFCURVE",
"200 549 OFFCURVE",
"191 550 CURVE SMOOTH",
"182 552 OFFCURVE",
"174 553 OFFCURVE",
"165 553 CURVE SMOOTH",
"147 553 OFFCURVE",
"132 550 OFFCURVE",
"119 545 CURVE SMOOTH",
"106 540 OFFCURVE",
"95 533 OFFCURVE",
"86 524 CURVE",
"77 513 OFFCURVE",
"74 503 OFFCURVE",
"74 494 CURVE SMOOTH",
"74 480 OFFCURVE",
"79 468 OFFCURVE",
"90 457 CURVE",
"100 446 OFFCURVE",
"112 439 OFFCURVE",
"126 434 CURVE",
"142 431 OFFCURVE",
"160 428 OFFCURVE",
"177 428 CURVE SMOOTH",
"182 428 OFFCURVE",
"189 429 OFFCURVE",
"195 429 CURVE SMOOTH",
"201 429 OFFCURVE",
"210 431 OFFCURVE",
"221 431 CURVE",
"217 412 OFFCURVE",
"216 397 OFFCURVE",
"216 388 CURVE SMOOTH",
"216 353 LINE",
"218 374 OFFCURVE",
"221 391 OFFCURVE",
"225 401 CURVE",
"235 433 LINE",
"267 439 OFFCURVE",
"296 452 OFFCURVE",
"321 468 CURVE SMOOTH",
"347 484 OFFCURVE",
"382 509 OFFCURVE",
"424 542 CURVE",
"411 508 OFFCURVE",
"397 479 OFFCURVE",
"383 456 CURVE SMOOTH",
"311 334 LINE SMOOTH",
"276 276 OFFCURVE",
"251 231 OFFCURVE",
"235 202 CURVE",
"230 201 OFFCURVE",
"228 200 OFFCURVE",
"225 200 CURVE SMOOTH",
"215 200 OFFCURVE",
"202 205 OFFCURVE",
"186 215 CURVE SMOOTH",
"169 225 OFFCURVE",
"155 230 OFFCURVE",
"146 230 CURVE",
"170 208 OFFCURVE",
"196 195 OFFCURVE",
"227 188 CURVE",
"114 0 LINE",
"131 -6 LINE",
"135 -6 OFFCURVE",
"141 -7 OFFCURVE",
"151 -7 CURVE SMOOTH"
);
},
{
closed = 1;
nodes = (
"312 241 OFFCURVE",
"330 286 OFFCURVE",
"348 327 CURVE SMOOTH",
"367 368 OFFCURVE",
"393 421 OFFCURVE",
"427 489 CURVE SMOOTH",
"461 555 OFFCURVE",
"486 607 OFFCURVE",
"502 640 CURVE SMOOTH",
"503 643 OFFCURVE",
"502 644 OFFCURVE",
"501 645 CURVE SMOOTH",
"499 646 OFFCURVE",
"498 646 OFFCURVE",
"494 646 CURVE SMOOTH",
"491 646 OFFCURVE",
"483 638 OFFCURVE",
"469 619 CURVE SMOOTH",
"456 602 OFFCURVE",
"437 579 OFFCURVE",
"411 553 CURVE",
"386 524 OFFCURVE",
"358 503 OFFCURVE",
"330 482 CURVE",
"301 463 OFFCURVE",
"270 448 OFFCURVE",
"236 439 CURVE",
"251 494 OFFCURVE",
"283 543 OFFCURVE",
"332 585 CURVE SMOOTH",
"381 629 OFFCURVE",
"432 653 OFFCURVE",
"484 659 CURVE",
"496 663 OFFCURVE",
"507 661 OFFCURVE",
"517 661 CURVE SMOOTH",
"544 661 OFFCURVE",
"568 658 OFFCURVE",
"588 649 CURVE SMOOTH",
"609 639 OFFCURVE",
"628 625 OFFCURVE",
"644 608 CURVE",
"660 588 OFFCURVE",
"673 569 OFFCURVE",
"680 552 CURVE",
"686 532 OFFCURVE",
"690 512 OFFCURVE",
"690 493 CURVE SMOOTH",
"690 467 OFFCURVE",
"681 429 OFFCURVE",
"663 379 CURVE SMOOTH",
"645 328 OFFCURVE",
"602 285 OFFCURVE",
"532 248 CURVE SMOOTH",
"462 212 OFFCURVE",
"383 195 OFFCURVE",
"296 195 CURVE"
);
}
);
};
layerId = "0B1DFD06-3317-40CA-B510-4969A0718C16";
paths = (
{
closed = 1;
nodes = (
"579 211 OFFCURVE",
"744 353 OFFCURVE",
"744 551 CURVE SMOOTH",
"744 578 OFFCURVE",
"739 599 OFFCURVE",
"732 613 CURVE",
"704 668 OFFCURVE",
"650 710 OFFCURVE",
"523 710 CURVE SMOOTH",
"351 710 OFFCURVE",
"210 607 OFFCURVE",
"210 444 CURVE SMOOTH",
"210 410 OFFCURVE",
"217 377 OFFCURVE",
"231 346 CURVE",
"231 551 OFFCURVE",
"325 679 OFFCURVE",
"515 679 CURVE SMOOTH",
"620 679 OFFCURVE",
"670 662 OFFCURVE",
"702 621 CURVE",
"707 610 OFFCURVE",
"709 593 OFFCURVE",
"709 572 CURVE SMOOTH",
"709 377 OFFCURVE",
"574 242 OFFCURVE",
"369 242 CURVE SMOOTH",
"306 242 OFFCURVE",
"217 253 OFFCURVE",
"181 277 CURVE",
"211 235 OFFCURVE",
"288 211 OFFCURVE",
"373 211 CURVE SMOOTH"
);
},
{
closed = 1;
nodes = (
"278 0 LINE",
"274 13 OFFCURVE",
"278 49 OFFCURVE",
"289 92 CURVE SMOOTH",
"419 613 LINE",
"411 613 LINE",
"322 515 OFFCURVE",
"254 459 OFFCURVE",
"169 459 CURVE SMOOTH",
"122 459 OFFCURVE",
"96 476 OFFCURVE",
"96 502 CURVE SMOOTH",
"96 526 OFFCURVE",
"116 547 OFFCURVE",
"147 547 CURVE SMOOTH",
"159 547 OFFCURVE",
"176 544 OFFCURVE",
"190 529 CURVE",
"192 559 OFFCURVE",
"175 576 OFFCURVE",
"141 576 CURVE SMOOTH",
"93 576 OFFCURVE",
"57 544 OFFCURVE",
"57 495 CURVE SMOOTH",
"57 454 OFFCURVE",
"94 428 OFFCURVE",
"157 428 CURVE SMOOTH",
"229 428 OFFCURVE",
"307 471 OFFCURVE",
"361 524 CURVE",
"365 522 LINE",
"350 482 OFFCURVE",
"340 448 OFFCURVE",
"328 398 CURVE SMOOTH",
"251 92 LINE SMOOTH",
"237 36 OFFCURVE",
"231 18 OFFCURVE",
"216 0 CURVE"
);
}
);
width = 714;
}
);
note = P;
unicode = 0050;
},
{
color = 1;
glyphname = Q;
lastChange = "2018-07-19 12:45:06 +0000";
layers = (
{
anchors = (
{
name = bottom;
position = "{309, 0}";
},
{
name = top;
position = "{484, 700}";
}
);
background = {
paths = (
{
closed = 1;
nodes = (
"473 65 LINE",
"553 119 OFFCURVE",
"609 170 OFFCURVE",
"640 216 CURVE SMOOTH",
"671 263 OFFCURVE",
"691 313 OFFCURVE",
"703 366 CURVE SMOOTH",
"714 422 OFFCURVE",
"720 461 OFFCURVE",
"720 482 CURVE SMOOTH",
"720 515 OFFCURVE",
"715 547 OFFCURVE",
"705 575 CURVE",
"696 604 OFFCURVE",
"683 626 OFFCURVE",
"665 645 CURVE SMOOTH",
"649 663 OFFCURVE",
"635 675 OFFCURVE",
"624 683 CURVE SMOOTH",
"612 691 OFFCURVE",
"598 698 OFFCURVE",
"582 703 CURVE",
"564 709 OFFCURVE",
"547 711 OFFCURVE",
"530 711 CURVE SMOOTH",
"512 711 OFFCURVE",
"490 708 OFFCURVE",
"469 701 CURVE",
"449 693 OFFCURVE",
"426 683 OFFCURVE",
"401 668 CURVE SMOOTH",
"374 653 OFFCURVE",
"353 630 OFFCURVE",
"337 602 CURVE",
"321 570 OFFCURVE",
"312 544 OFFCURVE",
"310 522 CURVE",
"308 498 OFFCURVE",
"307 482 OFFCURVE",
"307 470 CURVE SMOOTH",
"307 428 OFFCURVE",
"317 391 OFFCURVE",
"336 358 CURVE SMOOTH",
"354 324 OFFCURVE",
"381 297 OFFCURVE",
"416 276 CURVE",
"387 305 OFFCURVE",
"367 326 OFFCURVE",
"353 346 CURVE SMOOTH",
"339 367 OFFCURVE",
"329 388 OFFCURVE",
"324 412 CURVE SMOOTH",
"319 437 OFFCURVE",
"317 458 OFFCURVE",
"317 475 CURVE SMOOTH",
"317 537 OFFCURVE",
"336 585 OFFCURVE",
"372 619 CURVE SMOOTH",
"407 653 OFFCURVE",
"443 670 OFFCURVE",
"482 670 CURVE SMOOTH",
"498 670 OFFCURVE",
"524 665 OFFCURVE",
"560 655 CURVE SMOOTH",
"597 645 OFFCURVE",
"625 620 OFFCURVE",
"648 580 CURVE SMOOTH",
"671 539 OFFCURVE",
"683 492 OFFCURVE",
"683 436 CURVE SMOOTH",
"683 357 OFFCURVE",
"663 288 OFFCURVE",
"623 231 CURVE SMOOTH",
"584 173 OFFCURVE",
"532 124 OFFCURVE",
"463 80 CURVE",
"454 95 OFFCURVE",
"447 109 OFFCURVE",
"442 120 CURVE SMOOTH",
"436 134 OFFCURVE",
"431 155 OFFCURVE",
"422 183 CURVE",
"403 180 OFFCURVE",
"387 175 OFFCURVE",
"368 170 CURVE SMOOTH",
"349 165 OFFCURVE",
"332 162 OFFCURVE",
"317 161 CURVE",
"426 66 LINE",
"414 60 OFFCURVE",
"404 55 OFFCURVE",
"394 52 CURVE",
"383 51 OFFCURVE",
"371 50 OFFCURVE",
"354 50 CURVE SMOOTH",
"336 50 OFFCURVE",
"311 54 OFFCURVE",
"277 61 CURVE SMOOTH",
"243 69 OFFCURVE",
"213 85 OFFCURVE",
"186 110 CURVE SMOOTH",
"160 134 OFFCURVE",
"142 160 OFFCURVE",
"136 188 CURVE SMOOTH",
"130 215 OFFCURVE",
"127 233 OFFCURVE",
"126 243 CURVE SMOOTH",
"125 252 OFFCURVE",
"125 263 OFFCURVE",
"125 275 CURVE SMOOTH",
"125 326 OFFCURVE",
"136 373 OFFCURVE",
"157 417 CURVE SMOOTH",
"178 462 OFFCURVE",
"208 507 OFFCURVE",
"247 553 CURVE",
"273 575 OFFCURVE",
"300 598 OFFCURVE",
"323 622 CURVE",
"262 588 OFFCURVE",
"208 543 OFFCURVE",
"165 488 CURVE SMOOTH",
"119 432 OFFCURVE",
"92 381 OFFCURVE",
"84 336 CURVE SMOOTH",
"75 291 OFFCURVE",
"71 256 OFFCURVE",
"71 231 CURVE SMOOTH",
"71 190 OFFCURVE",
"80 151 OFFCURVE",
"96 116 CURVE SMOOTH",
"114 80 OFFCURVE",
"135 55 OFFCURVE",
"160 40 CURVE SMOOTH",
"186 24 OFFCURVE",
"207 12 OFFCURVE",
"223 9 CURVE",
"241 4 OFFCURVE",
"260 1 OFFCURVE",
"278 1 CURVE SMOOTH",
"307 1 OFFCURVE",
"332 5 OFFCURVE",
"361 14 CURVE SMOOTH",
"387 21 OFFCURVE",
"416 32 OFFCURVE",
"446 46 CURVE",
"502 -9 LINE SMOOTH",
"520 -27 OFFCURVE",
"538 -40 OFFCURVE",
"552 -47 CURVE"
);
}
);
};
layerId = "0B1DFD06-3317-40CA-B510-4969A0718C16";
paths = (
{
closed = 1;
nodes = (
"572 -10 OFFCURVE",
"724 248 OFFCURVE",
"724 478 CURVE SMOOTH",
"724 530 OFFCURVE",
"721 561 OFFCURVE",
"716 587 CURVE",
"671 666 OFFCURVE",
"608 710 OFFCURVE",
"540 710 CURVE SMOOTH",
"413 710 OFFCURVE",
"335 593 OFFCURVE",
"335 487 CURVE SMOOTH",
"335 396 OFFCURVE",
"392 339 OFFCURVE",
"482 328 CURVE",
"415 363 OFFCURVE",
"373 421 OFFCURVE",
"373 487 CURVE SMOOTH",
"373 571 OFFCURVE",
"437 679 OFFCURVE",
"540 679 CURVE SMOOTH",
"596 679 OFFCURVE",
"643 646 OFFCURVE",
"680 603 CURVE",
"685 569 OFFCURVE",
"686 532 OFFCURVE",
"686 478 CURVE SMOOTH",
"686 255 OFFCURVE",
"540 21 OFFCURVE",
"317 21 CURVE SMOOTH",
"248 21 OFFCURVE",
"155 60 OFFCURVE",
"115 107 CURVE",
"111 139 OFFCURVE",
"108 174 OFFCURVE",
"108 211 CURVE SMOOTH",
"108 398 OFFCURVE",
"216 568 OFFCURVE",
"371 682 CURVE",
"176 595 OFFCURVE",
"70 426 OFFCURVE",
"70 227 CURVE SMOOTH",
"70 188 OFFCURVE",
"75 151 OFFCURVE",
"86 119 CURVE",
"129 52 OFFCURVE",
"204 -10 OFFCURVE",
"322 -10 CURVE SMOOTH"
);
},
{
closed = 1;
nodes = (
"485 23 OFFCURVE",
"441 82 OFFCURVE",
"388 159 CURVE",
"373 154 OFFCURVE",
"354 151 OFFCURVE",
"337 149 CURVE",
"417 56 OFFCURVE",
"463 12 OFFCURVE",
"572 -77 CURVE"
);
}
);
width = 736;
}
);
note = Q;
unicode = 0051;
},
{
color = 1;
glyphname = R;
lastChange = "2018-07-19 12:45:06 +0000";
layers = (
{
anchors = (
{
name = bottom;
position = "{315, 0}";
},
{
name = top;
position = "{490, 700}";
}
);
background = {
paths = (
{
closed = 1;
nodes = (
"831 -121 OFFCURVE",
"766 -51 OFFCURVE",
"706 17 CURVE SMOOTH",
"642 86 OFFCURVE",
"601 136 OFFCURVE",
"572 175 CURVE SMOOTH",
"543 213 OFFCURVE",
"524 238 OFFCURVE",
"515 248 CURVE",
"506 260 OFFCURVE",
"498 273 OFFCURVE",
"490 288 CURVE",
"545 305 OFFCURVE",
"592 328 OFFCURVE",
"629 362 CURVE SMOOTH",
"664 393 OFFCURVE",
"685 428 OFFCURVE",
"689 467 CURVE SMOOTH",
"695 505 OFFCURVE",
"696 535 OFFCURVE",
"694 554 CURVE",
"691 575 OFFCURVE",
"687 594 OFFCURVE",
"678 612 CURVE SMOOTH",
"668 633 OFFCURVE",
"653 651 OFFCURVE",
"633 668 CURVE",
"617 680 OFFCURVE",
"602 689 OFFCURVE",
"585 695 CURVE SMOOTH",
"571 700 OFFCURVE",
"556 703 OFFCURVE",
"542 703 CURVE SMOOTH",
"523 703 OFFCURVE",
"505 699 OFFCURVE",
"488 691 CURVE",
"472 683 OFFCURVE",
"457 676 OFFCURVE",
"445 663 CURVE",
"415 634 OFFCURVE",
"394 602 OFFCURVE",
"378 565 CURVE SMOOTH",
"362 528 OFFCURVE",
"350 488 OFFCURVE",
"341 446 CURVE SMOOTH",
"333 402 OFFCURVE",
"326 356 OFFCURVE",
"320 305 CURVE",
"312 341 OFFCURVE",
"307 376 OFFCURVE",
"303 411 CURVE SMOOTH",
"299 446 OFFCURVE",
"296 492 OFFCURVE",
"295 552 CURVE",
"285 691 LINE",
"276 691 LINE",
"270 653 OFFCURVE",
"260 623 OFFCURVE",
"249 599 CURVE SMOOTH",
"237 574 OFFCURVE",
"219 557 OFFCURVE",
"197 545 CURVE SMOOTH",
"177 534 OFFCURVE",
"159 528 OFFCURVE",
"140 528 CURVE SMOOTH",
"129 528 OFFCURVE",
"118 530 OFFCURVE",
"106 534 CURVE SMOOTH",
"94 538 OFFCURVE",
"83 543 OFFCURVE",
"74 552 CURVE",
"67 560 OFFCURVE",
"60 568 OFFCURVE",
"57 574 CURVE SMOOTH",
"51 585 OFFCURVE",
"50 595 OFFCURVE",
"53 602 CURVE SMOOTH",
"56 609 OFFCURVE",
"63 614 OFFCURVE",
"71 617 CURVE",
"80 620 OFFCURVE",
"92 622 OFFCURVE",
"105 622 CURVE SMOOTH",
"117 622 OFFCURVE",
"128 620 OFFCURVE",
"141 619 CURVE",
"151 618 OFFCURVE",
"160 617 OFFCURVE",
"173 613 CURVE",
"143 626 OFFCURVE",
"124 633 OFFCURVE",
"107 636 CURVE SMOOTH",
"91 640 OFFCURVE",
"79 641 OFFCURVE",
"65 641 CURVE SMOOTH",
"55 641 OFFCURVE",
"45 640 OFFCURVE",
"36 638 CURVE SMOOTH",
"28 635 OFFCURVE",
"20 630 OFFCURVE",
"13 623 CURVE",
"6 615 OFFCURVE",
"1 608 OFFCURVE",
"-1 600 CURVE",
"-3 592 OFFCURVE",
"-2 582 OFFCURVE",
"4 570 CURVE SMOOTH",
"5 567 OFFCURVE",
"8 562 OFFCURVE",
"13 553 CURVE SMOOTH",
"20 544 OFFCURVE",
"29 537 OFFCURVE",
"44 530 CURVE",
"57 524 OFFCURVE",
"74 518 OFFCURVE",
"92 514 CURVE",
"108 510 OFFCURVE",
"120 509 OFFCURVE",
"133 509 CURVE SMOOTH",
"159 509 OFFCURVE",
"181 514 OFFCURVE",
"197 525 CURVE SMOOTH",
"214 537 OFFCURVE",
"229 549 OFFCURVE",
"241 565 CURVE SMOOTH",
"251 582 OFFCURVE",
"265 600 OFFCURVE",
"278 624 CURVE",
"277 515 OFFCURVE",
"275 429 OFFCURVE",
"273 363 CURVE SMOOTH",
"271 297 OFFCURVE",
"268 231 OFFCURVE",
"264 166 CURVE SMOOTH",
"260 102 OFFCURVE",
"253 46 OFFCURVE",
"242 0 CURVE",
"363 0 LINE",
"344 116 OFFCURVE",
"332 212 OFFCURVE",
"337 292 CURVE SMOOTH",
"339 369 OFFCURVE",
"352 438 OFFCURVE",
"376 498 CURVE SMOOTH",
"398 557 OFFCURVE",
"420 595 OFFCURVE",
"441 617 CURVE SMOOTH",
"460 636 OFFCURVE",
"484 646 OFFCURVE",
"514 646 CURVE SMOOTH",
"535 646 OFFCURVE",
"555 643 OFFCURVE",
"574 635 CURVE",
"590 628 OFFCURVE",
"603 620 OFFCURVE",
"610 614 CURVE SMOOTH",
"617 608 OFFCURVE",
"622 599 OFFCURVE",
"627 590 CURVE SMOOTH",
"633 577 OFFCURVE",
"637 564 OFFCURVE",
"639 553 CURVE SMOOTH",
"641 539 OFFCURVE",
"640 512 OFFCURVE",
"635 468 CURVE SMOOTH",
"632 424 OFFCURVE",
"610 382 OFFCURVE",
"567 341 CURVE SMOOTH",
"526 301 OFFCURVE",
"471 281 OFFCURVE",
"404 281 CURVE",
"461 215 OFFCURVE",
"508 160 OFFCURVE",
"550 116 CURVE SMOOTH",
"590 72 OFFCURVE",
"638 26 OFFCURVE",
"698 -25 CURVE SMOOTH",
"757 -76 OFFCURVE",
"825 -132 OFFCURVE",
"908 -197 CURVE"
);
}
);
};
layerId = "0B1DFD06-3317-40CA-B510-4969A0718C16";
paths = (
{
closed = 1;
nodes = (
"556 112 OFFCURVE",
"510 180 OFFCURVE",
"455 273 CURVE",
"640 326 OFFCURVE",
"758 449 OFFCURVE",
"758 590 CURVE SMOOTH",
"758 606 OFFCURVE",
"756 623 OFFCURVE",
"750 638 CURVE",
"724 689 OFFCURVE",
"692 710 OFFCURVE",
"642 710 CURVE SMOOTH",
"533 710 OFFCURVE",
"447 613 OFFCURVE",
"317 334 CURVE",
"304 279 LINE",
"317 279 LINE",
"469 587 OFFCURVE",
"537 680 OFFCURVE",
"640 680 CURVE SMOOTH",
"683 680 OFFCURVE",
"715 668 OFFCURVE",
"729 646 CURVE",
"729 460 OFFCURVE",
"622 344 OFFCURVE",
"400 289 CURVE",
"398 281 LINE",
"478 153 OFFCURVE",
"528 88 OFFCURVE",
"703 -100 CURVE"
);
},
{
closed = 1;
nodes = (
"259 0 LINE",
"255 12 OFFCURVE",
"259 48 OFFCURVE",
"270 92 CURVE SMOOTH",
"421 700 LINE",
"413 700 LINE",
"324 602 OFFCURVE",
"269 546 OFFCURVE",
"190 546 CURVE SMOOTH",
"146 546 OFFCURVE",
"118 564 OFFCURVE",
"118 590 CURVE SMOOTH",
"118 616 OFFCURVE",
"142 634 OFFCURVE",
"170 634 CURVE SMOOTH",
"182 634 OFFCURVE",
"199 631 OFFCURVE",
"213 616 CURVE",
"214 646 OFFCURVE",
"197 663 OFFCURVE",
"163 663 CURVE SMOOTH",
"115 663 OFFCURVE",
"80 631 OFFCURVE",
"80 583 CURVE SMOOTH",
"80 542 OFFCURVE",
"117 515 OFFCURVE",
"176 515 CURVE SMOOTH",
"250 515 OFFCURVE",
"311 558 OFFCURVE",
"363 611 CURVE",
"367 609 LINE",
"352 569 OFFCURVE",
"342 535 OFFCURVE",
"330 485 CURVE SMOOTH",
"232 92 LINE SMOOTH",
"218 36 OFFCURVE",
"211 18 OFFCURVE",
"197 0 CURVE"
);
}
);
width = 747;
},
{
associatedMasterId = "0B1DFD06-3317-40CA-B510-4969A0718C16";
layerId = "E24FE0F3-7F4E-4A24-8CD9-8BE7DB4ECA5D";
name = "Jul 14 18, 17:00";
paths = (
{
closed = 1;
nodes = (
"574 -121 OFFCURVE",
"543 -51 OFFCURVE",
"517 17 CURVE SMOOTH",
"488 86 OFFCURVE",
"472 136 OFFCURVE",
"462 175 CURVE SMOOTH",
"452 213 OFFCURVE",
"446 238 OFFCURVE",
"442 248 CURVE",
"438 260 OFFCURVE",
"437 273 OFFCURVE",
"436 288 CURVE",
"500 305 OFFCURVE",
"558 328 OFFCURVE",
"612 362 CURVE SMOOTH",
"663 393 OFFCURVE",
"701 428 OFFCURVE",
"725 467 CURVE SMOOTH",
"750 505 OFFCURVE",
"766 535 OFFCURVE",
"773 554 CURVE",
"781 575 OFFCURVE",
"786 594 OFFCURVE",
"786 612 CURVE SMOOTH",
"786 633 OFFCURVE",
"780 651 OFFCURVE",
"769 668 CURVE",
"759 680 OFFCURVE",
"748 689 OFFCURVE",
"734 695 CURVE SMOOTH",
"723 700 OFFCURVE",
"709 703 OFFCURVE",
"695 703 CURVE SMOOTH",
"676 703 OFFCURVE",
"656 699 OFFCURVE",
"635 691 CURVE",
"615 683 OFFCURVE",
"597 676 OFFCURVE",
"578 663 CURVE",
"534 634 OFFCURVE",
"497 602 OFFCURVE",
"463 565 CURVE SMOOTH",
"428 528 OFFCURVE",
"396 488 OFFCURVE",
"366 446 CURVE SMOOTH",
"336 402 OFFCURVE",
"306 356 OFFCURVE",
"275 305 CURVE",
"285 341 OFFCURVE",
"297 376 OFFCURVE",
"311 411 CURVE SMOOTH",
"324 446 OFFCURVE",
"344 492 OFFCURVE",
"373 552 CURVE",
"432 691 LINE",
"423 691 LINE",
"398 653 OFFCURVE",
"374 623 OFFCURVE",
"351 599 CURVE SMOOTH",
"326 574 OFFCURVE",
"300 557 OFFCURVE",
"272 545 CURVE SMOOTH",
"246 534 OFFCURVE",
"225 528 OFFCURVE",
"206 528 CURVE SMOOTH",
"195 528 OFFCURVE",
"185 530 OFFCURVE",
"175 534 CURVE SMOOTH",
"165 538 OFFCURVE",
"157 543 OFFCURVE",
"152 552 CURVE",
"149 560 OFFCURVE",
"146 568 OFFCURVE",
"146 574 CURVE SMOOTH",
"146 585 OFFCURVE",
"150 595 OFFCURVE",
"156 602 CURVE SMOOTH",
"163 609 OFFCURVE",
"172 614 OFFCURVE",
"182 617 CURVE",
"192 620 OFFCURVE",
"205 622 OFFCURVE",
"218 622 CURVE SMOOTH",
"230 622 OFFCURVE",
"240 620 OFFCURVE",
"253 619 CURVE",
"262 618 OFFCURVE",
"271 617 OFFCURVE",
"282 613 CURVE",
"258 626 OFFCURVE",
"242 633 OFFCURVE",
"227 636 CURVE SMOOTH",
"213 640 OFFCURVE",
"201 641 OFFCURVE",
"187 641 CURVE SMOOTH",
"177 641 OFFCURVE",
"167 640 OFFCURVE",
"157 638 CURVE SMOOTH",
"147 635 OFFCURVE",
"137 630 OFFCURVE",
"127 623 CURVE",
"116 615 OFFCURVE",
"107 608 OFFCURVE",
"101 600 CURVE",
"95 592 OFFCURVE",
"91 582 OFFCURVE",
"91 570 CURVE SMOOTH",
"91 567 OFFCURVE",
"91 562 OFFCURVE",
"92 553 CURVE SMOOTH",
"94 544 OFFCURVE",
"100 537 OFFCURVE",
"111 530 CURVE",
"121 524 OFFCURVE",
"135 518 OFFCURVE",
"151 514 CURVE",
"165 510 OFFCURVE",
"177 509 OFFCURVE",
"190 509 CURVE SMOOTH",
"216 509 OFFCURVE",
"240 514 OFFCURVE",
"262 525 CURVE SMOOTH",
"285 537 OFFCURVE",
"306 549 OFFCURVE",
"326 565 CURVE SMOOTH",
"344 582 OFFCURVE",
"367 600 OFFCURVE",
"392 624 CURVE",
"337 515 OFFCURVE",
"292 429 OFFCURVE",
"257 363 CURVE SMOOTH",
"222 297 OFFCURVE",
"186 231 OFFCURVE",
"150 166 CURVE SMOOTH",
"114 102 OFFCURVE",
"79 46 OFFCURVE",
"45 0 CURVE",
"166 0 LINE",
"205 116 OFFCURVE",
"241 212 OFFCURVE",
"285 292 CURVE SMOOTH",
"326 369 OFFCURVE",
"373 438 OFFCURVE",
"427 498 CURVE SMOOTH",
"479 557 OFFCURVE",
"520 595 OFFCURVE",
"552 617 CURVE SMOOTH",
"580 636 OFFCURVE",
"609 646 OFFCURVE",
"639 646 CURVE SMOOTH",
"660 646 OFFCURVE",
"678 643 OFFCURVE",
"693 635 CURVE",
"706 628 OFFCURVE",
"715 620 OFFCURVE",
"719 614 CURVE SMOOTH",
"723 608 OFFCURVE",
"724 599 OFFCURVE",
"724 590 CURVE SMOOTH",
"724 577 OFFCURVE",
"721 564 OFFCURVE",
"718 553 CURVE SMOOTH",
"713 539 OFFCURVE",
"698 512 OFFCURVE",
"671 468 CURVE SMOOTH",
"646 424 OFFCURVE",
"603 382 OFFCURVE",
"540 341 CURVE SMOOTH",
"479 301 OFFCURVE",
"414 281 OFFCURVE",
"347 281 CURVE",
"371 215 OFFCURVE",
"391 160 OFFCURVE",
"411 116 CURVE SMOOTH",
"429 72 OFFCURVE",
"454 26 OFFCURVE",
"488 -25 CURVE SMOOTH",
"522 -76 OFFCURVE",
"562 -132 OFFCURVE",
"613 -197 CURVE"
);
}
);
width = 704;
}
);
note = R;
unicode = 0052;
},
{
color = 1;
glyphname = S;
lastChange = "2018-07-19 12:45:06 +0000";
layers = (
{
anchors = (
{
name = bottom;
position = "{286, 0}";
},
{
name = top;
position = "{461, 700}";
}
);
background = {
paths = (
{
closed = 1;
nodes = (
"638 -7 LINE",
"599 34 LINE",
"626 46 OFFCURVE",
"651 65 OFFCURVE",
"675 89 CURVE SMOOTH",
"698 112 OFFCURVE",
"714 137 OFFCURVE",
"725 165 CURVE",
"731 186 OFFCURVE",
"733 207 OFFCURVE",
"736 228 CURVE",
"737 250 OFFCURVE",
"736 271 OFFCURVE",
"731 291 CURVE SMOOTH",
"727 306 OFFCURVE",
"721 322 OFFCURVE",
"713 338 CURVE",
"705 352 OFFCURVE",
"685 378 OFFCURVE",
"652 417 CURVE SMOOTH",
"619 456 OFFCURVE",
"569 474 OFFCURVE",
"499 474 CURVE SMOOTH",
"480 474 OFFCURVE",
"464 472 OFFCURVE",
"445 468 CURVE",
"427 463 OFFCURVE",
"412 456 OFFCURVE",
"401 447 CURVE SMOOTH",
"390 438 OFFCURVE",
"380 426 OFFCURVE",
"372 408 CURVE",
"380 417 OFFCURVE",
"387 421 OFFCURVE",
"394 429 CURVE",
"402 434 OFFCURVE",
"409 441 OFFCURVE",
"418 444 CURVE SMOOTH",
"427 448 OFFCURVE",
"438 451 OFFCURVE",
"448 454 CURVE",
"458 457 OFFCURVE",
"468 458 OFFCURVE",
"478 458 CURVE SMOOTH",
"497 458 OFFCURVE",
"518 453 OFFCURVE",
"546 439 CURVE",
"572 427 OFFCURVE",
"594 411 OFFCURVE",
"611 389 CURVE",
"627 368 OFFCURVE",
"641 342 OFFCURVE",
"649 308 CURVE SMOOTH",
"663 255 OFFCURVE",
"662 207 OFFCURVE",
"650 163 CURVE",
"635 122 OFFCURVE",
"608 89 OFFCURVE",
"570 64 CURVE",
"537 92 OFFCURVE",
"507 115 OFFCURVE",
"481 131 CURVE SMOOTH",
"454 147 OFFCURVE",
"423 165 OFFCURVE",
"387 182 CURVE",
"350 198 OFFCURVE",
"321 210 OFFCURVE",
"297 216 CURVE SMOOTH",
"276 222 OFFCURVE",
"253 225 OFFCURVE",
"229 225 CURVE SMOOTH",
"205 225 OFFCURVE",
"186 221 OFFCURVE",
"172 215 CURVE",
"155 208 OFFCURVE",
"140 198 OFFCURVE",
"128 183 CURVE",
"115 170 OFFCURVE",
"111 152 OFFCURVE",
"116 131 CURVE SMOOTH",
"119 121 OFFCURVE",
"129 104 OFFCURVE",
"149 80 CURVE",
"169 54 OFFCURVE",
"200 34 OFFCURVE",
"244 17 CURVE SMOOTH",
"286 1 OFFCURVE",
"336 -7 OFFCURVE",
"392 -7 CURVE SMOOTH",
"413 -7 OFFCURVE",
"433 -6 OFFCURVE",
"453 -5 CURVE",
"472 -1 OFFCURVE",
"492 0 OFFCURVE",
"511 1 CURVE",
"529 5 OFFCURVE",
"542 7 OFFCURVE",
"552 11 CURVE",
"590 30 LINE",
"603 19 OFFCURVE",
"619 5 OFFCURVE",
"634 -12 CURVE",
"653 -31 OFFCURVE",
"661 -41 OFFCURVE",
"666 -45 CURVE"
);
},
{
closed = 1;
nodes = (
"339 4 OFFCURVE",
"307 9 OFFCURVE",
"276 17 CURVE SMOOTH",
"247 26 OFFCURVE",
"223 36 OFFCURVE",
"203 50 CURVE",
"183 65 OFFCURVE",
"171 75 OFFCURVE",
"167 81 CURVE",
"160 89 OFFCURVE",
"155 96 OFFCURVE",
"153 105 CURVE SMOOTH",
"151 111 OFFCURVE",
"153 122 OFFCURVE",
"158 137 CURVE SMOOTH",
"162 151 OFFCURVE",
"172 162 OFFCURVE",
"187 171 CURVE SMOOTH",
"203 180 OFFCURVE",
"222 185 OFFCURVE",
"243 185 CURVE SMOOTH",
"264 185 OFFCURVE",
"291 180 OFFCURVE",
"327 171 CURVE SMOOTH",
"383 157 OFFCURVE",
"426 144 OFFCURVE",
"454 130 CURVE",
"481 117 OFFCURVE",
"517 92 OFFCURVE",
"562 56 CURVE",
"537 40 OFFCURVE",
"507 27 OFFCURVE",
"472 19 CURVE SMOOTH",
"439 9 OFFCURVE",
"404 4 OFFCURVE",
"370 4 CURVE SMOOTH"
);
},
{
closed = 1;
nodes = (
"445 336 OFFCURVE",
"460 341 OFFCURVE",
"471 351 CURVE SMOOTH",
"482 359 OFFCURVE",
"489 371 OFFCURVE",
"494 387 CURVE",
"486 376 OFFCURVE",
"482 367 OFFCURVE",
"475 363 CURVE",
"472 359 OFFCURVE",
"462 354 OFFCURVE",
"444 351 CURVE SMOOTH",
"429 347 OFFCURVE",
"413 346 OFFCURVE",
"398 346 CURVE SMOOTH",
"380 346 OFFCURVE",
"362 349 OFFCURVE",
"342 356 CURVE",
"326 362 OFFCURVE",
"308 373 OFFCURVE",
"291 388 CURVE SMOOTH",
"272 404 OFFCURVE",
"257 419 OFFCURVE",
"247 433 CURVE",
"234 449 OFFCURVE",
"227 466 OFFCURVE",
"222 484 CURVE SMOOTH",
"220 495 OFFCURVE",
"218 514 OFFCURVE",
"220 543 CURVE",
"220 573 OFFCURVE",
"234 597 OFFCURVE",
"262 614 CURVE",
"292 630 OFFCURVE",
"332 639 OFFCURVE",
"385 639 CURVE SMOOTH",
"404 639 OFFCURVE",
"437 638 OFFCURVE",
"484 634 CURVE SMOOTH",
"530 630 OFFCURVE",
"564 629 OFFCURVE",
"587 629 CURVE SMOOTH",
"617 629 OFFCURVE",
"644 630 OFFCURVE",
"666 634 CURVE SMOOTH",
"689 638 OFFCURVE",
"709 644 OFFCURVE",
"730 653 CURVE SMOOTH",
"752 661 OFFCURVE",
"766 674 OFFCURVE",
"772 693 CURVE",
"756 685 OFFCURVE",
"740 680 OFFCURVE",
"724 678 CURVE",
"706 674 OFFCURVE",
"690 673 OFFCURVE",
"671 673 CURVE SMOOTH",
"651 673 OFFCURVE",
"615 676 OFFCURVE",
"553 685 CURVE SMOOTH",
"494 693 OFFCURVE",
"452 696 OFFCURVE",
"425 696 CURVE SMOOTH",
"410 696 LINE SMOOTH",
"404 696 OFFCURVE",
"398 696 OFFCURVE",
"389 695 CURVE",
"339 690 OFFCURVE",
"296 674 OFFCURVE",
"258 648 CURVE SMOOTH",
"221 620 OFFCURVE",
"203 592 OFFCURVE",
"204 560 CURVE SMOOTH",
"203 529 OFFCURVE",
"205 505 OFFCURVE",
"209 489 CURVE SMOOTH",
"214 469 OFFCURVE",
"222 451 OFFCURVE",
"232 434 CURVE SMOOTH",
"242 418 OFFCURVE",
"258 401 OFFCURVE",
"277 384 CURVE SMOOTH",
"296 368 OFFCURVE",
"317 356 OFFCURVE",
"342 348 CURVE",
"365 339 OFFCURVE",
"392 336 OFFCURVE",
"426 336 CURVE SMOOTH"
);
}
);
};
layerId = "0B1DFD06-3317-40CA-B510-4969A0718C16";
paths = (
{
closed = 1;
nodes = (
"442 88 OFFCURVE",
"317 225 OFFCURVE",
"146 225 CURVE SMOOTH",
"50 225 OFFCURVE",
"-11 174 OFFCURVE",
"-11 95 CURVE SMOOTH",
"-11 82 OFFCURVE",
"-9 69 OFFCURVE",
"-5 58 CURVE",
"29 17 OFFCURVE",
"122 -10 OFFCURVE",
"235 -10 CURVE SMOOTH",
"453 -10 OFFCURVE",
"658 133 OFFCURVE",
"658 332 CURVE SMOOTH",
"658 428 OFFCURVE",
"588 474 OFFCURVE",
"482 474 CURVE SMOOTH",
"405 474 OFFCURVE",
"350 442 OFFCURVE",
"316 388 CURVE",
"362 428 OFFCURVE",
"409 447 OFFCURVE",
"465 447 CURVE SMOOTH",
"560 447 OFFCURVE",
"618 409 OFFCURVE",
"618 326 CURVE SMOOTH",
"618 150 OFFCURVE",
"439 20 OFFCURVE",
"242 20 CURVE SMOOTH",
"136 20 OFFCURVE",
"57 34 OFFCURVE",
"25 57 CURVE",
"25 141 OFFCURVE",
"69 195 OFFCURVE",
"139 195 CURVE SMOOTH",
"295 195 OFFCURVE",
"419 86 OFFCURVE",
"502 -45 CURVE"
);
},
{
closed = 1;
nodes = (
"371 316 OFFCURVE",
"416 343 OFFCURVE",
"446 387 CURVE",
"409 359 OFFCURVE",
"372 346 OFFCURVE",
"329 346 CURVE SMOOTH",
"251 346 OFFCURVE",
"209 389 OFFCURVE",
"209 455 CURVE SMOOTH",
"209 565 OFFCURVE",
"307 680 OFFCURVE",
"423 680 CURVE SMOOTH",
"504 680 OFFCURVE",
"561 629 OFFCURVE",
"644 629 CURVE SMOOTH",
"702 629 OFFCURVE",
"753 654 OFFCURVE",
"792 693 CURVE",
"751 672 OFFCURVE",
"706 659 OFFCURVE",
"660 659 CURVE SMOOTH",
"569 659 OFFCURVE",
"522 710 OFFCURVE",
"431 710 CURVE SMOOTH",
"290 710 OFFCURVE",
"169 583 OFFCURVE",
"169 446 CURVE SMOOTH",
"169 365 OFFCURVE",
"223 316 OFFCURVE",
"308 316 CURVE SMOOTH"
);
}
);
width = 690;
},
{
associatedMasterId = "0B1DFD06-3317-40CA-B510-4969A0718C16";
layerId = "7030BA33-126E-45B3-85CA-A81464DB6ABD";
name = "Jul 14 18, 18:42";
paths = (
{
closed = 1;
nodes = (
"558 -7 LINE",
"529 34 LINE",
"559 46 OFFCURVE",
"589 65 OFFCURVE",
"619 89 CURVE SMOOTH",
"648 112 OFFCURVE",
"670 137 OFFCURVE",
"688 165 CURVE",
"699 186 OFFCURVE",
"706 207 OFFCURVE",
"715 228 CURVE",
"721 250 OFFCURVE",
"725 271 OFFCURVE",
"725 291 CURVE SMOOTH",
"725 306 OFFCURVE",
"723 322 OFFCURVE",
"719 338 CURVE",
"715 352 OFFCURVE",
"701 378 OFFCURVE",
"678 417 CURVE SMOOTH",
"655 456 OFFCURVE",
"609 474 OFFCURVE",
"539 474 CURVE SMOOTH",
"520 474 OFFCURVE",
"504 472 OFFCURVE",
"484 468 CURVE",
"464 463 OFFCURVE",
"448 456 OFFCURVE",
"434 447 CURVE SMOOTH",
"421 438 OFFCURVE",
"408 426 OFFCURVE",
"396 408 CURVE",
"406 417 OFFCURVE",
"414 421 OFFCURVE",
"423 429 CURVE",
"432 434 OFFCURVE",
"441 441 OFFCURVE",
"451 444 CURVE SMOOTH",
"461 448 OFFCURVE",
"472 451 OFFCURVE",
"483 454 CURVE",
"494 457 OFFCURVE",
"504 458 OFFCURVE",
"514 458 CURVE SMOOTH",
"533 458 OFFCURVE",
"553 453 OFFCURVE",
"577 439 CURVE",
"600 427 OFFCURVE",
"618 411 OFFCURVE",
"630 389 CURVE",
"641 368 OFFCURVE",
"648 342 OFFCURVE",
"648 308 CURVE SMOOTH",
"648 255 OFFCURVE",
"635 207 OFFCURVE",
"612 163 CURVE",
"587 122 OFFCURVE",
"552 89 OFFCURVE",
"508 64 CURVE",
"482 92 OFFCURVE",
"458 115 OFFCURVE",
"436 131 CURVE SMOOTH",
"412 147 OFFCURVE",
"386 165 OFFCURVE",
"354 182 CURVE",
"321 198 OFFCURVE",
"295 210 OFFCURVE",
"273 216 CURVE SMOOTH",
"253 222 OFFCURVE",
"231 225 OFFCURVE",
"207 225 CURVE SMOOTH",
"183 225 OFFCURVE",
"163 221 OFFCURVE",
"147 215 CURVE",
"129 208 OFFCURVE",
"111 198 OFFCURVE",
"95 183 CURVE",
"79 170 OFFCURVE",
"71 152 OFFCURVE",
"71 131 CURVE SMOOTH",
"71 121 OFFCURVE",
"77 104 OFFCURVE",
"91 80 CURVE",
"104 54 OFFCURVE",
"130 34 OFFCURVE",
"170 17 CURVE SMOOTH",
"208 1 OFFCURVE",
"256 -7 OFFCURVE",
"312 -7 CURVE SMOOTH",
"333 -7 OFFCURVE",
"353 -6 OFFCURVE",
"374 -5 CURVE",
"394 -1 OFFCURVE",
"414 0 OFFCURVE",
"433 1 CURVE",
"452 5 OFFCURVE",
"466 7 OFFCURVE",
"477 11 CURVE",
"519 30 LINE",
"530 19 OFFCURVE",
"542 5 OFFCURVE",
"553 -12 CURVE",
"567 -31 OFFCURVE",
"573 -41 OFFCURVE",
"577 -45 CURVE"
);
},
{
closed = 1;
nodes = (
"262 4 OFFCURVE",
"231 9 OFFCURVE",
"202 17 CURVE SMOOTH",
"175 26 OFFCURVE",
"154 36 OFFCURVE",
"137 50 CURVE",
"121 65 OFFCURVE",
"112 75 OFFCURVE",
"109 81 CURVE",
"104 89 OFFCURVE",
"101 96 OFFCURVE",
"101 105 CURVE SMOOTH",
"101 111 OFFCURVE",
"105 122 OFFCURVE",
"114 137 CURVE SMOOTH",
"121 151 OFFCURVE",
"134 162 OFFCURVE",
"151 171 CURVE SMOOTH",
"170 180 OFFCURVE",
"190 185 OFFCURVE",
"211 185 CURVE SMOOTH",
"232 185 OFFCURVE",
"258 180 OFFCURVE",
"291 171 CURVE SMOOTH",
"344 157 OFFCURVE",
"384 144 OFFCURVE",
"408 130 CURVE",
"432 117 OFFCURVE",
"462 92 OFFCURVE",
"498 56 CURVE",
"469 40 OFFCURVE",
"436 27 OFFCURVE",
"399 19 CURVE SMOOTH",
"363 9 OFFCURVE",
"327 4 OFFCURVE",
"293 4 CURVE SMOOTH"
);
},
{
closed = 1;
nodes = (
"451 336 OFFCURVE",
"467 341 OFFCURVE",
"480 351 CURVE SMOOTH",
"493 359 OFFCURVE",
"503 371 OFFCURVE",
"512 387 CURVE",
"502 376 OFFCURVE",
"495 367 OFFCURVE",
"487 363 CURVE",
"483 359 OFFCURVE",
"472 354 OFFCURVE",
"453 351 CURVE SMOOTH",
"437 347 OFFCURVE",
"421 346 OFFCURVE",
"406 346 CURVE SMOOTH",
"388 346 OFFCURVE",
"371 349 OFFCURVE",
"353 356 CURVE",
"338 362 OFFCURVE",
"323 373 OFFCURVE",
"310 388 CURVE SMOOTH",
"295 404 OFFCURVE",
"283 419 OFFCURVE",
"277 433 CURVE",
"268 449 OFFCURVE",
"265 466 OFFCURVE",
"265 484 CURVE SMOOTH",
"265 495 OFFCURVE",
"268 514 OFFCURVE",
"277 543 CURVE",
"285 573 OFFCURVE",
"305 597 OFFCURVE",
"337 614 CURVE",
"371 630 OFFCURVE",
"413 639 OFFCURVE",
"466 639 CURVE SMOOTH",
"485 639 OFFCURVE",
"518 638 OFFCURVE",
"564 634 CURVE SMOOTH",
"609 630 OFFCURVE",
"643 629 OFFCURVE",
"666 629 CURVE SMOOTH",
"696 629 OFFCURVE",
"723 630 OFFCURVE",
"746 634 CURVE SMOOTH",
"770 638 OFFCURVE",
"791 644 OFFCURVE",
"815 653 CURVE SMOOTH",
"839 661 OFFCURVE",
"856 674 OFFCURVE",
"867 693 CURVE",
"849 685 OFFCURVE",
"831 680 OFFCURVE",
"815 678 CURVE",
"796 674 OFFCURVE",
"780 673 OFFCURVE",
"761 673 CURVE SMOOTH",
"741 673 OFFCURVE",
"705 676 OFFCURVE",
"646 685 CURVE SMOOTH",
"589 693 OFFCURVE",
"547 696 OFFCURVE",
"520 696 CURVE SMOOTH",
"505 696 LINE SMOOTH",
"499 696 OFFCURVE",
"493 696 OFFCURVE",
"484 695 CURVE",
"433 690 OFFCURVE",
"386 674 OFFCURVE",
"341 648 CURVE SMOOTH",
"297 620 OFFCURVE",
"272 592 OFFCURVE",
"265 560 CURVE SMOOTH",
"257 529 OFFCURVE",
"253 505 OFFCURVE",
"253 489 CURVE SMOOTH",
"253 469 OFFCURVE",
"256 451 OFFCURVE",
"262 434 CURVE SMOOTH",
"268 418 OFFCURVE",
"280 401 OFFCURVE",
"295 384 CURVE SMOOTH",
"310 368 OFFCURVE",
"328 356 OFFCURVE",
"351 348 CURVE",
"371 339 OFFCURVE",
"398 336 OFFCURVE",
"432 336 CURVE SMOOTH"
);
}
);
width = 701;
}
);
note = S;
unicode = 0053;
},
{
color = 1;
glyphname = T;
lastChange = "2018-07-19 12:45:06 +0000";
layers = (
{
anchors = (
{
name = bottom;
position = "{250, 0}";
},
{
name = center;
position = "{338, 350}";
},
{
name = top;
position = "{425, 700}";
}
);
background = {
paths = (
{
closed = 1;
nodes = (
"143 432 LINE",
"145 437 LINE"
);
},
{
closed = 1;
nodes = (
"119 427 OFFCURVE",
"119 287 CURVE SMOOTH",
"119 105 OFFCURVE",
"251 -10 OFFCURVE",
"458 -10 CURVE SMOOTH",
"552 -10 OFFCURVE",
"632 55 OFFCURVE",
"665 158 CURVE",
"632 74 OFFCURVE",
"552 20 OFFCURVE",
"458 20 CURVE SMOOTH",
"275 20 OFFCURVE",
"158 124 OFFCURVE",
"158 287 CURVE SMOOTH",
"158 421 OFFCURVE",
"219 533 OFFCURVE",
"314 575 CURVE",
"195 539 OFFCURVE"
);
},
{
closed = 1;
nodes = (
"109 461 OFFCURVE",
"84 488 OFFCURVE",
"71 514 CURVE SMOOTH",
"64 529 OFFCURVE",
"61 549 OFFCURVE",
"63 574 CURVE SMOOTH",
"65 598 OFFCURVE",
"80 617 OFFCURVE",
"110 630 CURVE SMOOTH",
"137 644 OFFCURVE",
"175 650 OFFCURVE",
"224 650 CURVE SMOOTH",
"247 650 OFFCURVE",
"290 648 OFFCURVE",
"356 641 CURVE SMOOTH",
"420 635 OFFCURVE",
"465 631 OFFCURVE",
"488 631 CURVE SMOOTH",
"538 631 OFFCURVE",
"581 636 OFFCURVE",
"615 646 CURVE SMOOTH",
"646 655 OFFCURVE",
"670 674 OFFCURVE",
"683 701 CURVE",
"677 703 OFFCURVE",
"672 700 OFFCURVE",
"665 694 CURVE SMOOTH",
"658 688 OFFCURVE",
"652 684 OFFCURVE",
"647 683 CURVE SMOOTH",
"626 676 OFFCURVE",
"600 675 OFFCURVE",
"574 675 CURVE SMOOTH",
"550 675 OFFCURVE",
"507 679 OFFCURVE",
"439 688 CURVE SMOOTH",
"373 698 OFFCURVE",
"325 701 OFFCURVE",
"295 701 CURVE SMOOTH",
"281 701 OFFCURVE",
"267 701 OFFCURVE",
"252 700 CURVE SMOOTH",
"236 699 OFFCURVE",
"213 695 OFFCURVE",
"179 686 CURVE SMOOTH",
"145 679 OFFCURVE",
"114 664 OFFCURVE",
"88 640 CURVE",
"62 621 OFFCURVE",
"49 601 OFFCURVE",
"49 579 CURVE SMOOTH",
"49 576 OFFCURVE",
"49 572 OFFCURVE",
"50 568 CURVE",
"54 543 OFFCURVE",
"58 528 OFFCURVE",
"60 524 CURVE SMOOTH",
"62 520 OFFCURVE",
"63 515 OFFCURVE",
"66 509 CURVE SMOOTH",
"73 495 OFFCURVE",
"83 482 OFFCURVE",
"96 468 CURVE",
"109 456 OFFCURVE",
"126 443 OFFCURVE",
"143 432 CURVE",
"216 403 OFFCURVE",
"240 399 OFFCURVE",
"265 399 CURVE SMOOTH",
"307 399 OFFCURVE",
"339 409 OFFCURVE",
"359 431 CURVE",
"382 452 OFFCURVE",
"402 475 OFFCURVE",
"424 500 CURVE",
"424 487 OFFCURVE",
"424 475 OFFCURVE",
"424 462 CURVE SMOOTH",
"424 437 OFFCURVE",
"424 411 OFFCURVE",
"421 386 CURVE SMOOTH",
"417 347 OFFCURVE",
"412 302 OFFCURVE",
"404 248 CURVE SMOOTH",
"385 119 LINE",
"390 119 OFFCURVE",
"400 117 OFFCURVE",
"410 117 CURVE",
"422 116 OFFCURVE",
"432 116 OFFCURVE",
"442 116 CURVE SMOOTH",
"451 116 OFFCURVE",
"461 116 OFFCURVE",
"469 117 CURVE SMOOTH",
"476 119 OFFCURVE",
"485 119 OFFCURVE",
"490 122 CURVE",
"476 175 OFFCURVE",
"467 226 OFFCURVE",
"463 275 CURVE",
"456 326 OFFCURVE",
"452 379 OFFCURVE",
"448 434 CURVE SMOOTH",
"438 597 LINE",
"431 597 LINE",
"432 579 OFFCURVE",
"430 563 OFFCURVE",
"426 548 CURVE SMOOTH",
"423 534 OFFCURVE",
"413 515 OFFCURVE",
"399 490 CURVE SMOOTH",
"384 467 OFFCURVE",
"367 447 OFFCURVE",
"344 431 CURVE SMOOTH",
"321 414 OFFCURVE",
"293 407 OFFCURVE",
"262 407 CURVE SMOOTH",
"240 407 OFFCURVE",
"217 411 OFFCURVE",
"145 437 CURVE"
);
}
);
};
layerId = "0B1DFD06-3317-40CA-B510-4969A0718C16";
paths = (
{
closed = 1;
nodes = (
"412 119 LINE",
"408 132 OFFCURVE",
"412 168 OFFCURVE",
"423 211 CURVE SMOOTH",
"519 593 LINE",
"511 593 LINE",
"421 495 OFFCURVE",
"341 413 OFFCURVE",
"238 413 CURVE SMOOTH",
"201 413 OFFCURVE",
"160 424 OFFCURVE",
"130 451 CURVE",
"129 462 OFFCURVE",
"128 474 OFFCURVE",
"128 485 CURVE SMOOTH",
"128 605 OFFCURVE",
"201 680 OFFCURVE",
"321 680 CURVE SMOOTH",
"418 680 OFFCURVE",
"532 629 OFFCURVE",
"615 629 CURVE SMOOTH",
"673 629 OFFCURVE",
"724 654 OFFCURVE",
"763 693 CURVE",
"721 672 OFFCURVE",
"677 659 OFFCURVE",
"631 659 CURVE SMOOTH",
"540 659 OFFCURVE",
"436 710 OFFCURVE",
"329 710 CURVE SMOOTH",
"197 710 OFFCURVE",
"94 631 OFFCURVE",
"94 506 CURVE SMOOTH",
"94 484 OFFCURVE",
"98 464 OFFCURVE",
"105 446 CURVE",
"125 405 OFFCURVE",
"174 383 OFFCURVE",
"232 383 CURVE SMOOTH",
"317 383 OFFCURVE",
"390 431 OFFCURVE",
"460 504 CURVE",
"464 502 LINE",
"449 462 OFFCURVE",
"439 428 OFFCURVE",
"427 378 CURVE SMOOTH",
"385 211 LINE SMOOTH",
"371 155 OFFCURVE",
"365 137 OFFCURVE",
"350 119 CURVE"
);
},
{
closed = 1;
nodes = (
"466 -10 OFFCURVE",
"571 50 OFFCURVE",
"625 158 CURVE",
"567 74 OFFCURVE",
"478 20 OFFCURVE",
"355 20 CURVE SMOOTH",
"258 20 OFFCURVE",
"175 52 OFFCURVE",
"131 101 CURVE",
"130 115 OFFCURVE",
"129 129 OFFCURVE",
"129 143 CURVE SMOOTH",
"129 314 OFFCURVE",
"231 516 OFFCURVE",
"378 575 CURVE",
"206 527 OFFCURVE",
"94 346 OFFCURVE",
"94 166 CURVE SMOOTH",
"94 143 OFFCURVE",
"97 123 OFFCURVE",
"101 104 CURVE",
"133 40 OFFCURVE",
"196 -10 OFFCURVE",
"334 -10 CURVE SMOOTH"
);
}
);
width = 617;
},
{
associatedMasterId = "0B1DFD06-3317-40CA-B510-4969A0718C16";
layerId = "A97BD43D-58CF-45BB-A17B-CE3CE61A4233";
name = "Jul 14 18, 23:49";
paths = (
{
closed = 1;
nodes = (
"311 -1 LINE SMOOTH",
"364 -1 OFFCURVE",
"416 12 OFFCURVE",
"464 40 CURVE SMOOTH",
"513 66 OFFCURVE",
"558 104 OFFCURVE",
"604 150 CURVE",
"597 158 LINE",
"563 120 OFFCURVE",
"529 94 OFFCURVE",
"495 70 CURVE",
"462 49 OFFCURVE",
"423 37 OFFCURVE",
"381 37 CURVE SMOOTH",
"339 37 OFFCURVE",
"305 42 OFFCURVE",
"276 51 CURVE",
"247 61 OFFCURVE",
"225 76 OFFCURVE",
"208 97 CURVE SMOOTH",
"192 120 OFFCURVE",
"181 139 OFFCURVE",
"176 154 CURVE SMOOTH",
"171 170 OFFCURVE",
"168 187 OFFCURVE",
"168 208 CURVE SMOOTH",
"168 222 OFFCURVE",
"171 238 OFFCURVE",
"175 257 CURVE SMOOTH",
"178 273 OFFCURVE",
"182 291 OFFCURVE",
"187 307 CURVE",
"197 331 OFFCURVE",
"206 349 OFFCURVE",
"215 366 CURVE",
"222 382 OFFCURVE",
"235 397 OFFCURVE",
"251 412 CURVE",
"271 403 OFFCURVE",
"293 399 OFFCURVE",
"317 399 CURVE SMOOTH",
"359 399 OFFCURVE",
"396 409 OFFCURVE",
"427 431 CURVE",
"461 452 OFFCURVE",
"492 475 OFFCURVE",
"527 500 CURVE",
"508 462 OFFCURVE",
"490 424 OFFCURVE",
"467 386 CURVE SMOOTH",
"443 347 OFFCURVE",
"416 302 OFFCURVE",
"381 248 CURVE SMOOTH",
"298 119 LINE",
"303 119 OFFCURVE",
"312 117 OFFCURVE",
"322 117 CURVE",
"333 116 OFFCURVE",
"343 116 OFFCURVE",
"353 116 CURVE SMOOTH",
"362 116 OFFCURVE",
"372 116 OFFCURVE",
"381 117 CURVE SMOOTH",
"389 119 OFFCURVE",
"398 119 OFFCURVE",
"404 122 CURVE",
"417 175 OFFCURVE",
"433 226 OFFCURVE",
"453 275 CURVE",
"472 326 OFFCURVE",
"494 379 OFFCURVE",
"518 434 CURVE SMOOTH",
"589 597 LINE",
"582 597 LINE",
"574 579 OFFCURVE",
"564 563 OFFCURVE",
"553 548 CURVE SMOOTH",
"543 534 OFFCURVE",
"523 515 OFFCURVE",
"497 490 CURVE SMOOTH",
"470 467 OFFCURVE",
"443 447 OFFCURVE",
"412 431 CURVE SMOOTH",
"381 414 OFFCURVE",
"349 407 OFFCURVE",
"318 407 CURVE SMOOTH",
"297 407 OFFCURVE",
"276 411 OFFCURVE",
"255 418 CURVE",
"278 453 OFFCURVE",
"307 484 OFFCURVE",
"341 510 CURVE",
"376 535 OFFCURVE",
"414 557 OFFCURVE",
"454 570 CURVE",
"454 575 LINE",
"413 564 OFFCURVE",
"372 548 OFFCURVE",
"331 524 CURVE SMOOTH",
"291 500 OFFCURVE",
"252 472 OFFCURVE",
"216 438 CURVE",
"192 462 OFFCURVE",
"181 488 OFFCURVE",
"181 514 CURVE SMOOTH",
"181 529 OFFCURVE",
"188 549 OFFCURVE",
"203 574 CURVE SMOOTH",
"217 598 OFFCURVE",
"241 617 OFFCURVE",
"277 630 CURVE SMOOTH",
"311 644 OFFCURVE",
"352 650 OFFCURVE",
"401 650 CURVE SMOOTH",
"424 650 OFFCURVE",
"466 648 OFFCURVE",
"529 641 CURVE SMOOTH",
"590 635 OFFCURVE",
"633 631 OFFCURVE",
"656 631 CURVE SMOOTH",
"706 631 OFFCURVE",
"751 636 OFFCURVE",
"790 646 CURVE SMOOTH",
"826 655 OFFCURVE",
"859 674 OFFCURVE",
"886 701 CURVE",
"881 703 OFFCURVE",
"874 700 OFFCURVE",
"864 694 CURVE SMOOTH",
"854 688 OFFCURVE",
"846 684 OFFCURVE",
"841 683 CURVE SMOOTH",
"816 676 OFFCURVE",
"790 675 OFFCURVE",
"764 675 CURVE SMOOTH",
"740 675 OFFCURVE",
"699 679 OFFCURVE",
"635 688 CURVE SMOOTH",
"574 698 OFFCURVE",
"528 701 OFFCURVE",
"498 701 CURVE SMOOTH",
"484 701 OFFCURVE",
"470 701 OFFCURVE",
"454 700 CURVE SMOOTH",
"438 699 OFFCURVE",
"413 695 OFFCURVE",
"374 686 CURVE SMOOTH",
"337 679 OFFCURVE",
"298 664 OFFCURVE",
"260 640 CURVE",
"218 618 OFFCURVE",
"195 594 OFFCURVE",
"187 568 CURVE",
"178 543 OFFCURVE",
"175 528 OFFCURVE",
"175 524 CURVE SMOOTH",
"175 520 OFFCURVE",
"173 515 OFFCURVE",
"173 509 CURVE SMOOTH",
"173 495 OFFCURVE",
"177 482 OFFCURVE",
"183 468 CURVE",
"190 456 OFFCURVE",
"200 444 OFFCURVE",
"211 433 CURVE",
"178 397 OFFCURVE",
"151 358 OFFCURVE",
"130 316 CURVE SMOOTH",
"110 275 OFFCURVE",
"100 233 OFFCURVE",
"100 192 CURVE SMOOTH",
"100 163 OFFCURVE",
"105 137 OFFCURVE",
"115 111 CURVE SMOOTH",
"126 84 OFFCURVE",
"145 61 OFFCURVE",
"170 42 CURVE SMOOTH",
"197 22 OFFCURVE",
"222 11 OFFCURVE",
"243 7 CURVE SMOOTH",
"286 -1 LINE"
);
}
);
width = 628;
}
);
note = T;
unicode = 0054;
},
{
color = 1;
glyphname = U;
lastChange = "2018-07-19 12:45:06 +0000";
layers = (
{
anchors = (
{
name = bottom;
position = "{285, 0}";
},
{
name = ogonek;
position = "{563, 10}";
},
{
name = top;
position = "{612, 700}";
},
{
name = topright;
position = "{784, 700}";
}
);
background = {
paths = (
{
closed = 1;
nodes = (
"448 -12 OFFCURVE",
"480 0 OFFCURVE",
"503 26 CURVE SMOOTH",
"525 51 OFFCURVE",
"543 85 OFFCURVE",
"557 127 CURVE SMOOTH",
"595 247 LINE",
"597 220 OFFCURVE",
"598 193 OFFCURVE",
"596 170 CURVE SMOOTH",
"594 145 OFFCURVE",
"592 117 OFFCURVE",
"586 91 CURVE SMOOTH",
"572 9 LINE",
"585 6 OFFCURVE",
"594 5 OFFCURVE",
"602 5 CURVE",
"609 4 OFFCURVE",
"620 4 OFFCURVE",
"635 4 CURVE SMOOTH",
"641 4 OFFCURVE",
"652 4 OFFCURVE",
"665 5 CURVE",
"698 5 LINE",
"677 84 OFFCURVE",
"663 160 OFFCURVE",
"653 232 CURVE SMOOTH",
"644 306 OFFCURVE",
"638 378 OFFCURVE",
"635 449 CURVE SMOOTH",
"631 696 LINE",
"617 700 LINE",
"616 660 OFFCURVE",
"610 626 OFFCURVE",
"599 600 CURVE SMOOTH",
"587 575 OFFCURVE",
"574 557 OFFCURVE",
"556 543 CURVE SMOOTH",
"539 529 OFFCURVE",
"523 523 OFFCURVE",
"510 523 CURVE SMOOTH",
"501 523 OFFCURVE",
"492 524 OFFCURVE",
"484 528 CURVE SMOOTH",
"477 532 OFFCURVE",
"469 535 OFFCURVE",
"463 539 CURVE",
"456 545 OFFCURVE",
"453 550 OFFCURVE",
"452 552 CURVE SMOOTH",
"450 555 OFFCURVE",
"449 560 OFFCURVE",
"450 564 CURVE SMOOTH",
"450 568 OFFCURVE",
"452 573 OFFCURVE",
"457 579 CURVE",
"460 585 OFFCURVE",
"469 588 OFFCURVE",
"483 588 CURVE SMOOTH",
"494 588 OFFCURVE",
"504 587 OFFCURVE",
"519 583 CURVE",
"510 588 OFFCURVE",
"501 592 OFFCURVE",
"491 594 CURVE SMOOTH",
"479 597 OFFCURVE",
"469 598 OFFCURVE",
"459 598 CURVE SMOOTH",
"450 598 OFFCURVE",
"440 595 OFFCURVE",
"429 592 CURVE",
"421 585 OFFCURVE",
"415 579 OFFCURVE",
"416 572 CURVE",
"412 565 OFFCURVE",
"414 557 OFFCURVE",
"420 545 CURVE SMOOTH",
"423 539 OFFCURVE",
"426 535 OFFCURVE",
"428 533 CURVE SMOOTH",
"433 528 OFFCURVE",
"439 524 OFFCURVE",
"447 520 CURVE",
"473 510 LINE",
"483 509 OFFCURVE",
"492 508 OFFCURVE",
"500 508 CURVE SMOOTH",
"524 508 OFFCURVE",
"544 514 OFFCURVE",
"557 527 CURVE SMOOTH",
"570 539 OFFCURVE",
"589 560 OFFCURVE",
"611 589 CURVE",
"618 565 OFFCURVE",
"620 545 OFFCURVE",
"620 524 CURVE",
"618 504 OFFCURVE",
"619 487 OFFCURVE",
"617 473 CURVE SMOOTH",
"615 459 OFFCURVE",
"607 424 OFFCURVE",
"598 366 CURVE SMOOTH",
"589 307 OFFCURVE",
"580 262 OFFCURVE",
"572 231 CURVE",
"565 197 OFFCURVE",
"550 166 OFFCURVE",
"531 131 CURVE SMOOTH",
"513 97 OFFCURVE",
"496 72 OFFCURVE",
"473 59 CURVE",
"454 45 OFFCURVE",
"441 39 OFFCURVE",
"437 35 CURVE",
"432 34 OFFCURVE",
"424 32 OFFCURVE",
"415 32 CURVE SMOOTH",
"404 32 OFFCURVE",
"389 35 OFFCURVE",
"375 41 CURVE SMOOTH",
"361 47 OFFCURVE",
"346 55 OFFCURVE",
"330 69 CURVE",
"313 82 OFFCURVE",
"297 97 OFFCURVE",
"285 114 CURVE",
"272 130 OFFCURVE",
"261 147 OFFCURVE",
"252 166 CURVE SMOOTH",
"242 187 OFFCURVE",
"234 211 OFFCURVE",
"228 236 CURVE",
"221 262 OFFCURVE",
"219 295 OFFCURVE",
"220 331 CURVE",
"246 322 OFFCURVE",
"268 317 OFFCURVE",
"283 317 CURVE SMOOTH",
"292 317 OFFCURVE",
"301 318 OFFCURVE",
"311 321 CURVE",
"320 324 OFFCURVE",
"333 327 OFFCURVE",
"346 333 CURVE",
"359 338 OFFCURVE",
"369 349 OFFCURVE",
"376 364 CURVE SMOOTH",
"384 379 OFFCURVE",
"386 398 OFFCURVE",
"383 419 CURVE SMOOTH",
"382 423 OFFCURVE",
"381 424 OFFCURVE",
"379 424 CURVE",
"375 426 OFFCURVE",
"373 426 OFFCURVE",
"373 424 CURVE",
"372 398 OFFCURVE",
"371 378 OFFCURVE",
"367 368 CURVE SMOOTH",
"363 357 OFFCURVE",
"352 348 OFFCURVE",
"336 342 CURVE SMOOTH",
"305 331 LINE SMOOTH",
"302 329 OFFCURVE",
"293 329 OFFCURVE",
"282 329 CURVE SMOOTH",
"272 329 OFFCURVE",
"263 328 OFFCURVE",
"253 332 CURVE",
"243 334 OFFCURVE",
"231 338 OFFCURVE",
"218 343 CURVE",
"224 413 OFFCURVE",
"241 478 OFFCURVE",
"267 539 CURVE SMOOTH",
"293 599 OFFCURVE",
"328 653 OFFCURVE",
"373 700 CURVE",
"368 701 LINE",
"348 688 OFFCURVE",
"318 679 OFFCURVE",
"282 673 CURVE SMOOTH",
"174 656 LINE",
"136 649 OFFCURVE",
"108 635 OFFCURVE",
"87 617 CURVE SMOOTH",
"67 597 OFFCURVE",
"55 573 OFFCURVE",
"48 547 CURVE SMOOTH",
"43 520 OFFCURVE",
"49 489 OFFCURVE",
"65 456 CURVE SMOOTH",
"76 434 OFFCURVE",
"88 416 OFFCURVE",
"105 398 CURVE SMOOTH",
"122 379 OFFCURVE",
"140 366 OFFCURVE",
"160 354 CURVE",
"153 326 OFFCURVE",
"150 298 OFFCURVE",
"152 272 CURVE SMOOTH",
"153 246 OFFCURVE",
"158 220 OFFCURVE",
"167 193 CURVE",
"173 167 OFFCURVE",
"182 144 OFFCURVE",
"192 124 CURVE SMOOTH",
"205 97 OFFCURVE",
"222 74 OFFCURVE",
"242 54 CURVE",
"261 34 OFFCURVE",
"281 20 OFFCURVE",
"304 11 CURVE SMOOTH",
"327 2 OFFCURVE",
"346 -5 OFFCURVE",
"364 -9 CURVE",
"379 -11 OFFCURVE",
"393 -12 OFFCURVE",
"407 -12 CURVE SMOOTH"
);
},
{
closed = 1;
nodes = (
"139 381 OFFCURVE",
"121 396 OFFCURVE",
"108 412 CURVE SMOOTH",
"96 427 OFFCURVE",
"83 446 OFFCURVE",
"73 467 CURVE SMOOTH",
"60 492 OFFCURVE",
"57 517 OFFCURVE",
"64 540 CURVE",
"67 565 OFFCURVE",
"86 592 OFFCURVE",
"117 620 CURVE",
"134 634 OFFCURVE",
"159 644 OFFCURVE",
"193 648 CURVE SMOOTH",
"223 651 OFFCURVE",
"263 655 OFFCURVE",
"309 659 CURVE",
"244 559 LINE SMOOTH",
"225 530 OFFCURVE",
"210 502 OFFCURVE",
"196 468 CURVE SMOOTH",
"182 437 OFFCURVE",
"170 403 OFFCURVE",
"162 367 CURVE"
);
}
);
};
layerId = "0B1DFD06-3317-40CA-B510-4969A0718C16";
paths = (
{
closed = 1;
nodes = (
"418 -10 OFFCURVE",
"517 84 OFFCURVE",
"610 296 CURVE",
"625 366 LINE",
"612 366 LINE",
"502 121 OFFCURVE",
"408 20 OFFCURVE",
"314 20 CURVE SMOOTH",
"249 20 OFFCURVE",
"194 55 OFFCURVE",
"168 108 CURVE",
"178 366 OFFCURVE",
"266 503 OFFCURVE",
"462 700 CURVE",
"454 700 LINE",
"424 687 OFFCURVE",
"396 679 OFFCURVE",
"366 674 CURVE SMOOTH",
"206 649 OFFCURVE",
"77 576 OFFCURVE",
"77 443 CURVE SMOOTH",
"77 362 OFFCURVE",
"146 317 OFFCURVE",
"233 317 CURVE SMOOTH",
"316 317 OFFCURVE",
"363 357 OFFCURVE",
"401 419 CURVE",
"352 364 OFFCURVE",
"309 347 OFFCURVE",
"253 347 CURVE SMOOTH",
"188 347 OFFCURVE",
"117 381 OFFCURVE",
"117 452 CURVE SMOOTH",
"117 563 OFFCURVE",
"226 625 OFFCURVE",
"369 647 CURVE",
"231 506 OFFCURVE",
"134 332 OFFCURVE",
"134 159 CURVE SMOOTH",
"134 143 OFFCURVE",
"135 129 OFFCURVE",
"137 113 CURVE",
"158 44 OFFCURVE",
"213 -10 OFFCURVE",
"306 -10 CURVE SMOOTH"
);
},
{
closed = 1;
nodes = (
"571 0 LINE",
"567 12 OFFCURVE",
"571 48 OFFCURVE",
"582 92 CURVE SMOOTH",
"734 700 LINE",
"726 700 LINE",
"634 600 OFFCURVE",
"559 536 OFFCURVE",
"498 536 CURVE SMOOTH",
"476 536 OFFCURVE",
"462 545 OFFCURVE",
"462 559 CURVE SMOOTH",
"462 578 OFFCURVE",
"479 594 OFFCURVE",
"507 594 CURVE SMOOTH",
"520 594 OFFCURVE",
"540 591 OFFCURVE",
"555 576 CURVE",
"556 606 OFFCURVE",
"540 623 OFFCURVE",
"504 623 CURVE SMOOTH",
"459 623 OFFCURVE",
"423 593 OFFCURVE",
"423 552 CURVE SMOOTH",
"423 522 OFFCURVE",
"447.004 505 OFFCURVE",
"485 505 CURVE SMOOTH",
"543 505 OFFCURVE",
"609 546 OFFCURVE",
"675 611 CURVE",
"679 609 LINE",
"664 569 OFFCURVE",
"654 535 OFFCURVE",
"642 485 CURVE SMOOTH",
"544 92 LINE SMOOTH",
"530 36 OFFCURVE",
"523 18 OFFCURVE",
"509 0 CURVE"
);
}
);
width = 688;
},
{
associatedMasterId = "0B1DFD06-3317-40CA-B510-4969A0718C16";
layerId = "FCC455E4-D54A-4868-A7C8-05AB0779D2A1";
name = "Jul 15 18, 01:38";
paths = (
{
closed = 1;
nodes = (
"263 -12 OFFCURVE",
"301 0 OFFCURVE",
"337 26 CURVE SMOOTH",
"372 51 OFFCURVE",
"407 85 OFFCURVE",
"442 127 CURVE SMOOTH",
"539 247 LINE",
"528 220 OFFCURVE",
"515 193 OFFCURVE",
"502 170 CURVE SMOOTH",
"488 145 OFFCURVE",
"472 117 OFFCURVE",
"453 91 CURVE SMOOTH",
"398 9 LINE",
"409 6 OFFCURVE",
"418 5 OFFCURVE",
"426 5 CURVE",
"432 4 OFFCURVE",
"443 4 OFFCURVE",
"458 4 CURVE SMOOTH",
"464 4 OFFCURVE",
"475 4 OFFCURVE",
"489 5 CURVE",
"522 5 LINE",
"540 84 OFFCURVE",
"564 160 OFFCURVE",
"590 232 CURVE SMOOTH",
"618 306 OFFCURVE",
"648 378 OFFCURVE",
"680 449 CURVE SMOOTH",
"799 696 LINE",
"787 700 LINE",
"766 660 OFFCURVE",
"743 626 OFFCURVE",
"719 600 CURVE SMOOTH",
"695 575 OFFCURVE",
"673 557 OFFCURVE",
"648 543 CURVE SMOOTH",
"624 529 OFFCURVE",
"605 523 OFFCURVE",
"592 523 CURVE SMOOTH",
"583 523 OFFCURVE",
"575 524 OFFCURVE",
"569 528 CURVE SMOOTH",
"563 532 OFFCURVE",
"557 535 OFFCURVE",
"553 539 CURVE",
"549 545 OFFCURVE",
"548 550 OFFCURVE",
"548 552 CURVE SMOOTH",
"548 555 OFFCURVE",
"549 560 OFFCURVE",
"552 564 CURVE SMOOTH",
"554 568 OFFCURVE",
"559 573 OFFCURVE",
"567 579 CURVE",
"573 585 OFFCURVE",
"583 588 OFFCURVE",
"597 588 CURVE SMOOTH",
"608 588 OFFCURVE",
"618 587 OFFCURVE",
"631 583 CURVE",
"624 588 OFFCURVE",
"617 592 OFFCURVE",
"608 594 CURVE SMOOTH",
"598 597 OFFCURVE",
"588 598 OFFCURVE",
"578 598 CURVE SMOOTH",
"569 598 OFFCURVE",
"558 595 OFFCURVE",
"545 592 CURVE",
"534 585 OFFCURVE",
"525 579 OFFCURVE",
"522 572 CURVE",
"515 565 OFFCURVE",
"513 557 OFFCURVE",
"513 545 CURVE SMOOTH",
"513 539 OFFCURVE",
"514 535 OFFCURVE",
"515 533 CURVE SMOOTH",
"518 528 OFFCURVE",
"522 524 OFFCURVE",
"528 520 CURVE",
"549 510 LINE",
"558 509 OFFCURVE",
"567 508 OFFCURVE",
"575 508 CURVE SMOOTH",
"599 508 OFFCURVE",
"622 514 OFFCURVE",
"641 527 CURVE SMOOTH",
"660 539 OFFCURVE",
"689 560 OFFCURVE",
"726 589 CURVE",
"721 565 OFFCURVE",
"713 545 OFFCURVE",
"703 524 CURVE",
"691 504 OFFCURVE",
"683 487 OFFCURVE",
"674 473 CURVE SMOOTH",
"665 459 OFFCURVE",
"640 424 OFFCURVE",
"602 366 CURVE SMOOTH",
"563 307 OFFCURVE",
"532 262 OFFCURVE",
"508 231 CURVE",
"484 197 OFFCURVE",
"454 166 OFFCURVE",
"418 131 CURVE SMOOTH",
"383 97 OFFCURVE",
"353 72 OFFCURVE",
"324 59 CURVE",
"298 45 OFFCURVE",
"282 39 OFFCURVE",
"276 35 CURVE",
"270 34 OFFCURVE",
"261 32 OFFCURVE",
"252 32 CURVE SMOOTH",
"241 32 OFFCURVE",
"228 35 OFFCURVE",
"217 41 CURVE SMOOTH",
"206 47 OFFCURVE",
"195 55 OFFCURVE",
"186 69 CURVE",
"175 82 OFFCURVE",
"167 97 OFFCURVE",
"163 114 CURVE",
"158 130 OFFCURVE",
"156 147 OFFCURVE",
"156 166 CURVE SMOOTH",
"156 187 OFFCURVE",
"160 211 OFFCURVE",
"167 236 CURVE",
"173 262 OFFCURVE",
"187 295 OFFCURVE",
"206 331 CURVE",
"228 322 OFFCURVE",
"247 317 OFFCURVE",
"262 317 CURVE SMOOTH",
"271 317 OFFCURVE",
"281 318 OFFCURVE",
"292 321 CURVE",
"303 324 OFFCURVE",
"317 327 OFFCURVE",
"333 333 CURVE",
"349 338 OFFCURVE",
"364 349 OFFCURVE",
"379 364 CURVE SMOOTH",
"394 379 OFFCURVE",
"406 398 OFFCURVE",
"413 419 CURVE SMOOTH",
"414 423 OFFCURVE",
"414 424 OFFCURVE",
"412 424 CURVE",
"409 426 OFFCURVE",
"407 426 OFFCURVE",
"406 424 CURVE",
"392 398 OFFCURVE",
"381 378 OFFCURVE",
"372 368 CURVE SMOOTH",
"362 357 OFFCURVE",
"347 348 OFFCURVE",
"328 342 CURVE SMOOTH",
"291 331 LINE SMOOTH",
"287 329 OFFCURVE",
"278 329 OFFCURVE",
"267 329 CURVE SMOOTH",
"257 329 OFFCURVE",
"248 328 OFFCURVE",
"240 332 CURVE",
"231 334 OFFCURVE",
"221 338 OFFCURVE",
"210 343 CURVE",
"251 413 OFFCURVE",
"301 478 OFFCURVE",
"357 539 CURVE SMOOTH",
"413 599 OFFCURVE",
"475 653 OFFCURVE",
"543 700 CURVE",
"539 701 LINE",
"512 688 OFFCURVE",
"478 679 OFFCURVE",
"439 673 CURVE SMOOTH",
"322 656 LINE",
"281 649 OFFCURVE",
"246 635 OFFCURVE",
"216 617 CURVE SMOOTH",
"186 597 OFFCURVE",
"162 573 OFFCURVE",
"142 547 CURVE SMOOTH",
"124 520 OFFCURVE",
"114 489 OFFCURVE",
"114 456 CURVE SMOOTH",
"114 434 OFFCURVE",
"117 416 OFFCURVE",
"125 398 CURVE SMOOTH",
"132 379 OFFCURVE",
"144 366 OFFCURVE",
"158 354 CURVE",
"137 326 OFFCURVE",
"120 298 OFFCURVE",
"109 272 CURVE SMOOTH",
"97 246 OFFCURVE",
"89 220 OFFCURVE",
"84 193 CURVE",
"77 167 OFFCURVE",
"75 144 OFFCURVE",
"75 124 CURVE SMOOTH",
"75 97 OFFCURVE",
"80 74 OFFCURVE",
"90 54 CURVE",
"99 34 OFFCURVE",
"112 20 OFFCURVE",
"131 11 CURVE SMOOTH",
"149 2 OFFCURVE",
"165 -5 OFFCURVE",
"181 -9 CURVE",
"195 -11 OFFCURVE",
"208 -12 OFFCURVE",
"222 -12 CURVE SMOOTH"
);
},
{
closed = 1;
nodes = (
"150 381 OFFCURVE",
"140 396 OFFCURVE",
"135 412 CURVE SMOOTH",
"130 427 OFFCURVE",
"127 446 OFFCURVE",
"127 467 CURVE SMOOTH",
"127 492 OFFCURVE",
"136 517 OFFCURVE",
"154 540 CURVE",
"170 565 OFFCURVE",
"202 592 OFFCURVE",
"247 620 CURVE",
"271 634 OFFCURVE",
"301 644 OFFCURVE",
"337 648 CURVE SMOOTH",
"369 651 OFFCURVE",
"411 655 OFFCURVE",
"459 659 CURVE",
"344 559 LINE SMOOTH",
"311 530 OFFCURVE",
"282 502 OFFCURVE",
"251 468 CURVE SMOOTH",
"221 437 OFFCURVE",
"192 403 OFFCURVE",
"166 367 CURVE"
);
}
);
width = 735;
}
);
note = U;
unicode = 0055;
},
{
color = 1;
glyphname = V;
lastChange = "2018-07-19 12:45:06 +0000";
layers = (
{
anchors = (
{
name = bottom;
position = "{269, 0}";
},
{
name = top;
position = "{444, 700}";
}
);
background = {
paths = (
{
closed = 1;
nodes = (
"381 72 LINE SMOOTH",
"406 97 OFFCURVE",
"427 122 OFFCURVE",
"449 149 CURVE SMOOTH",
"469 173 OFFCURVE",
"490 202 OFFCURVE",
"510 237 CURVE SMOOTH",
"559 319 LINE",
"571 341 OFFCURVE",
"581 364 OFFCURVE",
"590 393 CURVE SMOOTH",
"598 422 OFFCURVE",
"605 447 OFFCURVE",
"609 473 CURVE SMOOTH",
"620 549 LINE",
"628 543 OFFCURVE",
"636 537 OFFCURVE",
"645 532 CURVE",
"654 525 OFFCURVE",
"662 522 OFFCURVE",
"667 520 CURVE",
"659 533 LINE",
"649 538 OFFCURVE",
"644 543 OFFCURVE",
"639 547 CURVE",
"623 562 LINE",
"621 593 OFFCURVE",
"620 615 OFFCURVE",
"616 631 CURVE SMOOTH",
"612 644 OFFCURVE",
"608 656 OFFCURVE",
"602 669 CURVE SMOOTH",
"597 683 OFFCURVE",
"587 693 OFFCURVE",
"575 701 CURVE",
"565 710 OFFCURVE",
"554 714 OFFCURVE",
"542 714 CURVE SMOOTH",
"531 714 OFFCURVE",
"525 708 OFFCURVE",
"523 695 CURVE",
"522 690 OFFCURVE",
"522 685 OFFCURVE",
"522 680 CURVE SMOOTH",
"522 675 OFFCURVE",
"522 671 OFFCURVE",
"523 666 CURVE SMOOTH",
"527 648 OFFCURVE",
"539 629 OFFCURVE",
"557 608 CURVE SMOOTH",
"575 589 OFFCURVE",
"591 572 OFFCURVE",
"609 555 CURVE",
"605 489 OFFCURVE",
"591 429 OFFCURVE",
"566 373 CURVE SMOOTH",
"544 318 OFFCURVE",
"513 266 OFFCURVE",
"476 216 CURVE SMOOTH",
"439 167 OFFCURVE",
"396 117 OFFCURVE",
"344 64 CURVE",
"313 110 OFFCURVE",
"289 151 OFFCURVE",
"274 190 CURVE SMOOTH",
"258 228 OFFCURVE",
"248 252 OFFCURVE",
"244 267 CURVE SMOOTH",
"242 276 OFFCURVE",
"241 286 OFFCURVE",
"237 302 CURVE",
"231 339 LINE",
"255 339 OFFCURVE",
"275 344 OFFCURVE",
"291 356 CURVE",
"310 366 OFFCURVE",
"322 381 OFFCURVE",
"330 401 CURVE",
"308 374 OFFCURVE",
"291 361 OFFCURVE",
"281 357 CURVE",
"272 352 OFFCURVE",
"260 349 OFFCURVE",
"244 349 CURVE SMOOTH",
"238 349 OFFCURVE",
"233 349 OFFCURVE",
"231 351 CURVE",
"226 370 OFFCURVE",
"224 390 OFFCURVE",
"224 410 CURVE SMOOTH",
"224 450 OFFCURVE",
"233 491 OFFCURVE",
"252 533 CURVE",
"344 690 LINE",
"178 648 LINE SMOOTH",
"122 633 OFFCURVE",
"84 608 OFFCURVE",
"66 573 CURVE SMOOTH",
"54 550 OFFCURVE",
"48 527 OFFCURVE",
"48 503 CURVE SMOOTH",
"48 491 OFFCURVE",
"49 480 OFFCURVE",
"52 468 CURVE SMOOTH",
"56 454 OFFCURVE",
"65 432 OFFCURVE",
"80 402 CURVE",
"96 372 OFFCURVE",
"125 353 OFFCURVE",
"165 344 CURVE",
"168 305 OFFCURVE",
"174 266 OFFCURVE",
"183 230 CURVE SMOOTH",
"190 201 OFFCURVE",
"200 171 OFFCURVE",
"213 141 CURVE SMOOTH",
"224 110 OFFCURVE",
"238 84 OFFCURVE",
"250 62 CURVE SMOOTH",
"264 41 OFFCURVE",
"273 27 OFFCURVE",
"280 21 CURVE",
"283 15 OFFCURVE",
"293 7 OFFCURVE",
"307 -1 CURVE"
);
},
{
closed = 1;
nodes = (
"147 357 OFFCURVE",
"130 364 OFFCURVE",
"115 377 CURVE SMOOTH",
"101 388 OFFCURVE",
"90 401 OFFCURVE",
"85 414 CURVE SMOOTH",
"72 443 LINE SMOOTH",
"68 452 OFFCURVE",
"66 458 OFFCURVE",
"63 467 CURVE SMOOTH",
"61 474 OFFCURVE",
"60 483 OFFCURVE",
"60 492 CURVE SMOOTH",
"60 505 OFFCURVE",
"62 519 OFFCURVE",
"66 534 CURVE SMOOTH",
"71 562 OFFCURVE",
"87 584 OFFCURVE",
"114 603 CURVE SMOOTH",
"140 622 OFFCURVE",
"173 635 OFFCURVE",
"209 644 CURVE SMOOTH",
"245 654 OFFCURVE",
"282 661 OFFCURVE",
"316 670 CURVE",
"287 635 OFFCURVE",
"262 603 OFFCURVE",
"241 572 CURVE SMOOTH",
"220 540 OFFCURVE",
"203 507 OFFCURVE",
"189 468 CURVE SMOOTH",
"175 428 OFFCURVE",
"168 389 OFFCURVE",
"167 353 CURVE"
);
},
{
closed = 1;
nodes = (
"589 592 OFFCURVE",
"576 604 OFFCURVE",
"571 610 CURVE",
"565 619 OFFCURVE",
"562 625 OFFCURVE",
"560 635 CURVE SMOOTH",
"558 643 LINE SMOOTH",
"557 646 OFFCURVE",
"556 653 OFFCURVE",
"556 659 CURVE",
"556 664 OFFCURVE",
"558 668 OFFCURVE",
"562 670 CURVE",
"567 674 OFFCURVE",
"575 669 OFFCURVE",
"583 656 CURVE",
"590 641 OFFCURVE",
"597 626 OFFCURVE",
"600 613 CURVE SMOOTH",
"610 573 LINE"
);
}
);
};
layerId = "0B1DFD06-3317-40CA-B510-4969A0718C16";
paths = (
{
closed = 1;
nodes = (
"237 0 LINE",
"447 163 OFFCURVE",
"685 440 OFFCURVE",
"685 637 CURVE SMOOTH",
"685 686 OFFCURVE",
"664 710 OFFCURVE",
"630 710 CURVE SMOOTH",
"593 710 OFFCURVE",
"568 683 OFFCURVE",
"568 644 CURVE SMOOTH",
"568 601 OFFCURVE",
"610 562 OFFCURVE",
"708 520 CURVE",
"627 577 OFFCURVE",
"605 622 OFFCURVE",
"605 651 CURVE SMOOTH",
"605 663 OFFCURVE",
"610 682 OFFCURVE",
"627 682 CURVE SMOOTH",
"641 682 OFFCURVE",
"649 669 OFFCURVE",
"649 643 CURVE SMOOTH",
"649 449 OFFCURVE",
"425 183 OFFCURVE",
"229 23 CURVE",
"247 23 LINE",
"206 89 OFFCURVE",
"184 157 OFFCURVE",
"184 230 CURVE SMOOTH",
"184 406 OFFCURVE",
"293 535 OFFCURVE",
"457 700 CURVE",
"449 700 LINE",
"420 687 OFFCURVE",
"392 679 OFFCURVE",
"362 674 CURVE SMOOTH",
"202 649 OFFCURVE",
"72 576 OFFCURVE",
"72 443 CURVE SMOOTH",
"72 362 OFFCURVE",
"142 317 OFFCURVE",
"229 317 CURVE SMOOTH",
"312 317 OFFCURVE",
"358 357 OFFCURVE",
"397 419 CURVE",
"347 364 OFFCURVE",
"305 347 OFFCURVE",
"249 347 CURVE SMOOTH",
"184 347 OFFCURVE",
"112 381 OFFCURVE",
"112 453 CURVE SMOOTH",
"112 562 OFFCURVE",
"223 625 OFFCURVE",
"365 647 CURVE",
"235 514 OFFCURVE",
"147 391 OFFCURVE",
"147 227 CURVE SMOOTH",
"147 143 OFFCURVE",
"176 73 OFFCURVE",
"221 0 CURVE"
);
}
);
width = 655;
},
{
associatedMasterId = "0B1DFD06-3317-40CA-B510-4969A0718C16";
layerId = "66B2D2ED-643C-4C6D-A772-F38DF554B29B";
name = "Jul 15 18, 08:55";
paths = (
{
closed = 1;
nodes = (
"305 72 LINE SMOOTH",
"336 97 OFFCURVE",
"364 122 OFFCURVE",
"392 149 CURVE SMOOTH",
"418 173 OFFCURVE",
"446 202 OFFCURVE",
"475 237 CURVE SMOOTH",
"545 319 LINE",
"562 341 OFFCURVE",
"578 364 OFFCURVE",
"594 393 CURVE SMOOTH",
"609 422 OFFCURVE",
"623 447 OFFCURVE",
"633 473 CURVE SMOOTH",
"663 549 LINE",
"669 543 OFFCURVE",
"676 537 OFFCURVE",
"684 532 CURVE",
"691 525 OFFCURVE",
"698 522 OFFCURVE",
"703 520 CURVE",
"698 533 LINE",
"689 538 OFFCURVE",
"685 543 OFFCURVE",
"681 547 CURVE",
"669 562 LINE",
"675 593 OFFCURVE",
"679 615 OFFCURVE",
"679 631 CURVE SMOOTH",
"679 644 OFFCURVE",
"678 656 OFFCURVE",
"675 669 CURVE SMOOTH",
"673 683 OFFCURVE",
"666 693 OFFCURVE",
"656 701 CURVE",
"648 710 OFFCURVE",
"638 714 OFFCURVE",
"626 714 CURVE SMOOTH",
"615 714 OFFCURVE",
"608 708 OFFCURVE",
"602 695 CURVE",
"598 685 OFFCURVE",
"595 675 OFFCURVE",
"595 666 CURVE SMOOTH",
"595 648 OFFCURVE",
"602 629 OFFCURVE",
"615 608 CURVE SMOOTH",
"628 589 OFFCURVE",
"640 572 OFFCURVE",
"653 555 CURVE",
"633 489 OFFCURVE",
"604 429 OFFCURVE",
"565 373 CURVE SMOOTH",
"529 318 OFFCURVE",
"485 266 OFFCURVE",
"436 216 CURVE SMOOTH",
"387 167 OFFCURVE",
"331 117 OFFCURVE",
"266 64 CURVE",
"247 110 OFFCURVE",
"233 151 OFFCURVE",
"227 190 CURVE SMOOTH",
"221 228 OFFCURVE",
"217 252 OFFCURVE",
"217 267 CURVE SMOOTH",
"217 276 OFFCURVE",
"218 286 OFFCURVE",
"218 302 CURVE",
"222 339 LINE",
"246 339 OFFCURVE",
"267 344 OFFCURVE",
"286 356 CURVE",
"307 366 OFFCURVE",
"323 381 OFFCURVE",
"336 401 CURVE",
"307 374 OFFCURVE",
"287 361 OFFCURVE",
"276 357 CURVE",
"266 352 OFFCURVE",
"253 349 OFFCURVE",
"237 349 CURVE SMOOTH",
"231 349 OFFCURVE",
"226 349 OFFCURVE",
"225 351 CURVE",
"225 409 OFFCURVE",
"247 470 OFFCURVE",
"291 533 CURVE",
"422 690 LINE",
"246 648 LINE SMOOTH",
"186 633 OFFCURVE",
"142 608 OFFCURVE",
"115 573 CURVE SMOOTH",
"89 539 OFFCURVE",
"75 504 OFFCURVE",
"75 468 CURVE SMOOTH",
"75 454 OFFCURVE",
"79 432 OFFCURVE",
"86 402 CURVE",
"95 372 OFFCURVE",
"119 353 OFFCURVE",
"157 344 CURVE",
"150 305 OFFCURVE",
"146 266 OFFCURVE",
"146 230 CURVE SMOOTH",
"146 201 OFFCURVE",
"149 171 OFFCURVE",
"154 141 CURVE SMOOTH",
"158 110 OFFCURVE",
"165 84 OFFCURVE",
"172 62 CURVE SMOOTH",
"180 41 OFFCURVE",
"186 27 OFFCURVE",
"191 21 CURVE",
"193 15 OFFCURVE",
"201 7 OFFCURVE",
"213 -1 CURVE"
);
},
{
closed = 1;
nodes = (
"142 357 OFFCURVE",
"127 364 OFFCURVE",
"115 377 CURVE SMOOTH",
"104 388 OFFCURVE",
"96 401 OFFCURVE",
"94 414 CURVE SMOOTH",
"89 443 LINE SMOOTH",
"87 452 OFFCURVE",
"86 458 OFFCURVE",
"86 467 CURVE SMOOTH",
"86 484 OFFCURVE",
"92 507 OFFCURVE",
"105 534 CURVE SMOOTH",
"117 562 OFFCURVE",
"139 584 OFFCURVE",
"170 603 CURVE SMOOTH",
"201 622 OFFCURVE",
"237 635 OFFCURVE",
"276 644 CURVE SMOOTH",
"314 654 OFFCURVE",
"353 661 OFFCURVE",
"389 670 CURVE",
"351 635 OFFCURVE",
"318 603 OFFCURVE",
"290 572 CURVE SMOOTH",
"261 540 OFFCURVE",
"236 507 OFFCURVE",
"212 468 CURVE SMOOTH",
"188 428 OFFCURVE",
"171 389 OFFCURVE",
"161 353 CURVE"
);
},
{
closed = 1;
nodes = (
"643 592 OFFCURVE",
"633 604 OFFCURVE",
"629 610 CURVE",
"625 619 OFFCURVE",
"624 625 OFFCURVE",
"624 635 CURVE SMOOTH",
"624 643 LINE SMOOTH",
"624 646 OFFCURVE",
"625 653 OFFCURVE",
"626 659 CURVE",
"628 664 OFFCURVE",
"631 668 OFFCURVE",
"635 670 CURVE",
"641 674 OFFCURVE",
"648 669 OFFCURVE",
"653 656 CURVE",
"656 641 OFFCURVE",
"659 626 OFFCURVE",
"659 613 CURVE SMOOTH",
"659 573 LINE"
);
}
);
width = 641;
}
);
note = V;
unicode = 0056;
},
{
color = 1;
glyphname = W;
lastChange = "2018-07-19 12:45:06 +0000";
layers = (
{
anchors = (
{
name = bottom;
position = "{392, 0}";
},
{
name = top;
position = "{567, 700}";
}
);
background = {
paths = (
{
closed = 1;
nodes = (
"345 70 LINE SMOOTH",
"360 89 OFFCURVE",
"382 116 OFFCURVE",
"410 160 CURVE SMOOTH",
"438 202 OFFCURVE",
"462 233 OFFCURVE",
"481 253 CURVE",
"494 198 OFFCURVE",
"505 158 OFFCURVE",
"513 135 CURVE",
"521 111 OFFCURVE",
"531 86 OFFCURVE",
"543 60 CURVE SMOOTH",
"554 34 OFFCURVE",
"562 17 OFFCURVE",
"565 14 CURVE",
"569 7 OFFCURVE",
"573 5 OFFCURVE",
"577 5 CURVE SMOOTH",
"578 5 OFFCURVE",
"594 20 OFFCURVE",
"622 49 CURVE",
"650 77 OFFCURVE",
"683 120 OFFCURVE",
"722 176 CURVE SMOOTH",
"761 232 OFFCURVE",
"792 292 OFFCURVE",
"816 356 CURVE SMOOTH",
"840 418 OFFCURVE",
"854 484 OFFCURVE",
"857 554 CURVE",
"866 548 OFFCURVE",
"875 543 OFFCURVE",
"880 542 CURVE SMOOTH",
"893 538 LINE",
"891 543 LINE",
"880 547 OFFCURVE",
"869 554 OFFCURVE",
"856 565 CURVE",
"854 594 LINE",
"852 600 OFFCURVE",
"851 610 OFFCURVE",
"848 620 CURVE SMOOTH",
"845 631 OFFCURVE",
"841 644 OFFCURVE",
"834 655 CURVE",
"828 669 OFFCURVE",
"822 678 OFFCURVE",
"815 686 CURVE",
"808 694 OFFCURVE",
"798 701 OFFCURVE",
"788 708 CURVE SMOOTH",
"778 714 OFFCURVE",
"771 718 OFFCURVE",
"766 718 CURVE SMOOTH",
"762 718 OFFCURVE",
"758 715 OFFCURVE",
"756 709 CURVE",
"753 691 LINE",
"752 686 OFFCURVE",
"752 680 OFFCURVE",
"754 671 CURVE SMOOTH",
"758 655 OFFCURVE",
"768 639 OFFCURVE",
"785 623 CURVE",
"846 559 LINE",
"844 498 OFFCURVE",
"835 443 OFFCURVE",
"819 394 CURVE SMOOTH",
"804 344 OFFCURVE",
"782 297 OFFCURVE",
"753 252 CURVE SMOOTH",
"724 203 OFFCURVE",
"683 147 OFFCURVE",
"627 77 CURVE",
"604 114 OFFCURVE",
"584 155 OFFCURVE",
"568 198 CURVE SMOOTH",
"550 245 OFFCURVE",
"536 291 OFFCURVE",
"524 339 CURVE",
"574 448 LINE SMOOTH",
"593 487 OFFCURVE",
"604 524 OFFCURVE",
"608 563 CURVE SMOOTH",
"614 602 OFFCURVE",
"610 645 OFFCURVE",
"597 696 CURVE SMOOTH",
"596 701 OFFCURVE",
"593 706 OFFCURVE",
"586 711 CURVE SMOOTH",
"581 715 OFFCURVE",
"576 718 OFFCURVE",
"570 718 CURVE SMOOTH",
"568 718 OFFCURVE",
"566 716 OFFCURVE",
"562 715 CURVE",
"517 671 OFFCURVE",
"487 628 OFFCURVE",
"470 583 CURVE SMOOTH",
"455 539 OFFCURVE",
"449 502 OFFCURVE",
"451 469 CURVE SMOOTH",
"454 438 OFFCURVE",
"459 378 OFFCURVE",
"472 285 CURVE",
"461 263 OFFCURVE",
"449 243 OFFCURVE",
"436 223 CURVE SMOOTH",
"384 152 LINE SMOOTH",
"362 124 OFFCURVE",
"345 104 OFFCURVE",
"335 85 CURVE",
"326 104 OFFCURVE",
"311 130 OFFCURVE",
"292 168 CURVE SMOOTH",
"272 206 OFFCURVE",
"258 242 OFFCURVE",
"250 276 CURVE SMOOTH",
"245 296 OFFCURVE",
"242 314 OFFCURVE",
"240 334 CURVE",
"262 334 OFFCURVE",
"280 342 OFFCURVE",
"294 356 CURVE",
"309 372 OFFCURVE",
"321 388 OFFCURVE",
"329 412 CURVE",
"319 419 LINE",
"305 396 OFFCURVE",
"292 378 OFFCURVE",
"280 367 CURVE",
"269 356 OFFCURVE",
"255 349 OFFCURVE",
"236 349 CURVE",
"230 396 OFFCURVE",
"232 443 OFFCURVE",
"242 490 CURVE SMOOTH",
"252 537 OFFCURVE",
"268 579 OFFCURVE",
"288 623 CURVE",
"354 704 LINE",
"348 705 OFFCURVE",
"344 705 OFFCURVE",
"342 704 CURVE",
"318 688 OFFCURVE",
"281 673 OFFCURVE",
"231 659 CURVE SMOOTH",
"181 644 OFFCURVE",
"144 633 OFFCURVE",
"120 623 CURVE",
"97 612 OFFCURVE",
"76 595 OFFCURVE",
"59 567 CURVE SMOOTH",
"43 538 OFFCURVE",
"39 505 OFFCURVE",
"48 467 CURVE SMOOTH",
"55 442 OFFCURVE",
"65 419 OFFCURVE",
"78 399 CURVE",
"93 381 OFFCURVE",
"108 367 OFFCURVE",
"121 359 CURVE",
"136 349 OFFCURVE",
"156 342 OFFCURVE",
"183 336 CURVE",
"187 287 LINE",
"190 276 OFFCURVE",
"194 257 OFFCURVE",
"201 228 CURVE SMOOTH",
"207 205 OFFCURVE",
"214 178 OFFCURVE",
"224 151 CURVE SMOOTH",
"233 122 OFFCURVE",
"250 77 OFFCURVE",
"272 17 CURVE",
"274 14 OFFCURVE",
"276 10 OFFCURVE",
"281 6 CURVE SMOOTH",
"286 2 OFFCURVE",
"290 1 OFFCURVE",
"293 2 CURVE"
);
},
{
closed = 1;
nodes = (
"161 356 OFFCURVE",
"142 362 OFFCURVE",
"129 371 CURVE SMOOTH",
"117 378 OFFCURVE",
"105 389 OFFCURVE",
"91 404 CURVE",
"78 421 OFFCURVE",
"69 438 OFFCURVE",
"64 458 CURVE SMOOTH",
"56 490 OFFCURVE",
"60 520 OFFCURVE",
"75 548 CURVE SMOOTH",
"91 575 OFFCURVE",
"112 595 OFFCURVE",
"140 609 CURVE",
"226 646 LINE SMOOTH",
"234 650 OFFCURVE",
"243 653 OFFCURVE",
"252 654 CURVE",
"279 659 LINE",
"225 568 LINE",
"209 532 OFFCURVE",
"198 495 OFFCURVE",
"191 459 CURVE SMOOTH",
"185 424 OFFCURVE",
"182 388 OFFCURVE",
"184 349 CURVE"
);
},
{
closed = 1;
nodes = (
"500 439 OFFCURVE",
"494 498 OFFCURVE",
"494 550 CURVE SMOOTH",
"495 602 OFFCURVE",
"510 646 OFFCURVE",
"542 683 CURVE",
"545 685 OFFCURVE",
"548 686 OFFCURVE",
"552 686 CURVE SMOOTH",
"558 686 OFFCURVE",
"563 684 OFFCURVE",
"567 680 CURVE SMOOTH",
"572 676 OFFCURVE",
"577 670 OFFCURVE",
"578 664 CURVE SMOOTH",
"587 630 OFFCURVE",
"588 598 OFFCURVE",
"585 564 CURVE SMOOTH",
"582 533 OFFCURVE",
"575 502 OFFCURVE",
"566 473 CURVE",
"554 444 OFFCURVE",
"542 412 OFFCURVE",
"523 373 CURVE",
"517 373 LINE"
);
},
{
closed = 1;
nodes = (
"799 628 LINE",
"787 643 OFFCURVE",
"781 655 OFFCURVE",
"779 664 CURVE SMOOTH",
"779 665 OFFCURVE",
"779 669 OFFCURVE",
"779 674 CURVE SMOOTH",
"778 679 OFFCURVE",
"782 681 OFFCURVE",
"788 681 CURVE SMOOTH",
"790 681 OFFCURVE",
"793 680 OFFCURVE",
"798 679 CURVE",
"808 674 OFFCURVE",
"816 661 OFFCURVE",
"823 640 CURVE",
"832 622 OFFCURVE",
"838 599 OFFCURVE",
"845 574 CURVE"
);
}
);
};
layerId = "0B1DFD06-3317-40CA-B510-4969A0718C16";
paths = (
{
closed = 1;
nodes = (
"236 0 LINE",
"434 167 OFFCURVE",
"680 461 OFFCURVE",
"680 658 CURVE SMOOTH",
"680 695 OFFCURVE",
"664 710 OFFCURVE",
"634 710 CURVE SMOOTH",
"517 710 OFFCURVE",
"460 439 OFFCURVE",
"460 269 CURVE SMOOTH",
"460 171 OFFCURVE",
"477 81 OFFCURVE",
"503 0 CURVE",
"519 0 LINE",
"712 163 OFFCURVE",
"931 448 OFFCURVE",
"931 637 CURVE SMOOTH",
"931 686 OFFCURVE",
"910 710 OFFCURVE",
"876 710 CURVE SMOOTH",
"839 710 OFFCURVE",
"814 683 OFFCURVE",
"814 644 CURVE SMOOTH",
"814 601 OFFCURVE",
"856 562 OFFCURVE",
"954 520 CURVE",
"873 577 OFFCURVE",
"851 622 OFFCURVE",
"851 651 CURVE SMOOTH",
"851 663 OFFCURVE",
"856 682 OFFCURVE",
"873 682 CURVE SMOOTH",
"887 682 OFFCURVE",
"895 669 OFFCURVE",
"895 643 CURVE SMOOTH",
"895 459 OFFCURVE",
"699 201 OFFCURVE",
"531 43 CURVE",
"510 116 OFFCURVE",
"497 191 OFFCURVE",
"497 273 CURVE SMOOTH",
"497 403 OFFCURVE",
"551 682 OFFCURVE",
"625 682 CURVE SMOOTH",
"637 682 OFFCURVE",
"643 675 OFFCURVE",
"643 658 CURVE SMOOTH",
"643 462 OFFCURVE",
"401 175 OFFCURVE",
"226 26 CURVE",
"251 21 LINE",
"225 92 OFFCURVE",
"205 161 OFFCURVE",
"205 235 CURVE SMOOTH",
"205 401 OFFCURVE",
"301 524 OFFCURVE",
"452 700 CURVE",
"444 700 LINE",
"420 689 OFFCURVE",
"393 680 OFFCURVE",
"361 674 CURVE SMOOTH",
"209 649 OFFCURVE",
"74 578 OFFCURVE",
"74 459 CURVE SMOOTH",
"74 383 OFFCURVE",
"145 337 OFFCURVE",
"233 337 CURVE SMOOTH",
"316 337 OFFCURVE",
"362 377 OFFCURVE",
"401 439 CURVE",
"351 384 OFFCURVE",
"309 367 OFFCURVE",
"253 367 CURVE SMOOTH",
"187 367 OFFCURVE",
"115 402 OFFCURVE",
"115 468 CURVE SMOOTH",
"115 573 OFFCURVE",
"245 630 OFFCURVE",
"390 650 CURVE",
"382 664 LINE",
"257 515 OFFCURVE",
"168 396 OFFCURVE",
"168 233 CURVE SMOOTH",
"168 151 OFFCURVE",
"190 72 OFFCURVE",
"220 0 CURVE"
);
}
);
width = 901;
},
{
associatedMasterId = "0B1DFD06-3317-40CA-B510-4969A0718C16";
layerId = "59AE1A6C-3E5C-4EDB-9AA3-9A9925EC05B8";
name = "Jul 15 18, 09:21";
paths = (
{
closed = 1;
nodes = (
"262 70 LINE SMOOTH",
"281 89 OFFCURVE",
"310 116 OFFCURVE",
"349 160 CURVE SMOOTH",
"388 202 OFFCURVE",
"419 233 OFFCURVE",
"443 253 CURVE",
"443 198 OFFCURVE",
"444 158 OFFCURVE",
"446 135 CURVE",
"448 111 OFFCURVE",
"452 86 OFFCURVE",
"457 60 CURVE SMOOTH",
"462 34 OFFCURVE",
"466 17 OFFCURVE",
"468 14 CURVE",
"470 7 OFFCURVE",
"474 5 OFFCURVE",
"478 5 CURVE SMOOTH",
"479 5 OFFCURVE",
"498 20 OFFCURVE",
"534 49 CURVE",
"568 77 OFFCURVE",
"612 120 OFFCURVE",
"665 176 CURVE SMOOTH",
"718 232 OFFCURVE",
"764 292 OFFCURVE",
"804 356 CURVE SMOOTH",
"844 418 OFFCURVE",
"874 484 OFFCURVE",
"894 554 CURVE",
"902 548 OFFCURVE",
"910 543 OFFCURVE",
"914 542 CURVE SMOOTH",
"926 538 LINE",
"926 543 LINE",
"916 547 OFFCURVE",
"906 554 OFFCURVE",
"896 565 CURVE",
"901 594 LINE",
"901 600 OFFCURVE",
"902 610 OFFCURVE",
"902 620 CURVE SMOOTH",
"902 631 OFFCURVE",
"901 644 OFFCURVE",
"897 655 CURVE",
"894 669 OFFCURVE",
"890 678 OFFCURVE",
"885 686 CURVE",
"880 694 OFFCURVE",
"872 701 OFFCURVE",
"864 708 CURVE SMOOTH",
"855 714 OFFCURVE",
"849 718 OFFCURVE",
"844 718 CURVE SMOOTH",
"840 718 OFFCURVE",
"836 715 OFFCURVE",
"832 709 CURVE",
"825 691 LINE",
"822 686 OFFCURVE",
"821 680 OFFCURVE",
"821 671 CURVE SMOOTH",
"821 655 OFFCURVE",
"827 639 OFFCURVE",
"840 623 CURVE",
"885 559 LINE",
"867 498 OFFCURVE",
"845 443 OFFCURVE",
"817 394 CURVE SMOOTH",
"789 344 OFFCURVE",
"755 297 OFFCURVE",
"715 252 CURVE SMOOTH",
"674 203 OFFCURVE",
"619 147 OFFCURVE",
"545 77 CURVE",
"532 114 OFFCURVE",
"522 155 OFFCURVE",
"517 198 CURVE SMOOTH",
"510 245 OFFCURVE",
"508 291 OFFCURVE",
"508 339 CURVE",
"585 448 LINE SMOOTH",
"614 487 OFFCURVE",
"634 524 OFFCURVE",
"648 563 CURVE SMOOTH",
"663 602 OFFCURVE",
"670 645 OFFCURVE",
"670 696 CURVE SMOOTH",
"670 701 OFFCURVE",
"668 706 OFFCURVE",
"663 711 CURVE SMOOTH",
"659 715 OFFCURVE",
"654 718 OFFCURVE",
"648 718 CURVE SMOOTH",
"646 718 OFFCURVE",
"644 716 OFFCURVE",
"640 715 CURVE",
"584 671 OFFCURVE",
"543 628 OFFCURVE",
"515 583 CURVE SMOOTH",
"489 539 OFFCURVE",
"473 502 OFFCURVE",
"467 469 CURVE SMOOTH",
"462 438 OFFCURVE",
"453 378 OFFCURVE",
"442 285 CURVE",
"426 263 OFFCURVE",
"409 243 OFFCURVE",
"391 223 CURVE SMOOTH",
"321 152 LINE SMOOTH",
"292 124 OFFCURVE",
"270 104 OFFCURVE",
"255 85 CURVE",
"251 104 OFFCURVE",
"243 130 OFFCURVE",
"233 168 CURVE SMOOTH",
"223 206 OFFCURVE",
"218 242 OFFCURVE",
"218 276 CURVE SMOOTH",
"218 296 OFFCURVE",
"220 314 OFFCURVE",
"223 334 CURVE",
"245 334 OFFCURVE",
"265 342 OFFCURVE",
"282 356 CURVE",
"301 372 OFFCURVE",
"317 388 OFFCURVE",
"331 412 CURVE",
"323 419 LINE",
"303 396 OFFCURVE",
"286 378 OFFCURVE",
"271 367 CURVE",
"257 356 OFFCURVE",
"241 349 OFFCURVE",
"222 349 CURVE",
"228 396 OFFCURVE",
"242 443 OFFCURVE",
"263 490 CURVE SMOOTH",
"285 537 OFFCURVE",
"312 579 OFFCURVE",
"343 623 CURVE",
"429 704 LINE",
"423 705 OFFCURVE",
"419 705 OFFCURVE",
"417 704 CURVE",
"389 688 OFFCURVE",
"348 673 OFFCURVE",
"295 659 CURVE SMOOTH",
"241 644 OFFCURVE",
"201 633 OFFCURVE",
"175 623 CURVE",
"149 612 OFFCURVE",
"124 595 OFFCURVE",
"100 567 CURVE SMOOTH",
"76 538 OFFCURVE",
"64 505 OFFCURVE",
"64 467 CURVE SMOOTH",
"64 442 OFFCURVE",
"69 419 OFFCURVE",
"77 399 CURVE",
"87 381 OFFCURVE",
"99 367 OFFCURVE",
"110 359 CURVE",
"122 349 OFFCURVE",
"141 342 OFFCURVE",
"166 336 CURVE",
"158 287 LINE",
"158 276 OFFCURVE",
"157 257 OFFCURVE",
"157 228 CURVE SMOOTH",
"157 205 OFFCURVE",
"158 178 OFFCURVE",
"161 151 CURVE SMOOTH",
"163 122 OFFCURVE",
"168 77 OFFCURVE",
"176 17 CURVE",
"177 14 OFFCURVE",
"178 10 OFFCURVE",
"182 6 CURVE SMOOTH",
"186 2 OFFCURVE",
"190 1 OFFCURVE",
"193 2 CURVE"
);
},
{
closed = 1;
nodes = (
"149 356 OFFCURVE",
"132 362 OFFCURVE",
"121 371 CURVE SMOOTH",
"111 378 OFFCURVE",
"101 389 OFFCURVE",
"91 404 CURVE",
"82 421 OFFCURVE",
"77 438 OFFCURVE",
"77 458 CURVE SMOOTH",
"77 490 OFFCURVE",
"89 520 OFFCURVE",
"111 548 CURVE SMOOTH",
"134 575 OFFCURVE",
"160 595 OFFCURVE",
"191 609 CURVE",
"286 646 LINE SMOOTH",
"295 650 OFFCURVE",
"305 653 OFFCURVE",
"314 654 CURVE",
"343 659 LINE",
"266 568 LINE",
"241 532 OFFCURVE",
"221 495 OFFCURVE",
"205 459 CURVE SMOOTH",
"190 424 OFFCURVE",
"178 388 OFFCURVE",
"170 349 CURVE"
);
},
{
closed = 1;
nodes = (
"509 439 OFFCURVE",
"517 498 OFFCURVE",
"530 550 CURVE SMOOTH",
"544 602 OFFCURVE",
"570 646 OFFCURVE",
"612 683 CURVE",
"615 685 OFFCURVE",
"618 686 OFFCURVE",
"622 686 CURVE SMOOTH",
"628 686 OFFCURVE",
"633 684 OFFCURVE",
"636 680 CURVE SMOOTH",
"640 676 OFFCURVE",
"643 670 OFFCURVE",
"643 664 CURVE SMOOTH",
"643 630 OFFCURVE",
"636 598 OFFCURVE",
"625 564 CURVE SMOOTH",
"614 533 OFFCURVE",
"599 502 OFFCURVE",
"583 473 CURVE",
"564 444 OFFCURVE",
"544 412 OFFCURVE",
"515 373 CURVE",
"509 373 LINE"
);
},
{
closed = 1;
nodes = (
"855 628 LINE",
"847 643 OFFCURVE",
"844 655 OFFCURVE",
"844 664 CURVE SMOOTH",
"844 665 OFFCURVE",
"845 669 OFFCURVE",
"846 674 CURVE SMOOTH",
"847 679 OFFCURVE",
"851 681 OFFCURVE",
"857 681 CURVE SMOOTH",
"859 681 OFFCURVE",
"862 680 OFFCURVE",
"867 679 CURVE",
"875 674 OFFCURVE",
"880 661 OFFCURVE",
"882 640 CURVE",
"886 622 OFFCURVE",
"887 599 OFFCURVE",
"887 574 CURVE"
);
}
);
width = 875;
}
);
note = W;
unicode = 0057;
},
